<?xml version="1.0" encoding="UTF-8" standalone="no"?>
<svg
   xmlns:dc="http://purl.org/dc/elements/1.1/"
   xmlns:cc="http://creativecommons.org/ns#"
   xmlns:rdf="http://www.w3.org/1999/02/22-rdf-syntax-ns#"
   xmlns:svg="http://www.w3.org/2000/svg"
   xmlns="http://www.w3.org/2000/svg"
   xmlns:sodipodi="http://sodipodi.sourceforge.net/DTD/sodipodi-0.dtd"
   xmlns:inkscape="http://www.inkscape.org/namespaces/inkscape"
   xml:space="preserve"
   width="110.6949mm"
   height="18.989mm"
   version="1.1"
   style="clip-rule:evenodd;fill-rule:evenodd;image-rendering:optimizeQuality;shape-rendering:geometricPrecision;text-rendering:geometricPrecision"
   viewBox="0 0 11069.473 1898.9001"
   id="svg849"
   sodipodi:docname="drtd_mini_dark.svg"
   inkscape:version="1.0.2 (e86c870879, 2021-01-15, custom)"><metadata
   id="metadata853"><rdf:RDF><cc:Work
       rdf:about=""><dc:format>image/svg+xml</dc:format><dc:type
         rdf:resource="http://purl.org/dc/dcmitype/StillImage" /><dc:title /></cc:Work></rdf:RDF></metadata><sodipodi:namedview
   pagecolor="#ffffff"
   bordercolor="#666666"
   borderopacity="1"
   objecttolerance="10"
   gridtolerance="10"
   guidetolerance="10"
   inkscape:pageopacity="0"
   inkscape:pageshadow="2"
   inkscape:window-width="1920"
   inkscape:window-height="1001"
   id="namedview851"
   showgrid="false"
   fit-margin-top="0"
   fit-margin-left="0"
   fit-margin-right="0"
   fit-margin-bottom="0"
   inkscape:zoom="1.5229167"
   inkscape:cx="231.54784"
   inkscape:cy="28.490252"
   inkscape:window-x="-9"
   inkscape:window-y="-9"
   inkscape:window-maximized="1"
   inkscape:current-layer="Capa_x0020_1"
   inkscape:document-rotation="0" />
 <defs
   id="defs835">
  <style
   type="text/css"
   id="style833">
   <![CDATA[
    .fil0 {fill:#B7B8B9}
    .fil1 {fill:#B7B8B9;fill-rule:nonzero}
   ]]>
  </style>
 </defs>
 <g
   id="Capa_x0020_1"
   transform="translate(-223.63016,-971.37)">
  <metadata
   id="CorelCorpID_0Corel-Layer" />
  <g
   id="_1742472283264"
   style="fill:#666666">
   <path
   class="fil0"
   d="m 1647.38,1359.87 c -2.68,4.28 -11.69,19.55 -16.87,19.55 -11.05,0 -20.11,-7.52 -33.72,-7.52 h -7.03 c -3.79,0 -3.87,0.72 -7.02,1.5 -0.18,8.46 -10.31,12.01 -16.31,21.66 -5.27,8.48 -8.03,16.17 -13.75,24.4 -3.78,5.44 -31.77,42.89 -31.77,45.71 0,13.86 11.24,30.79 11.24,48.14 6.37,2.47 7.02,11.92 7.02,21.06 0,3.47 -15.59,19.14 -18.26,21.06 0,12.65 -2.25,9.64 -9.84,13.53 1.5,6.03 5.62,7.85 5.62,15.05 0,16.22 -7.03,35.17 -7.03,39.11 0,11.69 14.06,36.2 14.06,49.64 0,7.21 -15.8,17.73 -19.65,25.81 l 18.24,-1.74 h 7.03 c 7.53,0 16.22,9.03 32.32,9.03 1.69,2.71 2.81,2.64 2.81,6.02 0,0.68 -6.18,32.68 -6.51,33.65 -4.58,13.44 -19.27,9.32 -27.29,14.41 -3.81,2.42 -13.52,19.46 -17.82,24.54 -5.4,6.38 -15.83,15.82 -15.83,26.68 0,3.6 5.88,8.55 7.57,12.99 1.82,4.8 -0.55,12.72 -0.55,20.11 v 7.52 h 9.84 c 6.24,0 5.71,15.5 8.41,22.58 4.28,11.2 7.57,11.19 14.07,15.03 4.4,3.4 -0.19,5.17 6.97,9.15 6.2,3.44 6.14,-1.63 15.34,1.54 16.37,5.64 16.82,-1.28 24.07,14.88 -8.59,13.73 -25.76,19.6 -37.39,36.7 -5.77,8.5 -10.03,15.13 -9.66,25.34 0.48,12.9 -7.76,25.83 -7.76,28.22 v 3.01 c 0,2.31 5.77,11.52 7.03,13.54 0,22.89 8.43,14.63 8.43,27.08 v 3.01 c 0,5.78 -7.92,4.52 -12.23,13.98 -2.93,6.41 -3.69,14.22 -10.25,16.1 3.2,8.31 4.56,6.64 16.01,11.44 6.17,2.58 18.94,5.43 22.98,8.5 11.64,8.84 24.82,17.6 42.51,19.17 -0.52,6.64 -2.81,6.59 -2.81,10.53 0,19.65 12.46,33.93 23.82,41.72 l 7.09,-1.1 v -12.03 c 7.1,-2.75 17.18,-20.32 20.21,-29.52 2.25,-6.84 23.01,-18.62 31.79,-18.62 h 28.1 c 5.9,0 14.06,6.67 14.06,12.03 v 6.02 c 0,6.57 -2.81,5.46 -2.81,12.03 l -0.06,4.9 28.16,4.13 h 2.81 c 11.88,0 18.75,-7.69 19.67,-19.56 l 4.22,0.05 23.89,1.46 c 0.46,5.97 1.4,3.62 1.4,7.52 0,9.6 -9.83,6.43 -9.83,22.56 l -3.22,0.44 -2.41,5.58 c 5.03,7.74 8.74,16.12 17.29,20.62 8.39,4.41 17.58,8.78 17.85,21.5 h 5.62 c 4.67,0 4.11,-2.7 4.44,-7.17 l 23.75,-18.64 22.4,9.26 c 9.91,-9.22 35.13,0.96 35.13,-25.57 9.61,-2.4 17.76,-4.49 22.8,-12.1 l -1.72,-7.45 c 13.01,-7.37 26.7,-1.81 27.39,-21.89 l 18.76,-22.1 -0.82,-3.04 -10.93,-22.69 c 0,-12.3 -14.29,-27.58 -21.1,-44.76 -8.97,-22.61 -20.79,-45.01 -27.36,-55.51 0,-12.53 -1.58,-7.72 -3.7,-15.6 -0.9,-3.37 -0.99,-14.34 -1.56,-17.88 -1.96,-12.06 -6.05,-21.06 -6.01,-32.68 0.07,-19.62 -11.05,-49.42 -22.45,-52.68 1.69,-4.4 -6.48,-12.71 -9.21,-18.73 -3.31,-7.29 -5.31,-15.47 -8.78,-22.2 -3.83,-7.45 -26.57,-30.32 -31.2,-28.27 -2.06,-8.3 -15.14,-16.82 -20.25,-24.95 -7.83,-12.45 -9.12,-21.75 -14.88,-32.21 -5.61,-10.18 -11.93,-18.59 -21.98,-24.62 -4.99,-2.99 -26.27,-15.07 -30.01,-16.01 v -13.53 c 0,-10.82 -25.29,-23.61 -25.29,-46.64 v -6.02 c 0,-12.81 4.37,-17.94 8,-27.53 4.94,-13.04 2.07,-13.75 9.72,-25.7 4.77,-7.45 23.03,-39.93 28.65,-41.54 0.34,-16.24 9.83,-17.62 9.83,-30.09 0,-8.82 -9.66,-9.86 -12.94,-14.72 -0.35,-0.51 -7.97,-19.11 -8.13,-19.87 -16.66,-1.49 -28.11,-12.57 -28.11,-31.6 v -7.52 c 0,-13.58 10.08,-29.01 15.46,-37.6 0,-8.86 -4.8,-23.76 -4.42,-28.61 l 7.23,-66.17 c 0.86,-7.11 -4.39,-21.35 -7.03,-25.57 -8.8,0 -10.91,0.44 -12.64,-7.52 h -5.62 c -2.61,10.46 -38.34,23.3 -48.94,37.87 -5.74,7.89 -12.81,17.45 -17.57,26.32 -8.18,15.24 -10.78,12.93 -10.78,32.09 z"
   id="path838"
   style="fill:#666666" />
   <path
   class="fil1"
   d="m 923.02,2003.09 c -24.91,0 -45.34,20.17 -45.34,45.36 0,25.2 20.43,45.63 45.34,45.63 25.19,0 45.66,-20.43 45.66,-45.63 0,-25.19 -20.47,-45.36 -45.66,-45.36 z m 0,-486.54 c -24.91,0 -45.34,20.47 -45.34,45.68 0,25.19 20.43,45.37 45.34,45.37 25.19,0 45.66,-20.18 45.66,-45.37 0,-25.21 -20.47,-45.68 -45.66,-45.68 z m 1631.18,-65.51 c 25.19,0 45.66,-20.14 45.66,-45.33 0,-25.19 -20.47,-45.37 -45.66,-45.37 -25.21,0 -45.34,20.18 -45.34,45.37 0,25.19 20.13,45.33 45.34,45.33 z m 0,427.25 c 25.19,0 45.66,-20.47 45.66,-45.67 0,-24.9 -20.47,-45.37 -45.66,-45.37 -25.21,0 -45.34,20.47 -45.34,45.37 0,25.2 20.13,45.67 45.34,45.67 z m -1884.95,813.2 h 2146.74 c 49.21,0 89.24,40.32 89.24,89.24 0,49.22 -40.03,89.54 -89.24,89.54 H 669.25 c -49.23,0 -89.54,-40.32 -89.54,-89.54 0,-48.92 40.31,-89.24 89.54,-89.24 z M 462.9,1931.05 V 1607.6 H 269.59 c -25.17,0 -45.97,-20.44 -45.97,-45.37 0,-25.21 20.8,-45.68 45.97,-45.68 h 133.14 60.17 164.24 103.15 103.2 c 16.61,-32.58 42.4,-54.82 89.53,-54.82 47.42,0 100.48,45.05 100.48,100.5 0,55.44 -53.06,100.22 -100.48,100.22 -47.13,0 -72.92,-22.23 -89.53,-54.85 H 627.14 v 323.45 z m 2551.42,20.77 v 412.37 c 0,97.84 -80.02,177.9 -177.86,177.9 H 2063.56 1360.29 640.8 c -97.86,0 -177.9,-80.06 -177.9,-177.9 V 2094.08 H 269.59 c -25.17,0 -45.97,-20.43 -45.97,-45.63 0,-24.89 20.8,-45.36 45.97,-45.36 h 133.14 60.17 164.24 103.15 103.2 c 16.61,-32.64 42.4,-54.86 89.53,-54.86 47.42,0 100.48,44.78 100.48,100.22 0,55.44 -53.06,100.49 -100.48,100.49 -47.13,0 -72.92,-22.23 -89.53,-54.86 H 627.14 v 239.28 c 0,31.71 26.1,57.82 58.1,57.82 h 675.05 703.27 728.7 c 31.74,0 57.82,-26.11 57.82,-57.82 v -381.54 z m 0,-426.66 v 262.09 h 193.6 c 25.2,0 45.67,20.47 45.67,45.37 0,25.2 -20.47,45.67 -45.67,45.67 h -105.54 -88.06 -164.24 -75.58 -130.77 c -16.59,32.59 -42.07,54.81 -89.53,54.81 -47.14,0 -100.49,-45.04 -100.49,-100.48 0,-55.44 53.35,-100.23 100.49,-100.23 47.46,0 72.94,22.27 89.53,54.86 h 206.35 V 1525.16 Z M 640.8,971.37 h 719.49 703.27 772.9 c 97.84,0 177.86,80.05 177.86,177.9 v 211.07 h 193.6 c 25.2,0 45.67,20.43 45.67,45.37 0,24.9 -20.47,45.33 -45.67,45.33 h -113.22 -80.38 -164.24 -83.27 -123.08 c -16.59,32.64 -42.07,55.15 -89.53,55.15 -47.14,0 -100.49,-45.04 -100.49,-100.48 0,-55.44 53.35,-100.52 100.49,-100.52 47.46,0 72.94,22.55 89.53,55.15 h 206.35 v -179.95 c 0,-32.04 -26.08,-58.11 -57.82,-58.11 h -728.7 -703.27 -675.05 c -32,0 -58.1,26.07 -58.1,58.11 v 264.13 H 462.9 v -295.25 c 0,-97.85 80.04,-177.9 177.9,-177.9 z"
   id="path840"
   style="fill:#666666" />
  </g>
  <g
   id="_1742472281296"
   style="fill:#4d4d4d">
   <path
   class="fil1"
   d="m 3860.44,1675.74 h -184.31 v -621.16 h 166.59 c 66.76,0 117.71,18.31 152.85,54.94 35.15,36.62 52.73,85.36 52.73,146.2 v 242.79 c 0,118.15 -62.62,177.23 -187.86,177.23 z m 90.38,-168.36 v -260.52 c 0,-32.48 -8.12,-56.26 -24.36,-71.33 -16.25,-15.06 -41.2,-22.6 -74.88,-22.6 h -77.97 v 433.31 h 72.66 c 14.76,0 27.17,-0.73 37.21,-2.21 10.04,-1.49 20.83,-4.58 32.35,-9.31 11.52,-4.72 20.23,-12.7 26.13,-23.93 5.91,-11.21 8.86,-25.69 8.86,-43.41 z m 288.88,-356.21 c -14.19,0 -26.58,-5.32 -37.22,-15.96 -10.63,-10.63 -15.95,-23.04 -15.95,-37.21 0,-13.59 5.32,-25.55 15.95,-35.89 10.64,-10.33 23.03,-15.51 37.22,-15.51 13.58,0 25.55,5.18 35.88,15.51 10.34,10.34 15.51,22.3 15.51,35.89 0,14.17 -5.17,26.58 -15.51,37.21 -10.33,10.64 -22.3,15.96 -35.88,15.96 z m 46.07,524.57 H 4188.3 V 1231.8 h 97.47 z m 227.73,0 h -97.47 V 1231.8 h 90.39 l 7.08,3.54 c 19.5,-6.49 39.29,-10.04 59.37,-10.63 6.5,0 12.41,0 17.73,0 11.22,0 19.49,0.3 24.8,0.88 8.28,1.18 24.52,4.44 48.74,9.75 l -23.03,94.82 c -16.54,-8.28 -32.5,-12.41 -47.86,-12.41 -12.99,0 -25.69,2.66 -38.1,7.97 -27.77,12.41 -41.65,33.97 -41.65,64.69 z m 492.68,-168.36 -220.65,11.51 v 24.82 c 0,30.13 13.59,47.26 40.76,51.39 4.15,0.6 8.28,0.89 12.41,0.89 26.58,0 63.21,-11.81 109.88,-35.45 l 35.45,84.18 c -43.72,26.58 -92.45,40.47 -146.21,41.65 -2.36,0 -4.73,0 -7.09,0 -42.54,0 -76.8,-10.04 -102.79,-30.13 -27.17,-21.86 -40.76,-54.94 -40.76,-99.24 v -181.66 c 0,-47.84 14.92,-85.06 44.75,-111.65 29.83,-26.58 69.26,-39.87 118.29,-39.87 49.03,0 87.28,13.14 114.76,39.43 27.46,26.3 41.2,62.77 41.2,109.44 z m -98.36,-85.95 v -46.96 c 0,-17.73 -5.61,-31.32 -16.84,-40.77 -11.22,-9.45 -25.1,-14.18 -41.64,-14.18 -22.45,0 -38.7,5.91 -48.74,17.72 -10.05,11.82 -15.07,24.82 -15.07,38.99 v 53.17 z m 423.55,153.29 26.59,95.71 c -37.81,10.04 -72.95,15.05 -105.45,15.05 -28.95,0 -55.82,-3.84 -80.63,-11.52 -34.86,-11.81 -60.11,-29.97 -75.76,-54.49 -15.66,-24.52 -23.49,-58.93 -23.49,-103.23 v -113.42 c 0,-41.94 8.27,-77.1 24.81,-105.45 16.54,-28.35 38.4,-48.14 65.58,-59.37 22.44,-9.45 47.26,-14.18 74.43,-14.18 5.31,0 10.93,0.3 16.83,0.89 33.68,2.37 67.65,11.52 101.91,27.47 l -26.58,84.18 c -30.72,-10.64 -57.01,-15.95 -78.87,-15.95 -15.95,0 -29.24,2.66 -39.88,7.97 -27.17,13 -40.76,36.04 -40.76,69.12 v 128.49 c 0,19.49 6.79,34.41 20.38,44.74 13.59,10.34 29.84,15.81 48.75,16.4 3.53,0 7.37,0 11.51,0 14.77,0 28.65,-0.89 41.64,-2.66 16.54,-2.36 29.55,-5.61 38.99,-9.75 z m 339.38,0 26.59,95.71 c -37.81,10.04 -72.95,15.05 -105.45,15.05 -28.95,0 -55.82,-3.84 -80.63,-11.52 -34.86,-11.81 -60.11,-29.97 -75.76,-54.49 -15.66,-24.52 -23.48,-58.93 -23.48,-103.23 v -113.42 c 0,-41.94 8.26,-77.1 24.8,-105.45 16.54,-28.35 38.4,-48.14 65.58,-59.37 22.44,-9.45 47.26,-14.18 74.43,-14.18 5.32,0 10.93,0.3 16.84,0.89 33.67,2.37 67.64,11.52 101.9,27.47 l -26.58,84.18 c -30.72,-10.64 -57.01,-15.95 -78.87,-15.95 -15.95,0 -29.24,2.66 -39.88,7.97 -27.17,13 -40.76,36.04 -40.76,69.12 v 128.49 c 0,19.49 6.8,34.41 20.38,44.74 13.59,10.34 29.84,15.81 48.75,16.4 3.54,0 7.38,0 11.51,0 14.77,0 28.65,-0.89 41.65,-2.66 16.54,-2.36 29.54,-5.61 38.98,-9.75 z m 171.03,-423.55 c -14.18,0 -26.58,-5.32 -37.21,-15.96 -10.64,-10.63 -15.96,-23.04 -15.96,-37.21 0,-13.59 5.32,-25.55 15.96,-35.89 10.63,-10.33 23.03,-15.51 37.21,-15.51 13.59,0 25.55,5.18 35.88,15.51 10.34,10.34 15.51,22.3 15.51,35.89 0,14.17 -5.17,26.58 -15.51,37.21 -10.33,10.64 -22.29,15.96 -35.88,15.96 z m 46.07,524.57 h -97.47 V 1231.8 h 97.47 z m 475.85,-280.02 v 116.97 c 0,49.63 -13.59,90.68 -40.76,123.17 -27.18,32.49 -68.24,48.74 -123.17,48.74 -54.95,0 -96.44,-16.39 -124.5,-49.18 -28.06,-32.79 -42.09,-73.69 -42.09,-122.73 v -116.97 c 0,-56.11 14.32,-99.09 42.97,-128.92 28.66,-29.84 69.85,-44.74 123.62,-44.74 51.39,0 91.56,15.5 120.51,46.51 28.94,31.02 43.42,73.4 43.42,127.15 z m -96.59,125.83 v -125.83 c 0,-17.12 -2.07,-31.15 -6.2,-42.08 -4.13,-10.93 -10.19,-18.61 -18.16,-23.04 -7.99,-4.43 -15.07,-7.24 -21.27,-8.42 -6.21,-1.18 -13.45,-1.77 -21.71,-1.77 -46.09,0 -69.12,25.11 -69.12,75.31 v 125.83 c 0,44.9 23.03,67.35 69.12,67.35 19.49,0 35.59,-5.61 48.29,-16.84 12.7,-11.22 19.05,-28.06 19.05,-50.51 z m -26.58,-322.54 h -64.69 l 40.76,-95.7 c 5.91,-13.59 15.65,-22.45 29.24,-26.58 6.5,-2.37 12.12,-3.55 16.84,-3.55 5.31,0 9.75,1.18 13.29,3.55 11.82,5.91 18.91,14.77 21.26,26.58 0.6,1.78 0.89,3.55 0.89,5.32 0,10.64 -4.73,22.16 -14.17,34.56 z m 541.4,476.73 h -97.47 v -279.13 c 0,-34.26 -12.7,-57.89 -38.1,-70.89 -10.63,-5.31 -22.15,-7.97 -34.56,-7.97 -18.31,0 -38.4,5.32 -60.25,15.95 v 342.04 h -96.59 V 1231.8 h 85.95 l 11.52,5.31 c 27.18,-8.86 52.87,-13.29 77.09,-13.29 27.18,0 52.88,5.61 77.1,16.84 50.2,23.03 75.31,65.87 75.31,128.48 z m 760.29,0 h -99.25 l -59.36,-172.79 h -129.37 v 172.79 h -97.48 v -620.28 h 210.01 c 57.31,0 100.72,20.23 130.26,60.7 29.53,40.47 44.3,90.54 44.3,150.2 0,28.94 -0.74,51.98 -2.21,69.11 -1.48,17.13 -7.54,39.29 -18.17,66.46 -10.63,27.18 -26.58,49.92 -47.85,68.23 z m -287.98,-265.83 h 89.49 c 18.32,0 33.82,-3.55 46.52,-10.64 12.7,-7.08 22,-14.92 27.92,-23.48 5.91,-8.56 10.63,-20.68 14.17,-36.33 3.55,-15.65 5.46,-27.91 5.77,-36.77 0.29,-8.87 0.44,-20.97 0.44,-36.33 0,-45.49 -9.16,-75.62 -27.48,-90.39 -18.31,-14.76 -46.66,-22.15 -85.06,-22.15 h -71.77 z m 683.19,97.47 -220.65,11.51 v 24.82 c 0,30.13 13.59,47.26 40.76,51.39 4.14,0.6 8.28,0.89 12.41,0.89 26.58,0 63.21,-11.81 109.87,-35.45 l 35.45,84.18 c -43.71,26.58 -92.45,40.47 -146.21,41.65 -2.36,0 -4.73,0 -7.08,0 -42.54,0 -76.8,-10.04 -102.79,-30.13 -27.18,-21.86 -40.76,-54.94 -40.76,-99.24 v -181.66 c 0,-47.84 14.91,-85.06 44.75,-111.65 29.82,-26.58 69.25,-39.87 118.29,-39.87 49.03,0 87.28,13.14 114.75,39.43 27.47,26.3 41.21,62.77 41.21,109.44 z m -98.37,-85.95 v -46.96 c 0,-17.73 -5.6,-31.32 -16.83,-40.77 -11.23,-9.45 -25.11,-14.18 -41.65,-14.18 -22.44,0 -38.69,5.91 -48.73,17.72 -10.05,11.82 -15.07,24.82 -15.07,38.99 v 53.17 z m 341.16,440.39 -23.04,-76.21 c 20.09,0 35.88,-5.75 47.4,-17.27 11.52,-11.52 17.29,-28.8 17.29,-51.84 v -47.85 c -15.96,11.82 -39.89,17.72 -71.78,17.72 -51.99,0 -92.46,-14.18 -121.39,-42.53 -28.95,-28.36 -43.43,-69.71 -43.43,-124.06 v -132.03 c 0,-51.98 15.21,-92.3 45.63,-120.95 30.43,-28.65 71.34,-42.98 122.73,-42.98 16.54,0 31.32,1.93 44.31,5.77 12.99,3.84 21.27,7.82 24.8,11.96 l 18.62,-9.75 h 77.97 v 500.64 c 0,86.25 -46.37,129.38 -139.11,129.38 z m 41.65,-390.77 v -74.44 c 0,-50.8 -23.93,-76.2 -71.78,-76.2 -24.22,0 -41.5,6.94 -51.84,20.82 -10.34,13.88 -15.51,30.87 -15.51,50.96 v 114.31 c 0,57.3 22.45,85.94 67.35,85.94 28.94,0 48.14,-9.45 57.6,-28.35 9.45,-18.91 14.18,-49.91 14.18,-93.04 z m 267.59,-319.88 c -14.18,0 -26.58,-5.32 -37.21,-15.96 -10.63,-10.63 -15.95,-23.04 -15.95,-37.21 0,-13.59 5.32,-25.55 15.95,-35.89 10.63,-10.33 23.03,-15.51 37.21,-15.51 13.59,0 25.55,5.18 35.89,15.51 10.34,10.34 15.51,22.3 15.51,35.89 0,14.17 -5.17,26.58 -15.51,37.21 -10.34,10.64 -22.3,15.96 -35.89,15.96 z m 46.08,524.57 h -97.47 V 1231.8 h 97.47 z m 475.84,-280.02 v 116.97 c 0,49.63 -13.58,90.68 -40.76,123.17 -27.17,32.49 -68.24,48.74 -123.17,48.74 -54.94,0 -96.44,-16.39 -124.5,-49.18 -28.06,-32.79 -42.09,-73.69 -42.09,-122.73 v -116.97 c 0,-56.11 14.32,-99.09 42.98,-128.92 28.65,-29.84 69.85,-44.74 123.61,-44.74 51.4,0 91.56,15.5 120.51,46.51 28.95,31.02 43.42,73.4 43.42,127.15 z m -96.59,125.83 v -125.83 c 0,-17.12 -2.06,-31.15 -6.2,-42.08 -4.13,-10.93 -10.19,-18.61 -18.16,-23.04 -7.98,-4.43 -15.07,-7.24 -21.27,-8.42 -6.21,-1.18 -13.44,-1.77 -21.71,-1.77 -46.08,0 -69.11,25.11 -69.11,75.31 v 125.83 c 0,44.9 23.03,67.35 69.11,67.35 19.5,0 35.59,-5.61 48.29,-16.84 12.7,-11.22 19.05,-28.06 19.05,-50.51 z m 514.83,154.19 h -97.47 v -279.13 c 0,-34.26 -12.7,-57.89 -38.1,-70.89 -10.64,-5.31 -22.16,-7.97 -34.56,-7.97 -18.32,0 -38.41,5.32 -60.26,15.95 v 342.04 h -96.59 V 1231.8 h 85.96 l 11.52,5.31 c 27.17,-8.86 52.87,-13.29 77.09,-13.29 27.17,0 52.87,5.61 77.09,16.84 50.21,23.03 75.32,65.87 75.32,128.48 z m 433.31,-264.06 v 264.06 c -61.44,5.9 -110.47,8.86 -147.09,8.86 -16.54,0 -30.43,-0.59 -41.65,-1.78 -96.88,-10.63 -147.68,-58.77 -152.41,-144.43 0,-4.14 0,-8.27 0,-12.4 v -73.55 c 0,-58.48 20.38,-97.77 61.14,-117.86 17.13,-9.44 36.63,-14.17 58.48,-14.17 3.55,0 6.8,0.29 9.75,0.89 25.99,1.18 48.44,4.28 67.34,9.3 18.91,5.02 34.56,11.08 46.97,18.16 0,-37.8 -31.61,-56.7 -94.82,-56.7 l 7.98,-67.35 c 22.45,0 42.68,1.33 60.69,3.99 18.03,2.66 33.24,7.08 45.64,13.29 12.41,6.2 23.34,12.55 32.79,19.05 9.45,6.49 16.83,15.06 22.16,25.7 5.31,10.63 9.74,19.93 13.28,27.91 3.55,7.98 5.91,18.75 7.1,32.34 1.18,13.59 1.91,24.22 2.2,31.9 0.31,7.68 0.45,18.61 0.45,32.79 z m -97.47,178.1 v -137.34 c -9.45,-6.5 -21.71,-12.56 -36.78,-18.16 -15.06,-5.62 -31.16,-9.9 -48.29,-12.85 -4.73,-0.6 -9.45,-0.89 -14.17,-0.89 -10.64,0 -20.09,2.36 -28.36,7.08 -11.82,7.1 -17.72,19.5 -17.72,37.23 v 48.73 c 0,54.35 31.3,81.52 93.92,81.52 15.37,0 32.49,-1.77 51.4,-5.32 z m 295.96,85.96 h -97.48 v -620.28 h 97.48 z m 386.34,-139.12 v -167.48 c 0,-62.02 25.11,-104.56 75.32,-127.59 17.72,-8.28 37.51,-13.59 59.37,-15.96 11.81,-1.18 22.74,-1.77 32.79,-1.77 8.86,0 16.83,0.59 23.92,1.77 15.36,1.78 28.36,4.73 38.99,8.86 v -178.99 h 96.59 v 620.28 c -50.8,7.08 -97.77,10.63 -140.89,10.63 -43.12,0 -82.12,-8.86 -116.97,-26.58 -46.08,-23.63 -69.12,-64.69 -69.12,-123.17 z m 230.39,53.16 v -252.54 c -14.18,-7.08 -28.94,-11.52 -44.3,-13.28 -4.73,-0.6 -9.46,-0.89 -14.19,-0.89 -10.03,0 -19.78,1.18 -29.24,3.54 -13.58,4.14 -24.66,12.85 -33.23,26.14 -8.56,13.29 -12.84,30.58 -12.84,51.84 v 138.23 c 0,20.09 13.59,35.15 40.76,45.2 14.17,5.31 29.83,7.97 46.96,7.97 14.18,0 29.54,-2.07 46.08,-6.21 z m 498.88,-82.4 -220.64,11.51 v 24.82 c 0,30.13 13.58,47.26 40.76,51.39 4.14,0.6 8.27,0.89 12.4,0.89 26.58,0 63.21,-11.81 109.88,-35.45 l 35.45,84.18 c -43.72,26.58 -92.45,40.47 -146.21,41.65 -2.36,0 -4.73,0 -7.09,0 -42.53,0 -76.79,-10.04 -102.79,-30.13 -27.17,-21.86 -40.76,-54.94 -40.76,-99.24 v -181.66 c 0,-47.84 14.92,-85.06 44.75,-111.65 29.83,-26.58 69.26,-39.87 118.29,-39.87 49.03,0 87.28,13.14 114.76,39.43 27.46,26.3 41.2,62.77 41.2,109.44 z m -98.36,-85.95 v -46.96 c 0,-17.73 -5.61,-31.32 -16.83,-40.77 -11.23,-9.45 -25.11,-14.18 -41.65,-14.18 -22.45,0 -38.7,5.91 -48.74,17.72 -10.04,11.82 -15.06,24.82 -15.06,38.99 v 53.17 z M 3832.09,2612.2 h -97.48 v -521.92 h -127.59 v -98.35 h 356.21 v 98.35 h -131.14 z m 211.77,0 h -97.46 v -443.93 h 90.38 l 7.08,3.53 c 19.5,-6.49 39.29,-10.04 59.37,-10.63 6.5,0 12.41,0 17.73,0 11.22,0 19.49,0.3 24.81,0.89 8.27,1.18 24.51,4.43 48.73,9.74 l -23.03,94.82 c -16.54,-8.27 -32.5,-12.41 -47.86,-12.41 -12.99,0 -25.69,2.66 -38.1,7.98 -27.77,12.4 -41.65,33.96 -41.65,64.68 z m 470.53,-264.06 v 264.06 c -61.44,5.91 -110.47,8.86 -147.09,8.86 -16.54,0 -30.43,-0.58 -41.65,-1.77 -96.88,-10.64 -147.68,-58.78 -152.41,-144.44 0,-4.13 0,-8.27 0,-12.4 v -73.55 c 0,-58.48 20.38,-97.77 61.14,-117.85 17.13,-9.45 36.63,-14.18 58.48,-14.18 3.55,0 6.8,0.3 9.75,0.89 26,1.18 48.44,4.28 67.34,9.3 18.91,5.02 34.56,11.08 46.97,18.17 0,-37.81 -31.61,-56.71 -94.82,-56.71 l 7.98,-67.35 c 22.45,0 42.68,1.33 60.7,3.99 18.02,2.66 33.23,7.09 45.63,13.3 12.41,6.19 23.34,12.54 32.79,19.05 9.45,6.49 16.84,15.05 22.16,25.69 5.31,10.63 9.74,19.94 13.28,27.91 3.55,7.98 5.91,18.76 7.1,32.34 1.18,13.59 1.91,24.22 2.21,31.9 0.3,7.68 0.44,18.61 0.44,32.79 z m -97.47,178.1 V 2388.9 c -9.45,-6.5 -21.71,-12.56 -36.78,-18.16 -15.06,-5.61 -31.15,-9.9 -48.29,-12.85 -4.73,-0.6 -9.45,-0.89 -14.17,-0.89 -10.63,0 -20.09,2.36 -28.36,7.09 -11.82,7.09 -17.72,19.49 -17.72,37.22 v 48.73 c 0,54.35 31.3,81.53 93.93,81.53 15.36,0 32.48,-1.78 51.39,-5.33 z m 513.05,85.96 h -97.47 v -279.13 c 0,-34.26 -12.7,-57.88 -38.1,-70.88 -10.63,-5.32 -22.15,-7.98 -34.56,-7.98 -18.31,0 -38.4,5.32 -60.25,15.96 V 2612.2 H 4603 v -443.93 h 85.95 l 11.52,5.31 c 27.18,-8.86 52.87,-13.3 77.09,-13.3 27.17,0 52.88,5.62 77.1,16.85 50.2,23.03 75.31,65.86 75.31,128.48 z m 73.55,-112.54 97.47,-9.74 c 0,10.63 5.46,20.67 16.4,30.13 10.92,9.45 27.61,14.18 50.06,14.18 19.49,0 34.55,-4.88 45.19,-14.63 10.63,-9.74 15.95,-21.11 15.95,-34.12 0,-17.12 -6.94,-30.86 -20.82,-41.2 -13.88,-10.33 -30.87,-18.61 -50.95,-24.81 -20.09,-6.2 -40.32,-13.29 -60.7,-21.26 -20.38,-7.98 -38.4,-21.12 -54.06,-39.43 -15.65,-18.32 -24.95,-41.65 -27.91,-70.01 -0.59,-3.54 -0.88,-7.09 -0.88,-10.63 0,-28.95 11.52,-55.53 34.56,-79.75 24.8,-27.17 64.09,-40.76 117.85,-40.76 18.9,0 36.62,2.21 53.16,6.64 16.54,4.44 28.36,8.71 35.44,12.86 l 10.64,6.19 -28.36,90.39 c -13.58,-13.59 -37.21,-20.38 -70.88,-20.38 -16.54,0 -28.8,2.36 -36.77,7.09 -7.99,4.72 -11.52,9.89 -10.64,15.5 0.89,5.62 1.32,10.49 1.32,14.63 1.78,8.86 10.5,16.98 26.15,24.36 15.65,7.39 33.52,14.63 53.61,21.71 20.08,7.09 40.17,15.95 60.26,26.58 20.07,10.63 37.06,26.59 50.95,47.86 13.88,21.26 20.82,46.66 20.82,76.2 0,38.4 -13.89,71.04 -41.65,97.92 -27.77,26.87 -68.53,40.32 -122.28,40.32 -50.22,0 -89.8,-12.12 -118.74,-36.34 -28.94,-24.22 -44.01,-54.05 -45.19,-89.5 z m 518.37,112.54 h -99.24 v -486.47 c 0,-26.59 3.99,-49.77 11.96,-69.56 7.98,-19.79 18.47,-34.56 31.46,-44.31 12.99,-9.74 27.77,-17.57 44.31,-23.48 14.17,-4.73 28.35,-7.09 42.52,-7.09 2.37,0 4.44,0 6.21,0 16.54,1.18 32.49,2.66 47.85,4.44 l -15.95,88.61 c -5.9,-1.18 -14.18,-2.66 -24.81,-4.44 -1.18,0 -2.66,0 -4.43,0 -8.87,0 -17.42,3.84 -25.7,11.52 -9.45,9.46 -14.18,24.22 -14.18,44.31 v 42.54 h 77.1 l -21.27,91.26 h -55.83 z m 444.83,-280.01 v 116.97 c 0,49.62 -13.58,90.67 -40.76,123.17 -27.17,32.48 -68.24,48.73 -123.17,48.73 -54.94,0 -96.44,-16.39 -124.5,-49.18 -28.06,-32.78 -42.09,-73.69 -42.09,-122.72 v -116.97 c 0,-56.12 14.32,-99.09 42.98,-128.93 28.65,-29.83 69.85,-44.74 123.61,-44.74 51.4,0 91.56,15.5 120.51,46.52 28.95,31.01 43.42,73.39 43.42,127.15 z m -96.59,125.83 v -125.83 c 0,-17.13 -2.06,-31.16 -6.2,-42.09 -4.13,-10.93 -10.19,-18.61 -18.16,-23.04 -7.98,-4.43 -15.07,-7.23 -21.27,-8.41 -6.21,-1.19 -13.44,-1.78 -21.71,-1.78 -46.08,0 -69.11,25.11 -69.11,75.32 v 125.83 c 0,44.89 23.03,67.35 69.11,67.35 19.5,0 35.59,-5.62 48.29,-16.85 12.7,-11.21 19.05,-28.06 19.05,-50.5 z m 282.67,154.18 h -97.47 v -443.93 h 90.38 l 7.09,3.53 c 19.49,-6.49 39.29,-10.04 59.37,-10.63 6.5,0 12.4,0 17.72,0 11.22,0 19.5,0.3 24.81,0.89 8.27,1.18 24.51,4.43 48.73,9.74 l -23.03,94.82 c -16.54,-8.27 -32.49,-12.41 -47.85,-12.41 -13,0 -25.7,2.66 -38.1,7.98 -27.77,12.4 -41.65,33.96 -41.65,64.68 z m 762.93,0 h -97.47 v -269.38 c 0,-43.71 -8.56,-71.47 -25.7,-83.29 -7.68,-4.72 -17.13,-7.09 -28.35,-7.09 -14.77,0 -33.08,4.14 -54.94,12.41 l -15.06,6.2 c 2.36,5.91 3.54,14.47 3.54,25.7 v 315.45 h -97.47 v -266.72 c 0,-42.53 -13.88,-70.59 -41.65,-84.18 -10.63,-5.91 -22.15,-8.86 -34.56,-8.86 -19.49,0 -40.76,6.79 -63.79,20.38 v 339.38 h -97.48 v -443.93 h 85.96 l 11.52,6.19 c 15.94,-7.08 33.97,-11.52 54.04,-13.29 4.15,-0.58 8.28,-0.89 12.41,-0.89 16.54,0 33.68,2.96 51.4,8.86 22.44,7.1 41.35,18.62 56.71,34.56 8.27,-4.72 20.68,-11.21 37.22,-19.49 37.8,-15.36 72.95,-23.04 105.45,-23.04 4.13,0 8.26,0 12.39,0 36.63,2.37 66.76,16.54 90.39,42.53 23.63,26 35.44,59.97 35.44,101.91 z m 408.5,-264.06 v 264.06 c -61.43,5.91 -110.47,8.86 -147.09,8.86 -16.54,0 -30.43,-0.58 -41.65,-1.77 -96.88,-10.64 -147.68,-58.78 -152.41,-144.44 0,-4.13 0,-8.27 0,-12.4 v -73.55 c 0,-58.48 20.38,-97.77 61.15,-117.85 17.12,-9.45 36.62,-14.18 58.48,-14.18 3.54,0 6.79,0.3 9.74,0.89 26,1.18 48.44,4.28 67.34,9.3 18.91,5.02 34.57,11.08 46.97,18.17 0,-37.81 -31.61,-56.71 -94.81,-56.71 l 7.97,-67.35 c 22.46,0 42.69,1.33 60.7,3.99 18.02,2.66 33.23,7.09 45.64,13.3 12.4,6.19 23.33,12.54 32.78,19.05 9.45,6.49 16.84,15.05 22.16,25.69 5.31,10.63 9.75,19.94 13.28,27.91 3.55,7.98 5.91,18.76 7.1,32.34 1.18,13.59 1.91,24.22 2.21,31.9 0.3,7.68 0.44,18.61 0.44,32.79 z m -97.47,178.1 V 2388.9 c -9.45,-6.5 -21.71,-12.56 -36.78,-18.16 -15.06,-5.61 -31.15,-9.9 -48.29,-12.85 -4.72,-0.6 -9.45,-0.89 -14.17,-0.89 -10.63,0 -20.09,2.36 -28.36,7.09 -11.81,7.09 -17.72,19.49 -17.72,37.22 v 48.73 c 0,54.35 31.31,81.53 93.93,81.53 15.36,0 32.48,-1.78 51.39,-5.33 z m 420.01,-15.05 26.59,95.7 c -37.81,10.04 -72.96,15.06 -105.45,15.06 -28.95,0 -55.82,-3.84 -80.64,-11.52 -34.85,-11.82 -60.1,-29.98 -75.75,-54.49 -15.67,-24.52 -23.49,-58.94 -23.49,-103.24 v -113.42 c 0,-41.94 8.27,-77.09 24.81,-105.45 16.54,-28.35 38.4,-48.14 65.57,-59.37 22.45,-9.45 47.27,-14.18 74.44,-14.18 5.31,0 10.93,0.31 16.83,0.89 33.68,2.37 67.65,11.52 101.9,27.48 l -26.57,84.17 c -30.73,-10.63 -57.01,-15.95 -78.88,-15.95 -15.94,0 -29.24,2.66 -39.87,7.98 -27.17,12.99 -40.76,36.03 -40.76,69.11 v 128.49 c 0,19.5 6.79,34.41 20.38,44.74 13.59,10.35 29.84,15.81 48.74,16.4 3.54,0 7.38,0 11.51,0 14.78,0 28.66,-0.88 41.65,-2.66 16.54,-2.36 29.55,-5.61 38.99,-9.74 z m 171.03,-423.56 c -14.19,0 -26.58,-5.32 -37.22,-15.95 -10.63,-10.64 -15.95,-23.05 -15.95,-37.22 0,-13.58 5.32,-25.55 15.95,-35.89 10.64,-10.33 23.03,-15.5 37.22,-15.5 13.58,0 25.55,5.17 35.88,15.5 10.34,10.34 15.51,22.31 15.51,35.89 0,14.17 -5.17,26.58 -15.51,37.22 -10.33,10.63 -22.3,15.95 -35.88,15.95 z m 46.07,524.57 h -97.47 v -443.93 h 97.47 z m 475.84,-280.01 v 116.97 c 0,49.62 -13.58,90.67 -40.76,123.17 -27.17,32.48 -68.23,48.73 -123.17,48.73 -54.94,0 -96.44,-16.39 -124.5,-49.18 -28.06,-32.78 -42.09,-73.69 -42.09,-122.72 v -116.97 c 0,-56.12 14.33,-99.09 42.98,-128.93 28.66,-29.83 69.85,-44.74 123.61,-44.74 51.4,0 91.57,15.5 120.51,46.52 28.95,31.01 43.42,73.39 43.42,127.15 z m -96.59,125.83 v -125.83 c 0,-17.13 -2.06,-31.16 -6.19,-42.09 -4.14,-10.93 -10.19,-18.61 -18.17,-23.04 -7.98,-4.43 -15.07,-7.23 -21.27,-8.41 -6.2,-1.19 -13.44,-1.78 -21.71,-1.78 -46.08,0 -69.11,25.11 -69.11,75.32 v 125.83 c 0,44.89 23.03,67.35 69.11,67.35 19.5,0 35.59,-5.62 48.29,-16.85 12.7,-11.21 19.05,-28.06 19.05,-50.5 z m -26.57,-322.54 h -64.69 l 40.76,-95.71 c 5.9,-13.58 15.65,-22.44 29.24,-26.58 6.5,-2.36 12.11,-3.54 16.84,-3.54 5.31,0 9.75,1.18 13.28,3.54 11.83,5.91 18.91,14.77 21.27,26.58 0.6,1.78 0.89,3.55 0.89,5.33 0,10.63 -4.73,22.15 -14.17,34.55 z m 541.4,476.72 h -97.47 v -279.13 c 0,-34.26 -12.7,-57.88 -38.1,-70.88 -10.63,-5.32 -22.15,-7.98 -34.56,-7.98 -18.32,0 -38.4,5.32 -60.26,15.96 v 342.03 h -96.59 v -443.93 h 85.96 l 11.52,5.31 c 27.17,-8.86 52.87,-13.3 77.09,-13.3 27.17,0 52.87,5.62 77.09,16.85 50.21,23.03 75.32,65.86 75.32,128.48 z m 559.14,0 h -184.31 v -621.16 h 166.59 c 66.76,0 117.71,18.31 152.85,54.94 35.15,36.62 52.73,85.36 52.73,146.2 v 242.8 c 0,118.15 -62.62,177.22 -187.86,177.22 z m 90.38,-168.35 v -260.53 c 0,-32.48 -8.12,-56.26 -24.36,-71.33 -16.25,-15.06 -41.21,-22.59 -74.88,-22.59 h -77.97 v 433.31 h 72.66 c 14.76,0 27.17,-0.74 37.21,-2.22 10.04,-1.48 20.82,-4.58 32.35,-9.3 11.52,-4.73 20.22,-12.7 26.13,-23.93 5.91,-11.22 8.86,-25.7 8.86,-43.41 z m 288.88,-356.22 c -14.19,0 -26.58,-5.32 -37.22,-15.95 -10.63,-10.64 -15.95,-23.05 -15.95,-37.22 0,-13.58 5.32,-25.55 15.95,-35.89 10.64,-10.33 23.03,-15.5 37.22,-15.5 13.58,0 25.55,5.17 35.88,15.5 10.34,10.34 15.51,22.31 15.51,35.89 0,14.17 -5.17,26.58 -15.51,37.22 -10.33,10.63 -22.3,15.95 -35.88,15.95 z m 46.07,524.57 h -97.47 v -443.93 h 97.47 z m 303.94,186.09 -23.04,-76.21 c 20.09,0 35.88,-5.76 47.4,-17.28 11.52,-11.52 17.29,-28.8 17.29,-51.84 v -47.85 c -15.96,11.82 -39.89,17.72 -71.78,17.72 -51.99,0 -92.45,-14.18 -121.39,-42.53 -28.95,-28.35 -43.42,-69.71 -43.42,-124.06 v -132.03 c 0,-51.98 15.21,-92.29 45.63,-120.95 30.42,-28.64 71.33,-42.98 122.72,-42.98 16.54,0 31.32,1.93 44.31,5.77 12.99,3.84 21.27,7.82 24.81,11.96 l 18.61,-9.74 h 77.98 v 500.64 c 0,86.25 -46.38,129.38 -139.12,129.38 z m 41.65,-390.78 v -74.44 c 0,-50.8 -23.93,-76.2 -71.78,-76.2 -24.22,0 -41.5,6.95 -51.83,20.83 -10.35,13.88 -15.52,30.86 -15.52,50.95 v 114.31 c 0,57.3 22.45,85.95 67.35,85.95 28.94,0 48.14,-9.46 57.6,-28.36 9.45,-18.91 14.18,-49.91 14.18,-93.04 z m 267.6,-319.88 c -14.19,0 -26.58,-5.32 -37.22,-15.95 -10.63,-10.64 -15.95,-23.05 -15.95,-37.22 0,-13.58 5.32,-25.55 15.95,-35.89 10.64,-10.33 23.03,-15.5 37.22,-15.5 13.58,0 25.55,5.17 35.88,15.5 10.34,10.34 15.51,22.31 15.51,35.89 0,14.17 -5.17,26.58 -15.51,37.22 -10.33,10.63 -22.3,15.95 -35.88,15.95 z m 46.07,524.57 h -97.47 v -443.93 h 97.47 z m 279.13,-66.45 -29.24,77.97 c -89.8,-1.77 -134.69,-44.6 -134.69,-128.49 v -503.3 h 99.24 v 176.34 h 84.18 l -21.27,91.26 h -62.91 v 235.7 c 0,20.09 5.61,33.53 16.84,40.33 11.22,6.79 27.17,10.19 47.85,10.19 z"
   id="path843"
   style="fill:#666666" />
   <path
   class="fil1"
   d="m 11094.61,2348.14 v 264.06 c -61.43,5.91 -110.47,8.86 -147.08,8.86 -16.54,0 -30.43,-0.58 -41.65,-1.77 -96.88,-10.64 -147.69,-58.78 -152.41,-144.44 0,-4.13 0,-8.27 0,-12.4 v -73.55 c 0,-58.48 20.38,-97.77 61.14,-117.85 17.12,-9.45 36.63,-14.18 58.48,-14.18 3.55,0 6.79,0.3 9.75,0.89 25.99,1.18 48.44,4.28 67.34,9.3 18.91,5.02 34.56,11.08 46.97,18.17 0,-37.81 -31.61,-56.71 -94.82,-56.71 l 7.97,-67.35 c 22.46,0 42.69,1.33 60.7,3.99 18.02,2.66 33.23,7.09 45.64,13.3 12.41,6.19 23.33,12.54 32.79,19.05 9.44,6.49 16.83,15.05 22.15,25.69 5.31,10.63 9.75,19.94 13.29,27.91 3.54,7.98 5.9,18.76 7.09,32.34 1.18,13.59 1.92,24.22 2.21,31.9 0.3,7.68 0.44,18.61 0.44,32.79 z m -97.46,178.1 V 2388.9 c -9.46,-6.5 -21.71,-12.56 -36.78,-18.16 -15.06,-5.61 -31.16,-9.9 -48.29,-12.85 -4.73,-0.6 -9.46,-0.89 -14.18,-0.89 -10.63,0 -20.08,2.36 -28.36,7.09 -11.81,7.09 -17.72,19.49 -17.72,37.22 v 48.73 c 0,54.35 31.31,81.53 93.93,81.53 15.36,0 32.49,-1.78 51.4,-5.33 z m 295.96,85.96 h -97.48 v -620.27 h 97.48 z"
   id="path845"
   style="fill:#4d4d4d" />
  </g>
 </g>
</svg>
