<?xml version="1.0" encoding="UTF-8" standalone="no"?>
<svg
   xmlns:dc="http://purl.org/dc/elements/1.1/"
   xmlns:cc="http://creativecommons.org/ns#"
   xmlns:rdf="http://www.w3.org/1999/02/22-rdf-syntax-ns#"
   xmlns:svg="http://www.w3.org/2000/svg"
   xmlns="http://www.w3.org/2000/svg"
   xmlns:sodipodi="http://sodipodi.sourceforge.net/DTD/sodipodi-0.dtd"
   xmlns:inkscape="http://www.inkscape.org/namespaces/inkscape"
   xml:space="preserve"
   width="453.26663"
   height="69.823898"
   version="1.1"
   style="clip-rule:evenodd;fill-rule:evenodd;image-rendering:optimizeQuality;shape-rendering:geometricPrecision;text-rendering:geometricPrecision"
   viewBox="0 0 11992.679 1847.424"
   id="svg1692"
   sodipodi:docname="grc_mini_dark.svg"
   inkscape:version="1.0.2 (e86c870879, 2021-01-15, custom)"><metadata
   id="metadata1696"><rdf:RDF><cc:Work
       rdf:about=""><dc:format>image/svg+xml</dc:format><dc:type
         rdf:resource="http://purl.org/dc/dcmitype/StillImage" /><dc:title></dc:title></cc:Work></rdf:RDF></metadata><sodipodi:namedview
   pagecolor="#ffffff"
   bordercolor="#666666"
   borderopacity="1"
   objecttolerance="10"
   gridtolerance="10"
   guidetolerance="10"
   inkscape:pageopacity="0"
   inkscape:pageshadow="2"
   inkscape:window-width="1920"
   inkscape:window-height="1001"
   id="namedview1694"
   showgrid="false"
   units="px"
   fit-margin-top="0"
   fit-margin-left="0"
   fit-margin-right="0"
   fit-margin-bottom="0"
   inkscape:zoom="0.73940797"
   inkscape:cx="337.38784"
   inkscape:cy="170.34016"
   inkscape:window-x="-9"
   inkscape:window-y="-9"
   inkscape:window-maximized="1"
   inkscape:current-layer="svg1692" />
 <defs
   id="defs1644">
  <style
   type="text/css"
   id="style1627">
   <![CDATA[
    .str2 {stroke:#666666;stroke-width:26.46;stroke-miterlimit:22.9256}
    .str3 {stroke:#666666;stroke-width:26.46;stroke-miterlimit:22.9256}
    .str0 {stroke:#666666;stroke-width:20;stroke-miterlimit:22.9256}
    .str1 {stroke:#666666;stroke-width:7.62;stroke-miterlimit:22.9256}
    .fil2 {fill:none}
    .fil1 {fill:none;fill-rule:nonzero}
    .fil4 {fill:#666666}
    .fil0 {fill:#666666;fill-rule:nonzero}
    .fil3 {fill:#666666;fill-rule:nonzero}
   ]]>
  </style>
   <clipPath
   id="id0"
   style="clip-rule:nonzero">
    <path
   d="m 1583.28,11319.98 v -221.86 l 3.04,-85.09 9.12,-80.54 13.67,-75.99 19.76,-69.9 25.83,-66.86 31.91,-60.78 37.99,-56.23 42.55,-51.67 24.32,-24.31 24.31,-21.27 25.83,-21.28 25.84,-19.75 28.87,-16.72 28.87,-16.71 30.39,-15.2 30.4,-12.16 33.43,-12.15 33.43,-9.12 34.95,-9.12 34.95,-6.08 36.47,-6.08 37.99,-4.55 39.51,-1.53 39.51,-1.51 41.03,1.51 37.99,1.53 37.99,4.55 37.99,6.08 36.47,6.08 34.95,9.12 33.43,9.12 33.43,12.15 31.92,12.16 31.91,15.2 28.87,16.71 30.39,16.72 27.35,19.75 27.36,21.28 25.83,21.27 25.84,24.31 31.91,36.47 28.87,41.03 22.79,45.59 19.76,50.15 15.19,54.7 10.64,57.75 6.08,62.3 3.04,68.38 h -328.24 l -1.52,-36.47 -3.03,-34.95 -6.08,-30.39 -9.12,-30.39 -10.64,-25.83 -13.67,-25.84 -16.72,-21.27 -18.24,-19.76 -21.27,-18.23 -24.31,-15.2 -25.84,-12.16 -28.87,-10.63 -31.91,-9.12 -33.43,-6.08 -36.47,-3.04 -39.51,-1.51 -45.59,3.03 -42.55,6.08 -37.99,12.16 -36.47,15.19 -30.39,19.76 -27.36,19.75 -22.79,22.8 -18.24,22.79 -15.19,25.83 -13.68,33.44 -12.15,37.99 -0.98,4.73 c -1.79,-3.56 -3.59,-3.93 -5.73,2.1 -2.86,8.04 -10.99,35.39 -14.19,41.23 -3.48,6.34 -9.38,6.95 -5.14,18.93 5.21,14.71 1.43,8.88 -2.08,20.7 -3.12,10.48 2.48,12.61 5.49,19.28 -10.57,18.32 -5.18,21.57 -1.16,30.49 l -3.57,29.69 -1,11.04 c -0.47,0.98 -1.29,2.31 -2.67,4.28 -4.77,6.77 -4.46,6.12 -2.08,16.01 3.7,15.42 -1.99,16.24 2.71,23.96 v 11.57 l -0.39,10.29 -0.06,0.11 c -6.41,-1.2 -28.08,-15.86 -37.02,-19.49 -28.4,-11.52 -51.11,-23.28 -81.85,-34.21 -15.22,-5.42 -29.84,-9 -43.25,-15.8 -7.4,-3.75 -13.27,-5.42 -20.37,-8.4 -8.75,-3.69 -98.72,-53.75 -101.92,-25.77 -1.91,16.65 21.41,19.41 27.6,22.9 4.45,2.5 -1.67,-1.5 2.17,1.38 2.87,2.17 0.85,-0.07 2.92,2.86 -8.75,0.23 -53.63,-5.91 -39.57,16.72 5.22,8.41 32.95,8.8 40.63,11.68 l 2.49,1.14 c 3.33,1.88 0.97,0.14 3.45,2.68 -9.33,-0.05 -18.01,-1.15 -21.27,5.7 -10.22,21.49 36.67,16.96 51.9,25.11 -11.33,6.14 -34.78,11.71 -19.17,32.1 11.92,15.58 27.24,8.78 41.62,17.13 l -4.62,3.6 c -4.27,2.02 -13.32,2.46 -15.36,10.32 -6.51,25 49.25,23.63 74.9,29.24 -11.28,0.27 -24.99,-2.26 -35.52,1.45 -8.81,3.11 -14.44,13.01 -8.55,23.69 12.05,21.93 28.88,13.08 53.39,20.43 -5.16,4.88 -18.04,6.26 -21.54,16.22 -4.65,13.2 5.25,20.37 12.77,24.64 16.62,9.44 53.45,-0.31 65.19,9.95 l -7.89,2.15 c -15.33,0.75 -41.19,-5.91 -46.2,8.83 -2.85,8.39 2.81,11.32 4.48,15.29 14.43,4.28 17.26,6.72 34.85,6.21 l 27,-2.24 c 7.98,0.18 4.8,-0.18 7.37,3.39 -1.75,2.53 3.41,3.87 -10.77,3.61 -22.56,-0.41 -20.76,-1.05 -36.25,7.42 -1.24,23.47 16.84,27.28 36.14,25.51 9.62,-0.88 10.1,-4.54 17.82,1.11 0.01,7.49 -3.27,4.36 -14.86,15.69 -5.83,5.68 -8.05,15.95 -0.32,23.2 10.34,9.69 34.13,-2.73 52.51,-2.19 -1.22,8.72 -11.78,8.5 -16.37,18.14 -4.81,10.1 1.81,20.35 10.86,22.46 4.79,1.12 10,0.34 15.31,-1.39 l 2.31,24.25 3.04,37.99 3.04,39.51 4.56,31.91 6.08,25.84 6.08,21.27 7.6,18.24 9.11,21.27 10.64,24.32 12.16,25.83 15.19,25.83 15.2,21.28 18.23,18.23 6.63,4.97 c -42.58,31.78 -101.89,55.94 -176.79,52.74 -35.84,7.92 -26.66,21.67 -15.9,23.27 4.6,-0.09 8,0.16 12.61,0.57 25.32,2.22 1.58,4.92 -8.51,5.24 -4.82,5.03 -6.52,6.04 -5.58,16.76 0.98,11.4 -21.54,10.81 -20.25,18.78 2.6,16.07 -12.39,17.81 9.48,35.18 -2.06,9.4 -15.03,17.03 -4.65,30.03 10.79,13.5 20.1,4.78 32.6,4.3 -4.87,11.62 -21.36,21.22 -22.12,22.83 -2.17,18.79 48.39,15.06 65.12,14.34 -0.69,15.04 -1.98,7.06 -6.45,15.36 -4.03,7.46 -0.82,11.53 3.67,14.35 14.53,7.27 109.59,-29.87 120.93,-33.63 3.29,4.23 4.79,10.4 13.07,9.14 7.75,-1.17 0.76,-1.88 7.5,-2.68 6.64,-0.79 2.17,0.9 8.54,2.54 14.3,3.66 17.87,-12.42 26.37,-16.11 3.55,3.9 4.25,7.71 10.24,8.32 11.41,1.17 21.63,-16.51 31.19,-26.41 1.92,-4.39 14.54,-24.24 19.1,-27.62 8.86,2.82 6.29,6.56 9.13,17.24 6.68,8.61 19.61,9.41 25.69,-0.72 4.61,-7.68 3.44,-26.63 3.93,-36.51 8.53,1.48 8.81,10.12 14.74,16.68 12.61,0.83 18.07,-5.96 20.6,-15.19 0.77,-10.04 0.56,-26.15 4.92,-33.71 4.18,3.52 4.04,2.9 2.99,15.22 -1.36,15.9 -1.7,20.77 11.81,20.6 13.47,-6.98 6.9,-51.77 6.82,-69.47 0.3,0.29 0.74,0.35 0.85,0.92 l 2.72,4.11 c 6.23,14.23 1.25,45.49 18.11,42.05 10.02,-2.04 8.41,-14.92 9.86,-25.64 1.57,-11.6 2.03,-18.39 2.46,-29.39 l 10.03,0.45 c -0.09,2.3 -0.68,5.5 -1.2,9.71 -1.66,13.2 -2.31,15.43 3.77,23.73 23.27,4.66 11.26,-19.64 19.21,-26.84 2.05,5.26 0.69,5.43 4.2,11.9 15.39,4.05 17.54,-7.93 17.04,-20.78 l 10.96,-0.65 50.15,-9.12 44.07,-13.68 41.03,-21.27 36.47,-25.83 33.43,-31.91 27.35,-37.99 25.84,-44.07 v -121.57 h -193.2 c 1.28,-4.82 2.21,-10.79 5.91,-21.36 3.76,-10.76 7.17,-12.64 13.51,-20.39 27.07,-33.05 37.84,-70.06 37.64,-112.56 -0.14,-28.86 -0.92,-52.09 -3.75,-78.99 -2.33,-22.13 -10.04,-36.2 -8.98,-58.46 h 448.23 v 542.5 l -21.27,44.06 -22.8,42.55 -27.35,37.99 -28.87,36.47 -31.92,33.44 -36.46,30.39 -38,27.35 -39.51,24.31 -44.06,22.8 -44.07,18.23 -45.59,16.72 -47.11,12.16 -48.63,10.63 -50.14,7.6 -51.67,4.56 -53.18,1.52 -45.59,-1.52 -45.59,-3.04 -44.07,-3.04 -41.03,-6.08 -41.03,-7.6 -37.99,-9.11 -36.47,-10.64 -34.95,-12.16 -34.95,-15.19 -31.91,-15.2 -30.4,-18.23 -27.35,-18.24 -27.35,-21.28 -25.83,-22.79 -22.8,-24.31 -22.79,-25.84 -21.28,-27.35 -18.23,-28.87 -18.24,-30.39 -16.71,-33.43 -15.2,-33.44 -13.67,-36.47 -13.68,-37.98 -10.64,-39.52 -10.64,-41.02 -7.59,-44.07 -7.6,-44.07 -6.08,-45.59 -4.56,-48.63 -3.04,-50.14 -3.04,-51.67 z"
   id="path1629" />
   </clipPath>
   <clipPath
   id="id1">
    <path
   d="m 1583.28,11319.98 v -221.86 l 3.04,-85.09 9.12,-80.54 13.67,-75.99 19.76,-69.9 25.83,-66.86 31.91,-60.78 37.99,-56.23 42.55,-51.67 24.32,-24.31 24.31,-21.27 25.83,-21.28 25.84,-19.75 28.87,-16.72 28.87,-16.71 30.39,-15.2 30.4,-12.16 33.43,-12.15 33.43,-9.12 34.95,-9.12 34.95,-6.08 36.47,-6.08 37.99,-4.55 39.51,-1.53 39.51,-1.51 41.03,1.51 37.99,1.53 37.99,4.55 37.99,6.08 36.47,6.08 34.95,9.12 33.43,9.12 33.43,12.15 31.92,12.16 31.91,15.2 28.87,16.71 30.39,16.72 27.35,19.75 27.36,21.28 25.83,21.27 25.84,24.31 31.91,36.47 28.87,41.03 22.79,45.59 19.76,50.15 15.19,54.7 10.64,57.75 6.08,62.3 3.04,68.38 h -328.24 l -1.52,-36.47 -3.03,-34.95 -6.08,-30.39 -9.12,-30.39 -10.64,-25.83 -13.67,-25.84 -16.72,-21.27 -18.24,-19.76 -21.27,-18.23 -24.31,-15.2 -25.84,-12.16 -28.87,-10.63 -31.91,-9.12 -33.43,-6.08 -36.47,-3.04 -39.51,-1.51 -45.59,3.03 -42.55,6.08 -37.99,12.16 -36.47,15.19 -30.39,19.76 -27.36,19.75 -22.79,22.8 -18.24,22.79 -15.19,25.83 -13.68,33.44 -12.15,37.99 -0.98,4.73 c -1.79,-3.56 -3.59,-3.93 -5.73,2.1 -2.86,8.04 -10.99,35.39 -14.19,41.23 -3.48,6.34 -9.38,6.95 -5.14,18.93 5.21,14.71 1.43,8.88 -2.08,20.7 -3.12,10.48 2.48,12.61 5.49,19.28 -10.57,18.32 -5.18,21.57 -1.16,30.49 l -3.57,29.69 -1,11.04 c -0.47,0.98 -1.29,2.31 -2.67,4.28 -4.77,6.77 -4.46,6.12 -2.08,16.01 3.7,15.42 -1.99,16.24 2.71,23.96 v 11.57 l -0.39,10.29 -0.06,0.11 c -6.41,-1.2 -28.08,-15.86 -37.02,-19.49 -28.4,-11.52 -51.11,-23.28 -81.85,-34.21 -15.22,-5.42 -29.84,-9 -43.25,-15.8 -7.4,-3.75 -13.27,-5.42 -20.37,-8.4 -8.75,-3.69 -98.72,-53.75 -101.92,-25.77 -1.91,16.65 21.41,19.41 27.6,22.9 4.45,2.5 -1.67,-1.5 2.17,1.38 2.87,2.17 0.85,-0.07 2.92,2.86 -8.75,0.23 -53.63,-5.91 -39.57,16.72 5.22,8.41 32.95,8.8 40.63,11.68 l 2.49,1.14 c 3.33,1.88 0.97,0.14 3.45,2.68 -9.33,-0.05 -18.01,-1.15 -21.27,5.7 -10.22,21.49 36.67,16.96 51.9,25.11 -11.33,6.14 -34.78,11.71 -19.17,32.1 11.92,15.58 27.24,8.78 41.62,17.13 l -4.62,3.6 c -4.27,2.02 -13.32,2.46 -15.36,10.32 -6.51,25 49.25,23.63 74.9,29.24 -11.28,0.27 -24.99,-2.26 -35.52,1.45 -8.81,3.11 -14.44,13.01 -8.55,23.69 12.05,21.93 28.88,13.08 53.39,20.43 -5.16,4.88 -18.04,6.26 -21.54,16.22 -4.65,13.2 5.25,20.37 12.77,24.64 16.62,9.44 53.45,-0.31 65.19,9.95 l -7.89,2.15 c -15.33,0.75 -41.19,-5.91 -46.2,8.83 -2.85,8.39 2.81,11.32 4.48,15.29 14.43,4.28 17.26,6.72 34.85,6.21 l 27,-2.24 c 7.98,0.18 4.8,-0.18 7.37,3.39 -1.75,2.53 3.41,3.87 -10.77,3.61 -22.56,-0.41 -20.76,-1.05 -36.25,7.42 -1.24,23.47 16.84,27.28 36.14,25.51 9.62,-0.88 10.1,-4.54 17.82,1.11 0.01,7.49 -3.27,4.36 -14.86,15.69 -5.83,5.68 -8.05,15.95 -0.32,23.2 10.34,9.69 34.13,-2.73 52.51,-2.19 -1.22,8.72 -11.78,8.5 -16.37,18.14 -4.81,10.1 1.81,20.35 10.86,22.46 4.79,1.12 10,0.34 15.31,-1.39 l 2.31,24.25 3.04,37.99 3.04,39.51 4.56,31.91 6.08,25.84 6.08,21.27 7.6,18.24 9.11,21.27 10.64,24.32 12.16,25.83 15.19,25.83 15.2,21.28 18.23,18.23 6.63,4.97 c -42.58,31.78 -101.89,55.94 -176.79,52.74 -35.84,7.92 -26.66,21.67 -15.9,23.27 4.6,-0.09 8,0.16 12.61,0.57 25.32,2.22 1.58,4.92 -8.51,5.24 -4.82,5.03 -6.52,6.04 -5.58,16.76 0.98,11.4 -21.54,10.81 -20.25,18.78 2.6,16.07 -12.39,17.81 9.48,35.18 -2.06,9.4 -15.03,17.03 -4.65,30.03 10.79,13.5 20.1,4.78 32.6,4.3 -4.87,11.62 -21.36,21.22 -22.12,22.83 -2.17,18.79 48.39,15.06 65.12,14.34 -0.69,15.04 -1.98,7.06 -6.45,15.36 -4.03,7.46 -0.82,11.53 3.67,14.35 14.53,7.27 109.59,-29.87 120.93,-33.63 3.29,4.23 4.79,10.4 13.07,9.14 7.75,-1.17 0.76,-1.88 7.5,-2.68 6.64,-0.79 2.17,0.9 8.54,2.54 14.3,3.66 17.87,-12.42 26.37,-16.11 3.55,3.9 4.25,7.71 10.24,8.32 11.41,1.17 21.63,-16.51 31.19,-26.41 1.92,-4.39 14.54,-24.24 19.1,-27.62 8.86,2.82 6.29,6.56 9.13,17.24 6.68,8.61 19.61,9.41 25.69,-0.72 4.61,-7.68 3.44,-26.63 3.93,-36.51 8.53,1.48 8.81,10.12 14.74,16.68 12.61,0.83 18.07,-5.96 20.6,-15.19 0.77,-10.04 0.56,-26.15 4.92,-33.71 4.18,3.52 4.04,2.9 2.99,15.22 -1.36,15.9 -1.7,20.77 11.81,20.6 13.47,-6.98 6.9,-51.77 6.82,-69.47 0.3,0.29 0.74,0.35 0.85,0.92 l 2.72,4.11 c 6.23,14.23 1.25,45.49 18.11,42.05 10.02,-2.04 8.41,-14.92 9.86,-25.64 1.57,-11.6 2.03,-18.39 2.46,-29.39 l 10.03,0.45 c -0.09,2.3 -0.68,5.5 -1.2,9.71 -1.66,13.2 -2.31,15.43 3.77,23.73 23.27,4.66 11.26,-19.64 19.21,-26.84 2.05,5.26 0.69,5.43 4.2,11.9 15.39,4.05 17.54,-7.93 17.04,-20.78 l 10.96,-0.65 50.15,-9.12 44.07,-13.68 41.03,-21.27 36.47,-25.83 33.43,-31.91 27.35,-37.99 25.84,-44.07 v -121.57 h -193.2 c 1.28,-4.82 2.21,-10.79 5.91,-21.36 3.76,-10.76 7.17,-12.64 13.51,-20.39 27.07,-33.05 37.84,-70.06 37.64,-112.56 -0.14,-28.86 -0.92,-52.09 -3.75,-78.99 -2.33,-22.13 -10.04,-36.2 -8.98,-58.46 h 448.23 v 542.5 l -21.27,44.06 -22.8,42.55 -27.35,37.99 -28.87,36.47 -31.92,33.44 -36.46,30.39 -38,27.35 -39.51,24.31 -44.06,22.8 -44.07,18.23 -45.59,16.72 -47.11,12.16 -48.63,10.63 -50.14,7.6 -51.67,4.56 -53.18,1.52 -45.59,-1.52 -45.59,-3.04 -44.07,-3.04 -41.03,-6.08 -41.03,-7.6 -37.99,-9.11 -36.47,-10.64 -34.95,-12.16 -34.95,-15.19 -31.91,-15.2 -30.4,-18.23 -27.35,-18.24 -27.35,-21.28 -25.83,-22.79 -22.8,-24.31 -22.79,-25.84 -21.28,-27.35 -18.23,-28.87 -18.24,-30.39 -16.71,-33.43 -15.2,-33.44 -13.67,-36.47 -13.68,-37.98 -10.64,-39.52 -10.64,-41.02 -7.59,-44.07 -7.6,-44.07 -6.08,-45.59 -4.56,-48.63 -3.04,-50.14 -3.04,-51.67 z"
   id="path1632" />
   </clipPath>
   <clipPath
   id="id2"
   style="clip-rule:nonzero">
    <path
   d="m 5699.72,11469 h 325.35 l -3.04,83.62 -7.6,77.53 -13.68,72.97 -18.25,68.42 -24.32,63.85 -28.89,57.78 -34.97,54.73 -41.05,47.12 -44.08,44.09 -50.17,36.49 -53.21,31.93 -59.3,25.84 -62.33,21.29 -66.89,13.68 -71.46,9.12 -76.01,3.04 -42.57,-1.52 -41.05,-1.52 -39.53,-4.56 -38,-6.08 -38.01,-6.08 -34.97,-9.12 -34.97,-10.65 -31.92,-12.16 -31.93,-13.68 -30.41,-13.68 -28.88,-16.73 -27.37,-18.24 -25.84,-19.76 -25.85,-21.29 -22.8,-22.8 -22.81,-25.85 -21.28,-25.84 -18.24,-27.37 -18.25,-28.89 -16.72,-30.4 -16.73,-33.45 -13.68,-33.44 -12.16,-34.97 -12.16,-38.01 -9.12,-38.01 -9.13,-41.05 -7.6,-42.56 -6.08,-42.57 -4.56,-45.61 -3.04,-45.61 -3.04,-48.65 v -50.17 -150.51 l 1.52,-79.06 4.56,-72.97 6.08,-71.46 9.12,-66.89 13.69,-62.33 15.2,-59.3 16.72,-56.25 21.29,-51.69 22.8,-47.13 27.37,-45.61 28.88,-39.53 31.93,-38 33.45,-33.45 38,-28.88 39.53,-25.85 42.57,-21.29 36.49,-16.72 36.49,-12.16 39.52,-12.16 41.05,-9.13 42.57,-6.07 45.61,-6.09 45.61,-3.04 48.65,-1.52 69.93,3.04 66.9,7.61 63.85,12.16 59.29,16.72 57.77,22.8 53.22,27.37 50.16,31.93 47.13,36.48 41.05,42.57 38.01,45.61 30.41,50.17 25.84,54.73 19.76,59.29 13.69,62.34 7.6,68.41 3.04,72.98 H 5690.6 l -7.6,-36.49 -9.12,-33.45 -10.64,-31.92 -12.17,-28.89 -12.16,-27.37 -15.2,-24.32 -15.2,-22.81 -16.73,-19.76 -19.76,-18.24 -21.28,-15.21 -22.81,-12.16 -27.37,-10.64 -28.88,-9.12 -31.93,-6.08 -33.44,-3.04 -36.49,-1.53 -42.57,1.53 -39.53,6.08 -38.01,7.6 -33.44,12.16 -31.93,16.72 -28.88,18.25 -25.85,22.8 -22.8,25.85 -13.69,21.28 -13.68,24.33 -10.64,28.88 -9.12,31.93 -7.6,34.97 -7.61,38 -4.56,42.57 -3.04,45.61 -3.04,33.45 -1.52,38.01 v 44.08 48.65 156.6 69.93 l 1.89,26.49 c -39.59,-11.01 -78.79,-22.17 -157.92,-21.14 -26.13,0.98 -76.7,8.56 -98.28,17.39 -7.92,3.25 -11.06,5.96 -14.6,8.95 -7.52,6.34 -8.73,5.11 -5.97,16.49 l 3.43,11.1 c 18.24,74.11 67.18,117.76 141.2,136.69 14.14,3.62 28.4,9.7 42.22,11.89 12.32,6.77 51.65,6.45 59.17,16.5 -1.58,7.63 -3.33,14.02 -4.4,23.36 -1.05,9.26 -4.04,16.05 -4.31,21.37 -3.04,4.49 -2.93,4.82 -1.65,15.51 l 2.46,24.46 -3.53,8.03 c -10.84,25.57 -33.79,43.81 -44.75,69.48 -5.64,13.17 -3.66,29.76 10.1,35.96 3.53,3.77 20.27,8.16 25.99,7.94 l 1.5,3.82 c 1.43,23.58 -3.22,25.38 -8.02,42.31 -2.59,11.93 7.34,9.9 10.15,10.64 l 10.98,0.93 c 7,0.79 6.63,0.03 8.99,6.57 -6.05,1.85 -28.51,8.69 -28.71,9.69 -1.22,6.1 1.43,9.52 4.86,14.34 2.1,2.94 3.69,3.93 6.02,5.79 3.07,5.84 8.74,18.76 11.1,26.33 0.46,7.31 0.53,28.19 3.54,33.51 7.48,13.24 30.76,45.63 63.46,27.83 193.87,-47.32 377.1,48.71 415.5,-14.85 36.49,-60.39 -105.05,-188.85 62.59,-77.44 0.68,0.23 17.66,9.87 27.7,14.91 83.65,40.35 87,73.37 182.96,32.21 43.84,-18.46 27.94,-44.5 9.07,-85.68 -22.35,-48.79 -66.52,-95.99 -101.73,-137.91 l -35.44,-34.19 0.39,-0.66 15.2,-28.88 13.69,-33.45 10.64,-34.97 10.64,-39.52 9.12,-42.57 6.08,-47.13 z"
   id="path1635" />
   </clipPath>
   <clipPath
   id="id3">
    <path
   d="m 5699.72,11469 h 325.35 l -3.04,83.62 -7.6,77.53 -13.68,72.97 -18.25,68.42 -24.32,63.85 -28.89,57.78 -34.97,54.73 -41.05,47.12 -44.08,44.09 -50.17,36.49 -53.21,31.93 -59.3,25.84 -62.33,21.29 -66.89,13.68 -71.46,9.12 -76.01,3.04 -42.57,-1.52 -41.05,-1.52 -39.53,-4.56 -38,-6.08 -38.01,-6.08 -34.97,-9.12 -34.97,-10.65 -31.92,-12.16 -31.93,-13.68 -30.41,-13.68 -28.88,-16.73 -27.37,-18.24 -25.84,-19.76 -25.85,-21.29 -22.8,-22.8 -22.81,-25.85 -21.28,-25.84 -18.24,-27.37 -18.25,-28.89 -16.72,-30.4 -16.73,-33.45 -13.68,-33.44 -12.16,-34.97 -12.16,-38.01 -9.12,-38.01 -9.13,-41.05 -7.6,-42.56 -6.08,-42.57 -4.56,-45.61 -3.04,-45.61 -3.04,-48.65 v -50.17 -150.51 l 1.52,-79.06 4.56,-72.97 6.08,-71.46 9.12,-66.89 13.69,-62.33 15.2,-59.3 16.72,-56.25 21.29,-51.69 22.8,-47.13 27.37,-45.61 28.88,-39.53 31.93,-38 33.45,-33.45 38,-28.88 39.53,-25.85 42.57,-21.29 36.49,-16.72 36.49,-12.16 39.52,-12.16 41.05,-9.13 42.57,-6.07 45.61,-6.09 45.61,-3.04 48.65,-1.52 69.93,3.04 66.9,7.61 63.85,12.16 59.29,16.72 57.77,22.8 53.22,27.37 50.16,31.93 47.13,36.48 41.05,42.57 38.01,45.61 30.41,50.17 25.84,54.73 19.76,59.29 13.69,62.34 7.6,68.41 3.04,72.98 H 5690.6 l -7.6,-36.49 -9.12,-33.45 -10.64,-31.92 -12.17,-28.89 -12.16,-27.37 -15.2,-24.32 -15.2,-22.81 -16.73,-19.76 -19.76,-18.24 -21.28,-15.21 -22.81,-12.16 -27.37,-10.64 -28.88,-9.12 -31.93,-6.08 -33.44,-3.04 -36.49,-1.53 -42.57,1.53 -39.53,6.08 -38.01,7.6 -33.44,12.16 -31.93,16.72 -28.88,18.25 -25.85,22.8 -22.8,25.85 -13.69,21.28 -13.68,24.33 -10.64,28.88 -9.12,31.93 -7.6,34.97 -7.61,38 -4.56,42.57 -3.04,45.61 -3.04,33.45 -1.52,38.01 v 44.08 48.65 156.6 69.93 l 1.89,26.49 c -39.59,-11.01 -78.79,-22.17 -157.92,-21.14 -26.13,0.98 -76.7,8.56 -98.28,17.39 -7.92,3.25 -11.06,5.96 -14.6,8.95 -7.52,6.34 -8.73,5.11 -5.97,16.49 l 3.43,11.1 c 18.24,74.11 67.18,117.76 141.2,136.69 14.14,3.62 28.4,9.7 42.22,11.89 12.32,6.77 51.65,6.45 59.17,16.5 -1.58,7.63 -3.33,14.02 -4.4,23.36 -1.05,9.26 -4.04,16.05 -4.31,21.37 -3.04,4.49 -2.93,4.82 -1.65,15.51 l 2.46,24.46 -3.53,8.03 c -10.84,25.57 -33.79,43.81 -44.75,69.48 -5.64,13.17 -3.66,29.76 10.1,35.96 3.53,3.77 20.27,8.16 25.99,7.94 l 1.5,3.82 c 1.43,23.58 -3.22,25.38 -8.02,42.31 -2.59,11.93 7.34,9.9 10.15,10.64 l 10.98,0.93 c 7,0.79 6.63,0.03 8.99,6.57 -6.05,1.85 -28.51,8.69 -28.71,9.69 -1.22,6.1 1.43,9.52 4.86,14.34 2.1,2.94 3.69,3.93 6.02,5.79 3.07,5.84 8.74,18.76 11.1,26.33 0.46,7.31 0.53,28.19 3.54,33.51 7.48,13.24 30.76,45.63 63.46,27.83 193.87,-47.32 377.1,48.71 415.5,-14.85 36.49,-60.39 -105.05,-188.85 62.59,-77.44 0.68,0.23 17.66,9.87 27.7,14.91 83.65,40.35 87,73.37 182.96,32.21 43.84,-18.46 27.94,-44.5 9.07,-85.68 -22.35,-48.79 -66.52,-95.99 -101.73,-137.91 l -35.44,-34.19 0.39,-0.66 15.2,-28.88 13.69,-33.45 10.64,-34.97 10.64,-39.52 9.12,-42.57 6.08,-47.13 z"
   id="path1638" />
   </clipPath>
   <clipPath
   id="id4"
   style="clip-rule:nonzero">
    <path
   d="m 4570.97,12165.3 h -405.93 -180.21 c 8.27,0 7.28,-4.78 7.86,-12.69 l 42.03,-33 39.64,16.4 c 17.55,-16.33 62.18,1.7 62.18,-45.26 17.01,-4.24 31.44,-7.95 40.35,-21.41 l -3.05,-13.2 c 23.03,-13.04 47.26,-3.2 48.49,-38.74 l 33.19,-39.1 -1.44,-5.4 -19.36,-40.15 c 0,-21.77 -25.28,-48.82 -37.34,-79.21 -15.87,-40.02 -36.78,-79.67 -48.41,-98.26 0,-22.16 -2.8,-13.66 -6.55,-27.6 -1.6,-5.96 -1.76,-25.37 -2.77,-31.64 -3.47,-21.36 -10.71,-37.28 -10.63,-57.84 0.12,-34.73 -19.56,-87.48 -39.74,-93.25 3,-7.78 -11.46,-22.48 -16.29,-33.14 -5.86,-12.91 -9.41,-27.38 -15.54,-39.29 -6.79,-13.19 -47.03,-53.66 -55.22,-50.04 -3.66,-14.69 -26.81,-29.76 -35.85,-44.16 -13.85,-22.04 -16.14,-38.49 -26.34,-57 -9.92,-18.01 -21.1,-32.91 -38.88,-43.57 -8.85,-5.3 -46.51,-26.69 -53.12,-28.34 v -23.96 c 0,-19.14 -44.77,-41.77 -44.77,-82.53 v -10.65 c 0,-22.69 7.74,-31.76 14.17,-48.73 8.73,-23.08 3.65,-24.35 17.2,-45.49 8.44,-13.18 40.76,-70.68 50.7,-73.52 0.6,-28.74 17.41,-31.19 17.41,-53.25 0,-15.61 -17.11,-17.46 -22.91,-26.06 -0.62,-0.9 -14.1,-33.83 -14.4,-35.18 -29.48,-2.62 -49.74,-22.24 -49.74,-55.91 v -13.31 c 0,-24.03 17.85,-51.35 27.36,-66.56 0,-15.67 -8.5,-42.05 -7.82,-50.64 l 12.8,-117.1 c 1.52,-12.58 -7.77,-37.79 -12.44,-45.26 -15.58,0 -19.32,0.78 -22.39,-13.31 h -9.94 c -4.62,18.51 -67.86,41.24 -86.61,67.03 -10.16,13.97 -22.68,30.88 -31.1,46.58 -14.48,26.98 -19.08,22.89 -19.08,56.79 -4.75,7.58 -20.69,34.61 -29.85,34.61 -19.57,0 -35.59,-13.31 -59.69,-13.31 h -12.44 c -6.71,0 -6.85,1.27 -12.43,2.66 -0.31,14.97 -18.24,21.25 -28.86,38.33 -9.32,15 -14.22,28.62 -24.33,43.18 -6.69,9.63 -56.24,75.92 -56.24,80.9 0,24.53 19.89,54.5 19.89,85.2 11.29,4.37 12.44,21.1 12.44,37.27 0,6.15 -27.6,33.89 -32.33,37.28 0,22.4 -3.98,17.06 -17.41,23.96 2.66,10.67 9.94,13.89 9.94,26.62 0,28.71 -12.43,62.25 -12.43,69.23 0,20.68 24.87,64.07 24.87,87.86 0,12.75 -27.95,31.38 -34.78,45.68 l 32.3,-3.08 h 12.43 c 13.33,0 28.71,15.97 57.21,15.97 3,4.81 4.97,4.68 4.97,10.65 0,1.21 -10.93,57.86 -11.52,59.56 -8.1,23.79 -34.11,16.5 -48.3,25.51 -6.74,4.28 -23.94,34.45 -31.54,43.44 -9.56,11.29 -28.02,28 -28.02,47.21 0,6.38 10.41,15.14 13.4,22.99 3.23,8.49 -0.97,22.51 -0.97,35.59 v 13.31 h 17.41 c 11.05,0 10.11,27.44 14.9,39.97 7.57,19.82 13.38,19.8 24.9,26.59 7.78,6.02 -0.35,9.16 12.33,16.2 10.97,6.09 10.87,-2.88 27.14,2.73 28.98,9.97 29.78,-2.26 42.6,26.34 -15.2,24.29 -45.59,34.69 -66.16,64.96 -10.21,15.03 -17.76,26.77 -17.1,44.84 0.84,22.83 -13.74,45.71 -13.74,49.94 v 5.33 c 0,4.08 10.2,20.39 12.44,23.96 0,40.51 14.92,25.91 14.92,47.93 v 5.32 c 0,10.24 -14.01,8 -21.65,24.75 -5.18,11.36 -6.52,25.18 -18.14,28.5 5.67,14.7 8.07,11.76 28.35,20.24 10.92,4.57 33.51,9.62 40.66,15.05 20.6,15.65 43.93,31.14 75.24,33.93 -0.91,11.75 -4.98,11.65 -4.98,18.64 0,34.77 22.05,60.05 42.16,73.84 l 12.56,-1.95 v -21.3 c 12.57,-4.87 30.39,-35.95 35.76,-52.25 3.98,-12.09 40.73,-32.95 56.26,-32.95 h 49.75 c 10.44,0 24.87,11.8 24.87,21.3 v 10.65 c 0,11.63 -4.98,9.67 -4.98,21.3 l -0.1,8.66 49.85,7.32 h 4.97 c 21.03,0 33.19,-13.62 34.82,-34.62 l 7.45,0.08 42.29,2.58 c 0.82,10.58 2.49,6.42 2.49,13.32 0,17 -17.41,11.39 -17.41,39.93 l -5.7,0.78 -4.25,9.87 c 8.88,13.7 15.45,28.53 30.58,36.49 14.85,7.81 31.13,15.55 31.6,38.06 H 3563 3211.8 v -1410.85 l 1.53,-48.65 4.56,-45.61 7.6,-41.04 9.12,-38.02 13.68,-34.96 16.73,-31.93 18.24,-28.88 21.28,-24.33 25.85,-21.28 28.89,-19.77 33.45,-15.2 36.48,-12.16 41.05,-10.64 45.61,-7.61 48.65,-4.56 53.21,-1.52 h 297.98 l 65.37,3.04 60.81,7.6 59.3,13.69 54.73,16.72 50.17,22.81 48.65,28.88 44.09,31.93 41.05,38.01 38,42.56 31.93,45.62 27.37,47.12 21.28,50.17 16.72,53.21 13.69,54.73 6.08,59.3 3.04,60.81 -1.52,44.09 -4.56,42.57 -7.6,42.57 -9.13,39.53 -13.68,38 -16.72,38.01 -19.76,34.97 -21.29,33.44 -24.33,31.93 -25.84,28.89 -27.37,27.36 -28.88,24.33 -28.89,21.28 -31.92,19.77 -31.93,15.2 -34.97,15.2 z"
   id="path1641" />
   </clipPath>
 </defs>
 <g
   id="Capa_x0020_1"
   transform="translate(-1573.28,-10343.083)">
  <metadata
   id="CorelCorpID_0Corel-Layer" />
  <path
   class="fil0"
   d="m 1583.28,11319.98 v -221.86 l 3.04,-85.09 9.12,-80.54 13.67,-75.99 19.76,-69.9 25.83,-66.86 31.91,-60.78 37.99,-56.23 42.55,-51.67 24.32,-24.31 24.31,-21.27 25.83,-21.28 25.84,-19.75 28.87,-16.72 28.87,-16.71 30.39,-15.2 30.4,-12.16 33.43,-12.15 33.43,-9.12 34.95,-9.12 34.95,-6.08 36.47,-6.08 37.99,-4.55 39.51,-1.53 39.51,-1.51 41.03,1.51 37.99,1.53 37.99,4.55 37.99,6.08 36.47,6.08 34.95,9.12 33.43,9.12 33.43,12.15 31.92,12.16 31.91,15.2 28.87,16.71 30.39,16.72 27.35,19.75 27.36,21.28 25.83,21.27 25.84,24.31 31.91,36.47 28.87,41.03 22.79,45.59 19.76,50.15 15.19,54.7 10.64,57.75 6.08,62.3 3.04,68.38 h -328.24 l -1.52,-36.47 -3.03,-34.95 -6.08,-30.39 -9.12,-30.39 -10.64,-25.83 -13.67,-25.84 -16.72,-21.27 -18.24,-19.76 -21.27,-18.23 -24.31,-15.2 -25.84,-12.16 -28.87,-10.63 -31.91,-9.12 -33.43,-6.08 -36.47,-3.04 -39.51,-1.51 -45.59,3.03 -42.55,6.08 -37.99,12.16 -36.47,15.19 -30.39,19.76 -27.36,19.75 -22.79,22.8 -18.24,22.79 -15.19,25.83 -13.68,33.44 -12.15,37.99 -0.98,4.73 c -1.79,-3.56 -3.59,-3.93 -5.73,2.1 -2.86,8.04 -10.99,35.39 -14.19,41.23 -3.48,6.34 -9.38,6.95 -5.14,18.93 5.21,14.71 1.43,8.88 -2.08,20.7 -3.12,10.48 2.48,12.61 5.49,19.28 -10.57,18.32 -5.18,21.57 -1.16,30.49 l -3.57,29.69 -1,11.04 c -0.47,0.98 -1.29,2.31 -2.67,4.28 -4.77,6.77 -4.46,6.12 -2.08,16.01 3.7,15.42 -1.99,16.24 2.71,23.96 v 11.57 l -0.39,10.29 -0.06,0.11 c -6.41,-1.2 -28.08,-15.86 -37.02,-19.49 -28.4,-11.52 -51.11,-23.28 -81.85,-34.21 -15.22,-5.42 -29.84,-9 -43.25,-15.8 -7.4,-3.75 -13.27,-5.42 -20.37,-8.4 -8.75,-3.69 -98.72,-53.75 -101.92,-25.77 -1.91,16.65 21.41,19.41 27.6,22.9 4.45,2.5 -1.67,-1.5 2.17,1.38 2.87,2.17 0.85,-0.07 2.92,2.86 -8.75,0.23 -53.63,-5.91 -39.57,16.72 5.22,8.41 32.95,8.8 40.63,11.68 l 2.49,1.14 c 3.33,1.88 0.97,0.14 3.45,2.68 -9.33,-0.05 -18.01,-1.15 -21.27,5.7 -10.22,21.49 36.67,16.96 51.9,25.11 -11.33,6.14 -34.78,11.71 -19.17,32.1 11.92,15.58 27.24,8.78 41.62,17.13 l -4.62,3.6 c -4.27,2.02 -13.32,2.46 -15.36,10.32 -6.51,25 49.25,23.63 74.9,29.24 -11.28,0.27 -24.99,-2.26 -35.52,1.45 -8.81,3.11 -14.44,13.01 -8.55,23.69 12.05,21.93 28.88,13.08 53.39,20.43 -5.16,4.88 -18.04,6.26 -21.54,16.22 -4.65,13.2 5.25,20.37 12.77,24.64 16.62,9.44 53.45,-0.31 65.19,9.95 l -7.89,2.15 c -15.33,0.75 -41.19,-5.91 -46.2,8.83 -2.85,8.39 2.81,11.32 4.48,15.29 14.43,4.28 17.26,6.72 34.85,6.21 l 27,-2.24 c 7.98,0.18 4.8,-0.18 7.37,3.39 -1.75,2.53 3.41,3.87 -10.77,3.61 -22.56,-0.41 -20.76,-1.05 -36.25,7.42 -1.24,23.47 16.84,27.28 36.14,25.51 9.62,-0.88 10.1,-4.54 17.82,1.11 0.01,7.49 -3.27,4.36 -14.86,15.69 -5.83,5.68 -8.05,15.95 -0.32,23.2 10.34,9.69 34.13,-2.73 52.51,-2.19 -1.22,8.72 -11.78,8.5 -16.37,18.14 -4.81,10.1 1.81,20.35 10.86,22.46 4.79,1.12 10,0.34 15.31,-1.39 l 2.31,24.25 3.04,37.99 3.04,39.51 4.56,31.91 6.08,25.84 6.08,21.27 7.6,18.24 9.11,21.27 10.64,24.32 12.16,25.83 15.19,25.83 15.2,21.28 18.23,18.23 6.63,4.97 c -42.58,31.78 -101.89,55.94 -176.79,52.74 -35.84,7.92 -26.66,21.67 -15.9,23.27 4.6,-0.09 8,0.16 12.61,0.57 25.32,2.22 1.58,4.92 -8.51,5.24 -4.82,5.03 -6.52,6.04 -5.58,16.76 0.98,11.4 -21.54,10.81 -20.25,18.78 2.6,16.07 -12.39,17.81 9.48,35.18 -2.06,9.4 -15.03,17.03 -4.65,30.03 10.79,13.5 20.1,4.78 32.6,4.3 -4.87,11.62 -21.36,21.22 -22.12,22.83 -2.17,18.79 48.39,15.06 65.12,14.34 -0.69,15.04 -1.98,7.06 -6.45,15.36 -4.03,7.46 -0.82,11.53 3.67,14.35 14.53,7.27 109.59,-29.87 120.93,-33.63 3.29,4.23 4.79,10.4 13.07,9.14 7.75,-1.17 0.76,-1.88 7.5,-2.68 6.64,-0.79 2.17,0.9 8.54,2.54 14.3,3.66 17.87,-12.42 26.37,-16.11 3.55,3.9 4.25,7.71 10.24,8.32 11.41,1.17 21.63,-16.51 31.19,-26.41 1.92,-4.39 14.54,-24.24 19.1,-27.62 8.86,2.82 6.29,6.56 9.13,17.24 6.68,8.61 19.61,9.41 25.69,-0.72 4.61,-7.68 3.44,-26.63 3.93,-36.51 8.53,1.48 8.81,10.12 14.74,16.68 12.61,0.83 18.07,-5.96 20.6,-15.19 0.77,-10.04 0.56,-26.15 4.92,-33.71 4.18,3.52 4.04,2.9 2.99,15.22 -1.36,15.9 -1.7,20.77 11.81,20.6 13.47,-6.98 6.9,-51.77 6.82,-69.47 0.3,0.29 0.74,0.35 0.85,0.92 l 2.72,4.11 c 6.23,14.23 1.25,45.49 18.11,42.05 10.02,-2.04 8.41,-14.92 9.86,-25.64 1.57,-11.6 2.03,-18.39 2.46,-29.39 l 10.03,0.45 c -0.09,2.3 -0.68,5.5 -1.2,9.71 -1.66,13.2 -2.31,15.43 3.77,23.73 23.27,4.66 11.26,-19.64 19.21,-26.84 2.05,5.26 0.69,5.43 4.2,11.9 15.39,4.05 17.54,-7.93 17.04,-20.78 l 10.96,-0.65 50.15,-9.12 44.07,-13.68 41.03,-21.27 36.47,-25.83 33.43,-31.91 27.35,-37.99 25.84,-44.07 v -121.57 h -193.2 c 1.28,-4.82 2.21,-10.79 5.91,-21.36 3.76,-10.76 7.17,-12.64 13.51,-20.39 27.07,-33.05 37.84,-70.06 37.64,-112.56 -0.14,-28.86 -0.92,-52.09 -3.75,-78.99 -2.33,-22.13 -10.04,-36.2 -8.98,-58.46 h 448.23 v 542.5 l -21.27,44.06 -22.8,42.55 -27.35,37.99 -28.87,36.47 -31.92,33.44 -36.46,30.39 -38,27.35 -39.51,24.31 -44.06,22.8 -44.07,18.23 -45.59,16.72 -47.11,12.16 -48.63,10.63 -50.14,7.6 -51.67,4.56 -53.18,1.52 -45.59,-1.52 -45.59,-3.04 -44.07,-3.04 -41.03,-6.08 -41.03,-7.6 -37.99,-9.11 -36.47,-10.64 -34.95,-12.16 -34.95,-15.19 -31.91,-15.2 -30.4,-18.23 -27.35,-18.24 -27.35,-21.28 -25.83,-22.79 -22.8,-24.31 -22.79,-25.84 -21.28,-27.35 -18.23,-28.87 -18.24,-30.39 -16.71,-33.43 -15.2,-33.44 -13.67,-36.47 -13.68,-37.98 -10.64,-39.52 -10.64,-41.02 -7.59,-44.07 -7.6,-44.07 -6.08,-45.59 -4.56,-48.63 -3.04,-50.14 -3.04,-51.67 z"
   id="path1647" />
  <g
   clip-path="url(#id0)"
   id="g1650">
   <g
   id="_1368660023040">
   </g>
  </g>
  <path
   id="_1"
   class="fil1 str0"
   d="m 1583.28,11319.98 v -221.86 l 3.04,-85.09 9.12,-80.54 13.67,-75.99 19.76,-69.9 25.83,-66.86 31.91,-60.78 37.99,-56.23 42.55,-51.67 24.32,-24.31 24.31,-21.27 25.83,-21.28 25.84,-19.75 28.87,-16.72 28.87,-16.71 30.39,-15.2 30.4,-12.16 33.43,-12.15 33.43,-9.12 34.95,-9.12 34.95,-6.08 36.47,-6.08 37.99,-4.55 39.51,-1.53 39.51,-1.51 41.03,1.51 37.99,1.53 37.99,4.55 37.99,6.08 36.47,6.08 34.95,9.12 33.43,9.12 33.43,12.15 31.92,12.16 31.91,15.2 28.87,16.71 30.39,16.72 27.35,19.75 27.36,21.28 25.83,21.27 25.84,24.31 31.91,36.47 28.87,41.03 22.79,45.59 19.76,50.15 15.19,54.7 10.64,57.75 6.08,62.3 3.04,68.38 h -328.24 l -1.52,-36.47 -3.03,-34.95 -6.08,-30.39 -9.12,-30.39 -10.64,-25.83 -13.67,-25.84 -16.72,-21.27 -18.24,-19.76 -21.27,-18.23 -24.31,-15.2 -25.84,-12.16 -28.87,-10.63 -31.91,-9.12 -33.43,-6.08 -36.47,-3.04 -39.51,-1.51 -45.59,3.03 -42.55,6.08 -37.99,12.16 -36.47,15.19 -30.39,19.76 -27.36,19.75 -22.79,22.8 -18.24,22.79 -15.19,25.83 -13.68,33.44 -12.15,37.99 -0.98,4.73 c -1.79,-3.56 -3.59,-3.93 -5.73,2.1 -2.86,8.04 -10.99,35.39 -14.19,41.23 -3.48,6.34 -9.38,6.95 -5.14,18.93 5.21,14.71 1.43,8.88 -2.08,20.7 -3.12,10.48 2.48,12.61 5.49,19.28 -10.57,18.32 -5.18,21.57 -1.16,30.49 l -3.57,29.69 -1,11.04 c -0.47,0.98 -1.29,2.31 -2.67,4.28 -4.77,6.77 -4.46,6.12 -2.08,16.01 3.7,15.42 -1.99,16.24 2.71,23.96 v 11.57 l -0.39,10.29 -0.06,0.11 c -6.41,-1.2 -28.08,-15.86 -37.02,-19.49 -28.4,-11.52 -51.11,-23.28 -81.85,-34.21 -15.22,-5.42 -29.84,-9 -43.25,-15.8 -7.4,-3.75 -13.27,-5.42 -20.37,-8.4 -8.75,-3.69 -98.72,-53.75 -101.92,-25.77 -1.91,16.65 21.41,19.41 27.6,22.9 4.45,2.5 -1.67,-1.5 2.17,1.38 2.87,2.17 0.85,-0.07 2.92,2.86 -8.75,0.23 -53.63,-5.91 -39.57,16.72 5.22,8.41 32.95,8.8 40.63,11.68 l 2.49,1.14 c 3.33,1.88 0.97,0.14 3.45,2.68 -9.33,-0.05 -18.01,-1.15 -21.27,5.7 -10.22,21.49 36.67,16.96 51.9,25.11 -11.33,6.14 -34.78,11.71 -19.17,32.1 11.92,15.58 27.24,8.78 41.62,17.13 l -4.62,3.6 c -4.27,2.02 -13.32,2.46 -15.36,10.32 -6.51,25 49.25,23.63 74.9,29.24 -11.28,0.27 -24.99,-2.26 -35.52,1.45 -8.81,3.11 -14.44,13.01 -8.55,23.69 12.05,21.93 28.88,13.08 53.39,20.43 -5.16,4.88 -18.04,6.26 -21.54,16.22 -4.65,13.2 5.25,20.37 12.77,24.64 16.62,9.44 53.45,-0.31 65.19,9.95 l -7.89,2.15 c -15.33,0.75 -41.19,-5.91 -46.2,8.83 -2.85,8.39 2.81,11.32 4.48,15.29 14.43,4.28 17.26,6.72 34.85,6.21 l 27,-2.24 c 7.98,0.18 4.8,-0.18 7.37,3.39 -1.75,2.53 3.41,3.87 -10.77,3.61 -22.56,-0.41 -20.76,-1.05 -36.25,7.42 -1.24,23.47 16.84,27.28 36.14,25.51 9.62,-0.88 10.1,-4.54 17.82,1.11 0.01,7.49 -3.27,4.36 -14.86,15.69 -5.83,5.68 -8.05,15.95 -0.32,23.2 10.34,9.69 34.13,-2.73 52.51,-2.19 -1.22,8.72 -11.78,8.5 -16.37,18.14 -4.81,10.1 1.81,20.35 10.86,22.46 4.79,1.12 10,0.34 15.31,-1.39 l 2.31,24.25 3.04,37.99 3.04,39.51 4.56,31.91 6.08,25.84 6.08,21.27 7.6,18.24 9.11,21.27 10.64,24.32 12.16,25.83 15.19,25.83 15.2,21.28 18.23,18.23 6.63,4.97 c -42.58,31.78 -101.89,55.94 -176.79,52.74 -35.84,7.92 -26.66,21.67 -15.9,23.27 4.6,-0.09 8,0.16 12.61,0.57 25.32,2.22 1.58,4.92 -8.51,5.24 -4.82,5.03 -6.52,6.04 -5.58,16.76 0.98,11.4 -21.54,10.81 -20.25,18.78 2.6,16.07 -12.39,17.81 9.48,35.18 -2.06,9.4 -15.03,17.03 -4.65,30.03 10.79,13.5 20.1,4.78 32.6,4.3 -4.87,11.62 -21.36,21.22 -22.12,22.83 -2.17,18.79 48.39,15.06 65.12,14.34 -0.69,15.04 -1.98,7.06 -6.45,15.36 -4.03,7.46 -0.82,11.53 3.67,14.35 14.53,7.27 109.59,-29.87 120.93,-33.63 3.29,4.23 4.79,10.4 13.07,9.14 7.75,-1.17 0.76,-1.88 7.5,-2.68 6.64,-0.79 2.17,0.9 8.54,2.54 14.3,3.66 17.87,-12.42 26.37,-16.11 3.55,3.9 4.25,7.71 10.24,8.32 11.41,1.17 21.63,-16.51 31.19,-26.41 1.92,-4.39 14.54,-24.24 19.1,-27.62 8.86,2.82 6.29,6.56 9.13,17.24 6.68,8.61 19.61,9.41 25.69,-0.72 4.61,-7.68 3.44,-26.63 3.93,-36.51 8.53,1.48 8.81,10.12 14.74,16.68 12.61,0.83 18.07,-5.96 20.6,-15.19 0.77,-10.04 0.56,-26.15 4.92,-33.71 4.18,3.52 4.04,2.9 2.99,15.22 -1.36,15.9 -1.7,20.77 11.81,20.6 13.47,-6.98 6.9,-51.77 6.82,-69.47 0.3,0.29 0.74,0.35 0.85,0.92 l 2.72,4.11 c 6.23,14.23 1.25,45.49 18.11,42.05 10.02,-2.04 8.41,-14.92 9.86,-25.64 1.57,-11.6 2.03,-18.39 2.46,-29.39 l 10.03,0.45 c -0.09,2.3 -0.68,5.5 -1.2,9.71 -1.66,13.2 -2.31,15.43 3.77,23.73 23.27,4.66 11.26,-19.64 19.21,-26.84 2.05,5.26 0.69,5.43 4.2,11.9 15.39,4.05 17.54,-7.93 17.04,-20.78 l 10.96,-0.65 50.15,-9.12 44.07,-13.68 41.03,-21.27 36.47,-25.83 33.43,-31.91 27.35,-37.99 25.84,-44.07 v -121.57 h -193.2 c 1.28,-4.82 2.21,-10.79 5.91,-21.36 3.76,-10.76 7.17,-12.64 13.51,-20.39 27.07,-33.05 37.84,-70.06 37.64,-112.56 -0.14,-28.86 -0.92,-52.09 -3.75,-78.99 -2.33,-22.13 -10.04,-36.2 -8.98,-58.46 h 448.23 v 542.5 l -21.27,44.06 -22.8,42.55 -27.35,37.99 -28.87,36.47 -31.92,33.44 -36.46,30.39 -38,27.35 -39.51,24.31 -44.06,22.8 -44.07,18.23 -45.59,16.72 -47.11,12.16 -48.63,10.63 -50.14,7.6 -51.67,4.56 -53.18,1.52 -45.59,-1.52 -45.59,-3.04 -44.07,-3.04 -41.03,-6.08 -41.03,-7.6 -37.99,-9.11 -36.47,-10.64 -34.95,-12.16 -34.95,-15.19 -31.91,-15.2 -30.4,-18.23 -27.35,-18.24 -27.35,-21.28 -25.83,-22.79 -22.8,-24.31 -22.79,-25.84 -21.28,-27.35 -18.23,-28.87 -18.24,-30.39 -16.71,-33.43 -15.2,-33.44 -13.67,-36.47 -13.68,-37.98 -10.64,-39.52 -10.64,-41.02 -7.59,-44.07 -7.6,-44.07 -6.08,-45.59 -4.56,-48.63 -3.04,-50.14 -3.04,-51.67 z" />
  <g
   clip-path="url(#id1)"
   id="g1654">
   <path
   id="_2"
   class="fil2 str1"
   d="m 1583.28,10353.52 1353.97,1826.56 m 0,-1826.56 -1353.97,1826.56" />
  </g>
  <path
   class="fil2 str2"
   d="m 2129.3,11050.38 c 3.27,13.74 56.83,77.15 69.74,94.93 10.17,14.01 25.57,29.89 37.16,43.37 10.61,12.35 26.06,40.04 33.54,44.23 0.31,-9.31 -1.42,-58.25 2.6,-75.04 9.57,-56.69 82.17,-73.13 116.97,-57.45 23.81,-3.32 52.43,11.95 54.82,13.46 8.63,5.43 48.93,-0.64 62.44,-1.21 15.77,-2.62 45.47,-10.1 59.9,-15.36 33.72,-12.3 214.14,-65.74 226.79,-67.67 12.46,-1.9 -150.39,74.91 -165.04,82.04 -39.9,20.74 -78.69,42.85 -116.04,64.81 -6.47,2.79 -6.32,4.22 -11.41,7.52 -1.08,19.03 -1.19,22 -6.22,36.43 -3.51,10.05 -4.94,21.85 -7.04,33.3 -5.58,30.47 4.7,45.36 7.45,71.52 2.82,26.9 3.61,50.13 3.75,78.99 0.2,42.5 -10.57,79.51 -37.64,112.56 -6.34,7.75 -9.75,9.63 -13.51,20.39 -8.95,25.57 -1.71,24.26 -22.3,44.66 -9.15,9.07 -22.14,22.13 -33.5,27.07 -11.5,5.01 -13.81,8.7 -3.05,14.34 0.97,5.98 7.92,8.55 8.65,18.16 0.43,5.7 -3.95,14.91 -6.51,20.39 -2.67,5.7 -8.78,10.17 -17.17,10.91 -14.26,1.27 -9.81,-2.48 -22.62,3.3 -16.5,1.25 -7.49,33.42 -16.84,28.4 -6.04,2.03 -9.82,5.47 -12.53,9.58 -1.74,2.66 -6.65,11.52 -7.57,14.27 3.53,4.05 4.53,4.59 9.44,6.76 2.98,10.66 12.36,27.48 18.21,35.97 14.23,20.64 30.63,32.01 26.6,54.75 -1.97,11.07 -5.66,3.01 -4.04,23.56 1.23,15.55 5.93,41.83 -15.82,36.11 -3.51,-6.47 -2.15,-6.64 -4.2,-11.9 -7.95,7.2 4.05,31.5 -19.21,26.84 -6.08,-8.3 -5.42,-10.53 -3.77,-23.73 1.59,-12.68 3.68,-16.14 -8.7,-13.6 -0.48,13.14 -0.87,20.08 -2.59,32.83 -1.45,10.72 0.16,23.6 -9.86,25.64 -16.86,3.44 -11.88,-27.82 -18.11,-42.05 l -2.72,-4.11 c -0.11,-0.57 -0.55,-0.63 -0.85,-0.92 0.09,17.7 6.65,62.49 -6.82,69.47 -13.51,0.17 -13.17,-4.7 -11.81,-20.6 1.05,-12.32 1.19,-11.7 -2.99,-15.22 -4.36,7.56 -4.15,23.67 -4.92,33.71 -2.53,9.23 -7.99,16.02 -20.6,15.19 -5.93,-6.56 -6.21,-15.2 -14.74,-16.68 -0.49,9.88 0.68,28.83 -3.93,36.51 -6.08,10.13 -19.01,9.33 -25.68,0.71 -2.85,-10.67 -0.28,-14.41 -9.14,-17.23 -4.56,3.38 -17.18,23.23 -19.1,27.62 -9.56,9.9 -19.78,27.58 -31.19,26.41 -5.99,-0.61 -6.69,-4.41 -10.24,-8.32 -8.5,3.69 -12.07,19.77 -26.37,16.11 -6.37,-1.64 -1.9,-3.33 -8.54,-2.54 -6.74,0.8 0.25,1.51 -7.5,2.68 -8.29,1.27 -9.78,-4.91 -13.07,-9.14 -11.34,3.76 -106.4,40.9 -120.93,33.63 -4.49,-2.82 -7.7,-6.89 -3.68,-14.35 4.48,-8.3 5.77,-0.32 6.46,-15.36 -16.73,0.72 -67.28,4.45 -65.12,-14.34 0.75,-1.61 17.25,-11.21 22.12,-22.83 -12.5,0.48 -21.81,9.2 -32.59,-4.3 -10.39,-13 2.58,-20.64 4.64,-30.03 -21.87,-17.37 -6.88,-19.11 -9.48,-35.18 -1.29,-7.97 21.23,-7.38 20.25,-18.78 -0.94,-10.71 0.76,-11.73 5.58,-16.76 10.09,-0.32 33.83,-3.02 8.51,-5.24 -4.61,-0.41 -8.01,-0.66 -12.61,-0.57 -10.76,-1.6 -19.94,-15.35 15.9,-23.27 147.37,6.31 234.44,-93.32 252.32,-148.53 6.37,-19.66 3.25,-87.14 0.62,-107.07 -3.21,-24.15 -2.86,-37.82 10.49,-57.61 0.68,-1.01 1.8,-3.85 2.7,-5.52 2.5,-4.64 3.5,-4.9 5.43,-11.06 3.8,-4.18 5.31,-6.45 6.08,-14.14 0.72,-7.22 3.05,-14.62 0.33,-20.08 -2.96,6.84 -13.74,41.14 -17.47,44.6 -6.62,6.14 -30.86,8.71 -21.87,-23.59 1.08,-3.85 -0.73,-35.93 -1.77,-38.93 l -9.21,-0.43 c -4.08,7.32 -6.48,23.37 -7.29,33.01 0.78,27.75 -26.64,28.19 -31.28,11.61 -3.61,-12.9 3.28,-13.17 -2,-28.01 -2.3,-6.46 -2.12,-7.11 -0.23,-13.68 l 0.73,-10.31 c -0.05,-0.63 -0.29,-0.82 -0.54,-1.17 -14.79,18.09 -11.82,52.34 -31.93,52.64 -27.82,0.41 -9.62,-37.73 -10.05,-42.54 -0.38,-4.21 -4.71,-11.83 -7.59,-14.44 -3.98,9 -18.14,27.18 -25.29,28.95 -25.2,2 -23.52,-8.59 -20.39,-28.86 1.31,-6.69 3.21,-3.57 2.6,-14.2 -13.8,1.49 -35.88,21.23 -52.78,17.27 -9.05,-2.11 -15.67,-12.36 -10.86,-22.46 4.59,-9.64 15.15,-9.42 16.37,-18.14 -18.38,-0.54 -42.17,11.88 -52.52,2.19 -7.72,-7.25 -5.5,-17.52 0.33,-23.21 11.59,-11.32 14.87,-8.19 14.86,-15.68 -7.72,-5.65 -8.2,-2 -17.82,-1.11 -19.3,1.77 -37.38,-2.04 -36.14,-25.51 15.49,-8.47 13.69,-7.83 36.25,-7.42 14.18,0.26 9.02,-1.08 10.77,-3.61 -2.57,-3.57 0.61,-3.21 -7.37,-3.39 l -27,2.24 c -17.59,0.5 -20.42,-1.93 -34.85,-6.21 -1.67,-3.97 -7.33,-6.9 -4.48,-15.29 5.01,-14.74 30.87,-8.08 46.2,-8.83 l 7.89,-2.15 c -11.74,-10.26 -48.57,-0.51 -65.19,-9.95 -7.53,-4.27 -17.42,-11.44 -12.77,-24.64 3.5,-9.96 16.38,-11.34 21.54,-16.22 -24.51,-7.35 -41.34,1.5 -53.4,-20.43 -5.88,-10.68 -0.25,-20.58 8.56,-23.69 10.53,-3.71 24.24,-1.18 35.52,-1.45 -25.65,-5.62 -81.41,-4.24 -74.9,-29.24 2.04,-7.86 11.09,-8.3 15.36,-10.33 l 4.62,-3.59 c -14.38,-8.35 -29.7,-1.55 -41.62,-17.13 -15.61,-20.39 7.84,-25.96 19.17,-32.1 -15.23,-8.15 -62.12,-3.62 -51.9,-25.12 3.26,-6.84 11.94,-5.74 21.27,-5.69 -2.48,-2.54 -0.12,-0.8 -3.45,-2.68 l -2.49,-1.14 c -7.68,-2.88 -35.41,-3.27 -40.63,-11.68 -14.06,-22.63 30.82,-16.49 39.57,-16.72 -2.07,-2.93 -0.04,-0.69 -2.92,-2.86 -3.84,-2.88 2.28,1.12 -2.17,-1.38 -6.19,-3.49 -29.51,-6.25 -27.6,-22.9 3.2,-27.98 93.17,22.08 101.92,25.76 7.1,2.99 12.97,4.66 20.37,8.41 13.41,6.8 28.03,10.38 43.26,15.8 30.73,10.93 53.44,22.69 81.84,34.21 8.94,3.63 30.61,18.29 37.02,19.49 2.03,-3.75 0.9,-4.46 2.66,-8.61 1.65,-3.92 1.68,-1.82 3.44,-6.1 -13.72,-15.46 -3.75,-12.01 -8.36,-31.22 -2.38,-9.88 -2.69,-9.24 2.08,-16.01 6.12,-8.72 1.12,-4.82 4.35,-14.06 2.49,-7.1 5.67,-4.19 5.93,-14.3 0.67,-25.62 -17.06,-20.83 -1.88,-47.14 -3.01,-6.67 -8.61,-8.8 -5.49,-19.28 3.51,-11.82 7.29,-5.99 2.08,-20.7 -4.24,-11.98 1.66,-12.59 5.14,-18.93 3.2,-5.84 11.33,-33.19 14.19,-41.24 5.91,-16.65 9.26,15.52 16.68,28.93 5.34,9.65 2.58,9.97 10.74,16.2 5.79,4.41 8.46,6.8 14.02,11.3 18.66,15.12 37.81,29.19 57.71,48.26 7.89,7.56 17.86,15.75 28.59,25.13 7.72,6.74 6.54,6.47 12.36,14.62 3.78,5.3 6.98,7.53 9.93,13.74 z"
   id="path1656" />
  <path
   class="fil3"
   d="m 5699.72,11469 h 325.35 l -3.04,83.62 -7.6,77.53 -13.68,72.97 -18.25,68.42 -24.32,63.85 -28.89,57.78 -34.97,54.73 -41.05,47.12 -44.08,44.09 -50.17,36.49 -53.21,31.93 -59.3,25.84 -62.33,21.29 -66.89,13.68 -71.46,9.12 -76.01,3.04 -42.57,-1.52 -41.05,-1.52 -39.53,-4.56 -38,-6.08 -38.01,-6.08 -34.97,-9.12 -34.97,-10.65 -31.92,-12.16 -31.93,-13.68 -30.41,-13.68 -28.88,-16.73 -27.37,-18.24 -25.84,-19.76 -25.85,-21.29 -22.8,-22.8 -22.81,-25.85 -21.28,-25.84 -18.24,-27.37 -18.25,-28.89 -16.72,-30.4 -16.73,-33.45 -13.68,-33.44 -12.16,-34.97 -12.16,-38.01 -9.12,-38.01 -9.13,-41.05 -7.6,-42.56 -6.08,-42.57 -4.56,-45.61 -3.04,-45.61 -3.04,-48.65 v -50.17 -150.51 l 1.52,-79.06 4.56,-72.97 6.08,-71.46 9.12,-66.89 13.69,-62.33 15.2,-59.3 16.72,-56.25 21.29,-51.69 22.8,-47.13 27.37,-45.61 28.88,-39.53 31.93,-38 33.45,-33.45 38,-28.88 39.53,-25.85 42.57,-21.29 36.49,-16.72 36.49,-12.16 39.52,-12.16 41.05,-9.13 42.57,-6.07 45.61,-6.09 45.61,-3.04 48.65,-1.52 69.93,3.04 66.9,7.61 63.85,12.16 59.29,16.72 57.77,22.8 53.22,27.37 50.16,31.93 47.13,36.48 41.05,42.57 38.01,45.61 30.41,50.17 25.84,54.73 19.76,59.29 13.69,62.34 7.6,68.41 3.04,72.98 H 5690.6 l -7.6,-36.49 -9.12,-33.45 -10.64,-31.92 -12.17,-28.89 -12.16,-27.37 -15.2,-24.32 -15.2,-22.81 -16.73,-19.76 -19.76,-18.24 -21.28,-15.21 -22.81,-12.16 -27.37,-10.64 -28.88,-9.12 -31.93,-6.08 -33.44,-3.04 -36.49,-1.53 -42.57,1.53 -39.53,6.08 -38.01,7.6 -33.44,12.16 -31.93,16.72 -28.88,18.25 -25.85,22.8 -22.8,25.85 -13.69,21.28 -13.68,24.33 -10.64,28.88 -9.12,31.93 -7.6,34.97 -7.61,38 -4.56,42.57 -3.04,45.61 -3.04,33.45 -1.52,38.01 v 44.08 48.65 156.6 69.93 l 1.89,26.49 c -39.59,-11.01 -78.79,-22.17 -157.92,-21.14 -26.13,0.98 -76.7,8.56 -98.28,17.39 -7.92,3.25 -11.06,5.96 -14.6,8.95 -7.52,6.34 -8.73,5.11 -5.97,16.49 l 3.43,11.1 c 18.24,74.11 67.18,117.76 141.2,136.69 14.14,3.62 28.4,9.7 42.22,11.89 12.32,6.77 51.65,6.45 59.17,16.5 -1.58,7.63 -3.33,14.02 -4.4,23.36 -1.05,9.26 -4.04,16.05 -4.31,21.37 -3.04,4.49 -2.93,4.82 -1.65,15.51 l 2.46,24.46 -3.53,8.03 c -10.84,25.57 -33.79,43.81 -44.75,69.48 -5.64,13.17 -3.66,29.76 10.1,35.96 3.53,3.77 20.27,8.16 25.99,7.94 l 1.5,3.82 c 1.43,23.58 -3.22,25.38 -8.02,42.31 -2.59,11.93 7.34,9.9 10.15,10.64 l 10.98,0.93 c 7,0.79 6.63,0.03 8.99,6.57 -6.05,1.85 -28.51,8.69 -28.71,9.69 -1.22,6.1 1.43,9.52 4.86,14.34 2.1,2.94 3.69,3.93 6.02,5.79 3.07,5.84 8.74,18.76 11.1,26.33 0.46,7.31 0.53,28.19 3.54,33.51 7.48,13.24 30.76,45.63 63.46,27.83 193.87,-47.32 377.1,48.71 415.5,-14.85 36.49,-60.39 -105.05,-188.85 62.59,-77.44 0.68,0.23 17.66,9.87 27.7,14.91 83.65,40.35 87,73.37 182.96,32.21 43.84,-18.46 27.94,-44.5 9.07,-85.68 -22.35,-48.79 -66.52,-95.99 -101.73,-137.91 l -35.44,-34.19 0.39,-0.66 15.2,-28.88 13.69,-33.45 10.64,-34.97 10.64,-39.52 9.12,-42.57 6.08,-47.13 z"
   id="path1658" />
  <g
   clip-path="url(#id2)"
   id="g1661">
   <g
   id="_1368660024240">
   </g>
  </g>
  <path
   id="_1_0"
   class="fil1 str0"
   d="m 5699.72,11469 h 325.35 l -3.04,83.62 -7.6,77.53 -13.68,72.97 -18.25,68.42 -24.32,63.85 -28.89,57.78 -34.97,54.73 -41.05,47.12 -44.08,44.09 -50.17,36.49 -53.21,31.93 -59.3,25.84 -62.33,21.29 -66.89,13.68 -71.46,9.12 -76.01,3.04 -42.57,-1.52 -41.05,-1.52 -39.53,-4.56 -38,-6.08 -38.01,-6.08 -34.97,-9.12 -34.97,-10.65 -31.92,-12.16 -31.93,-13.68 -30.41,-13.68 -28.88,-16.73 -27.37,-18.24 -25.84,-19.76 -25.85,-21.29 -22.8,-22.8 -22.81,-25.85 -21.28,-25.84 -18.24,-27.37 -18.25,-28.89 -16.72,-30.4 -16.73,-33.45 -13.68,-33.44 -12.16,-34.97 -12.16,-38.01 -9.12,-38.01 -9.13,-41.05 -7.6,-42.56 -6.08,-42.57 -4.56,-45.61 -3.04,-45.61 -3.04,-48.65 v -50.17 -150.51 l 1.52,-79.06 4.56,-72.97 6.08,-71.46 9.12,-66.89 13.69,-62.33 15.2,-59.3 16.72,-56.25 21.29,-51.69 22.8,-47.13 27.37,-45.61 28.88,-39.53 31.93,-38 33.45,-33.45 38,-28.88 39.53,-25.85 42.57,-21.29 36.49,-16.72 36.49,-12.16 39.52,-12.16 41.05,-9.13 42.57,-6.07 45.61,-6.09 45.61,-3.04 48.65,-1.52 69.93,3.04 66.9,7.61 63.85,12.16 59.29,16.72 57.77,22.8 53.22,27.37 50.16,31.93 47.13,36.48 41.05,42.57 38.01,45.61 30.41,50.17 25.84,54.73 19.76,59.29 13.69,62.34 7.6,68.41 3.04,72.98 H 5690.6 l -7.6,-36.49 -9.12,-33.45 -10.64,-31.92 -12.17,-28.89 -12.16,-27.37 -15.2,-24.32 -15.2,-22.81 -16.73,-19.76 -19.76,-18.24 -21.28,-15.21 -22.81,-12.16 -27.37,-10.64 -28.88,-9.12 -31.93,-6.08 -33.44,-3.04 -36.49,-1.53 -42.57,1.53 -39.53,6.08 -38.01,7.6 -33.44,12.16 -31.93,16.72 -28.88,18.25 -25.85,22.8 -22.8,25.85 -13.69,21.28 -13.68,24.33 -10.64,28.88 -9.12,31.93 -7.6,34.97 -7.61,38 -4.56,42.57 -3.04,45.61 -3.04,33.45 -1.52,38.01 v 44.08 48.65 156.6 69.93 l 1.89,26.49 c -39.59,-11.01 -78.79,-22.17 -157.92,-21.14 -26.13,0.98 -76.7,8.56 -98.28,17.39 -7.92,3.25 -11.06,5.96 -14.6,8.95 -7.52,6.34 -8.73,5.11 -5.97,16.49 l 3.43,11.1 c 18.24,74.11 67.18,117.76 141.2,136.69 14.14,3.62 28.4,9.7 42.22,11.89 12.32,6.77 51.65,6.45 59.17,16.5 -1.58,7.63 -3.33,14.02 -4.4,23.36 -1.05,9.26 -4.04,16.05 -4.31,21.37 -3.04,4.49 -2.93,4.82 -1.65,15.51 l 2.46,24.46 -3.53,8.03 c -10.84,25.57 -33.79,43.81 -44.75,69.48 -5.64,13.17 -3.66,29.76 10.1,35.96 3.53,3.77 20.27,8.16 25.99,7.94 l 1.5,3.82 c 1.43,23.58 -3.22,25.38 -8.02,42.31 -2.59,11.93 7.34,9.9 10.15,10.64 l 10.98,0.93 c 7,0.79 6.63,0.03 8.99,6.57 -6.05,1.85 -28.51,8.69 -28.71,9.69 -1.22,6.1 1.43,9.52 4.86,14.34 2.1,2.94 3.69,3.93 6.02,5.79 3.07,5.84 8.74,18.76 11.1,26.33 0.46,7.31 0.53,28.19 3.54,33.51 7.48,13.24 30.76,45.63 63.46,27.83 193.87,-47.32 377.1,48.71 415.5,-14.85 36.49,-60.39 -105.05,-188.85 62.59,-77.44 0.68,0.23 17.66,9.87 27.7,14.91 83.65,40.35 87,73.37 182.96,32.21 43.84,-18.46 27.94,-44.5 9.07,-85.68 -22.35,-48.79 -66.52,-95.99 -101.73,-137.91 l -35.44,-34.19 0.39,-0.66 15.2,-28.88 13.69,-33.45 10.64,-34.97 10.64,-39.52 9.12,-42.57 6.08,-47.13 z" />
  <g
   clip-path="url(#id3)"
   id="g1665">
   <path
   id="_2_1"
   class="fil2 str1"
   d="m 4681.12,10353.09 1343.95,1827.41 m 0,-1827.41 -1343.95,1827.41" />
  </g>
  <path
   class="fil2 str3"
   d="m 5114.45,11479.01 c 36.68,-49.74 114.55,-179.99 166.7,-156.58 92.31,48.24 189.56,84.04 270.29,153.42 15.41,13.25 31.77,32.41 45.98,47.52 5.68,6.05 12.11,12.6 12.24,21.03 l -0.31,3.74 -0.17,4.27 c -16.27,33.61 -39.03,84.98 -55.73,114.63 -3.4,7.94 -1.43,6.15 -8.54,9.08 l 5.09,2.93 c 10.68,11.11 43.83,35.71 55.61,45.46 6.63,5.19 8.47,6.54 14.86,13.17 l 42.85,41.34 c 35.21,41.92 79.38,89.12 101.73,137.91 18.87,41.18 34.77,67.22 -9.07,85.68 -95.96,41.16 -99.31,8.14 -182.96,-32.21 -10.04,-5.04 -27.02,-14.68 -27.7,-14.91 -167.64,-111.42 -26.1,17.05 -62.59,77.44 -38.4,63.56 -221.63,-32.47 -415.5,14.85 -32.7,17.8 -55.98,-14.59 -63.47,-27.83 -3,-5.32 -3.07,-26.19 -3.53,-33.51 -2.36,-7.57 -8.03,-20.49 -11.1,-26.33 -2.33,-1.86 -3.92,-2.85 -6.02,-5.79 -3.43,-4.82 -6.08,-8.24 -4.86,-14.34 0.2,-1 22.66,-7.84 28.71,-9.69 -2.36,-6.54 -1.99,-5.78 -8.99,-6.57 l -10.98,-0.93 c -2.81,-0.74 -12.74,1.29 -10.15,-10.64 4.8,-16.93 9.45,-18.73 8.02,-42.31 l -1.5,-3.81 c -5.72,0.21 -22.46,-4.18 -25.99,-7.96 -13.76,-6.19 -15.74,-22.78 -10.1,-35.95 10.96,-25.67 33.91,-43.91 44.75,-69.48 l 3.53,-8.03 -2.46,-24.46 c -1.28,-10.69 -1.39,-11.02 1.65,-15.51 0.27,-5.32 3.26,-12.11 4.31,-21.37 1.07,-9.34 2.82,-15.73 4.4,-23.35 -7.52,-10.06 -46.84,-9.75 -59.17,-16.51 -13.82,-2.19 -28.09,-8.27 -42.22,-11.89 -74.02,-18.93 -122.96,-62.58 -141.2,-136.69 l -3.43,-11.1 c -2.76,-11.38 -1.55,-10.15 5.97,-16.49 3.54,-2.99 6.68,-5.7 14.6,-8.95 21.58,-8.83 72.15,-16.41 98.28,-17.39 126.54,-1.64 150.96,27.86 238.17,38.11 z"
   id="path1667" />
  <path
   class="fil0"
   d="m 4570.97,12165.3 h -405.93 -180.21 c 8.27,0 7.28,-4.78 7.86,-12.69 l 42.03,-33 39.64,16.4 c 17.55,-16.33 62.18,1.7 62.18,-45.26 17.01,-4.24 31.44,-7.95 40.35,-21.41 l -3.05,-13.2 c 23.03,-13.04 47.26,-3.2 48.49,-38.74 l 33.19,-39.1 -1.44,-5.4 -19.36,-40.15 c 0,-21.77 -25.28,-48.82 -37.34,-79.21 -15.87,-40.02 -36.78,-79.67 -48.41,-98.26 0,-22.16 -2.8,-13.66 -6.55,-27.6 -1.6,-5.96 -1.76,-25.37 -2.77,-31.64 -3.47,-21.36 -10.71,-37.28 -10.63,-57.84 0.12,-34.73 -19.56,-87.48 -39.74,-93.25 3,-7.78 -11.46,-22.48 -16.29,-33.14 -5.86,-12.91 -9.41,-27.38 -15.54,-39.29 -6.79,-13.19 -47.03,-53.66 -55.22,-50.04 -3.66,-14.69 -26.81,-29.76 -35.85,-44.16 -13.85,-22.04 -16.14,-38.49 -26.34,-57 -9.92,-18.01 -21.1,-32.91 -38.88,-43.57 -8.85,-5.3 -46.51,-26.69 -53.12,-28.34 v -23.96 c 0,-19.14 -44.77,-41.77 -44.77,-82.53 v -10.65 c 0,-22.69 7.74,-31.76 14.17,-48.73 8.73,-23.08 3.65,-24.35 17.2,-45.49 8.44,-13.18 40.76,-70.68 50.7,-73.52 0.6,-28.74 17.41,-31.19 17.41,-53.25 0,-15.61 -17.11,-17.46 -22.91,-26.06 -0.62,-0.9 -14.1,-33.83 -14.4,-35.18 -29.48,-2.62 -49.74,-22.24 -49.74,-55.91 v -13.31 c 0,-24.03 17.85,-51.35 27.36,-66.56 0,-15.67 -8.5,-42.05 -7.82,-50.64 l 12.8,-117.1 c 1.52,-12.58 -7.77,-37.79 -12.44,-45.26 -15.58,0 -19.32,0.78 -22.39,-13.31 h -9.94 c -4.62,18.51 -67.86,41.24 -86.61,67.03 -10.16,13.97 -22.68,30.88 -31.1,46.58 -14.48,26.98 -19.08,22.89 -19.08,56.79 -4.75,7.58 -20.69,34.61 -29.85,34.61 -19.57,0 -35.59,-13.31 -59.69,-13.31 h -12.44 c -6.71,0 -6.85,1.27 -12.43,2.66 -0.31,14.97 -18.24,21.25 -28.86,38.33 -9.32,15 -14.22,28.62 -24.33,43.18 -6.69,9.63 -56.24,75.92 -56.24,80.9 0,24.53 19.89,54.5 19.89,85.2 11.29,4.37 12.44,21.1 12.44,37.27 0,6.15 -27.6,33.89 -32.33,37.28 0,22.4 -3.98,17.06 -17.41,23.96 2.66,10.67 9.94,13.89 9.94,26.62 0,28.71 -12.43,62.25 -12.43,69.23 0,20.68 24.87,64.07 24.87,87.86 0,12.75 -27.95,31.38 -34.78,45.68 l 32.3,-3.08 h 12.43 c 13.33,0 28.71,15.97 57.21,15.97 3,4.81 4.97,4.68 4.97,10.65 0,1.21 -10.93,57.86 -11.52,59.56 -8.1,23.79 -34.11,16.5 -48.3,25.51 -6.74,4.28 -23.94,34.45 -31.54,43.44 -9.56,11.29 -28.02,28 -28.02,47.21 0,6.38 10.41,15.14 13.4,22.99 3.23,8.49 -0.97,22.51 -0.97,35.59 v 13.31 h 17.41 c 11.05,0 10.11,27.44 14.9,39.97 7.57,19.82 13.38,19.8 24.9,26.59 7.78,6.02 -0.35,9.16 12.33,16.2 10.97,6.09 10.87,-2.88 27.14,2.73 28.98,9.97 29.78,-2.26 42.6,26.34 -15.2,24.29 -45.59,34.69 -66.16,64.96 -10.21,15.03 -17.76,26.77 -17.1,44.84 0.84,22.83 -13.74,45.71 -13.74,49.94 v 5.33 c 0,4.08 10.2,20.39 12.44,23.96 0,40.51 14.92,25.91 14.92,47.93 v 5.32 c 0,10.24 -14.01,8 -21.65,24.75 -5.18,11.36 -6.52,25.18 -18.14,28.5 5.67,14.7 8.07,11.76 28.35,20.24 10.92,4.57 33.51,9.62 40.66,15.05 20.6,15.65 43.93,31.14 75.24,33.93 -0.91,11.75 -4.98,11.65 -4.98,18.64 0,34.77 22.05,60.05 42.16,73.84 l 12.56,-1.95 v -21.3 c 12.57,-4.87 30.39,-35.95 35.76,-52.25 3.98,-12.09 40.73,-32.95 56.26,-32.95 h 49.75 c 10.44,0 24.87,11.8 24.87,21.3 v 10.65 c 0,11.63 -4.98,9.67 -4.98,21.3 l -0.1,8.66 49.85,7.32 h 4.97 c 21.03,0 33.19,-13.62 34.82,-34.62 l 7.45,0.08 42.29,2.58 c 0.82,10.58 2.49,6.42 2.49,13.32 0,17 -17.41,11.39 -17.41,39.93 l -5.7,0.78 -4.25,9.87 c 8.88,13.7 15.45,28.53 30.58,36.49 14.85,7.81 31.13,15.55 31.6,38.06 H 3563 3211.8 v -1410.85 l 1.53,-48.65 4.56,-45.61 7.6,-41.04 9.12,-38.02 13.68,-34.96 16.73,-31.93 18.24,-28.88 21.28,-24.33 25.85,-21.28 28.89,-19.77 33.45,-15.2 36.48,-12.16 41.05,-10.64 45.61,-7.61 48.65,-4.56 53.21,-1.52 h 297.98 l 65.37,3.04 60.81,7.6 59.3,13.69 54.73,16.72 50.17,22.81 48.65,28.88 44.09,31.93 41.05,38.01 38,42.56 31.93,45.62 27.37,47.12 21.28,50.17 16.72,53.21 13.69,54.73 6.08,59.3 3.04,60.81 -1.52,44.09 -4.56,42.57 -7.6,42.57 -9.13,39.53 -13.68,38 -16.72,38.01 -19.76,34.97 -21.29,33.44 -24.33,31.93 -25.84,28.89 -27.37,27.36 -28.88,24.33 -28.89,21.28 -31.92,19.77 -31.93,15.2 -34.97,15.2 z"
   id="path1669" />
  <g
   clip-path="url(#id4)"
   id="g1673">
   <g
   id="_1368660020304">
    <path
   id="_1_2"
   class="fil2"
   d="m 3387.4,12165.3 c -139.82,-175.71 -53.19,-684.86 -53.19,-953.81 0,-254.04 -43.69,-528.31 51.03,-688.15 104.47,-176.29 312.32,-82.57 550.11,-82.57 183.42,0 177.37,-8.69 322.31,123.09 88.91,80.82 411.31,301.5 342.7,406.29 -41.38,63.2 -326.62,223.04 -181.32,178.15 112.3,0 203.33,107.26 203.33,239.54 v 394.57 c 0,63.58 -21.42,124.48 -59.55,169.42 -155.31,183.04 -361.8,283.77 -581.42,283.77" />
   </g>
  </g>
  <path
   class="fil1"
   d="m 4570.97,12165.3 h -405.93 -180.21 c 8.27,0 7.28,-4.78 7.86,-12.69 l 42.03,-33 39.64,16.4 c 17.55,-16.33 62.18,1.7 62.18,-45.26 17.01,-4.24 31.44,-7.95 40.35,-21.41 l -3.05,-13.2 c 23.03,-13.04 47.26,-3.2 48.49,-38.74 l 33.19,-39.1 -1.44,-5.4 -19.36,-40.15 c 0,-21.77 -25.28,-48.82 -37.34,-79.21 -15.87,-40.02 -36.78,-79.67 -48.41,-98.26 0,-22.16 -2.8,-13.66 -6.55,-27.6 -1.6,-5.96 -1.76,-25.37 -2.77,-31.64 -3.47,-21.36 -10.71,-37.28 -10.63,-57.84 0.12,-34.73 -19.56,-87.48 -39.74,-93.25 3,-7.78 -11.46,-22.48 -16.29,-33.14 -5.86,-12.91 -9.41,-27.38 -15.54,-39.29 -6.79,-13.19 -47.03,-53.66 -55.22,-50.04 -3.66,-14.69 -26.81,-29.76 -35.85,-44.16 -13.85,-22.04 -16.14,-38.49 -26.34,-57 -9.92,-18.01 -21.1,-32.91 -38.88,-43.57 -8.85,-5.3 -46.51,-26.69 -53.12,-28.34 v -23.96 c 0,-19.14 -44.77,-41.77 -44.77,-82.53 v -10.65 c 0,-22.69 7.74,-31.76 14.17,-48.73 8.73,-23.08 3.65,-24.35 17.2,-45.49 8.44,-13.18 40.76,-70.68 50.7,-73.52 0.6,-28.74 17.41,-31.19 17.41,-53.25 0,-15.61 -17.11,-17.46 -22.91,-26.06 -0.62,-0.9 -14.1,-33.83 -14.4,-35.18 -29.48,-2.62 -49.74,-22.24 -49.74,-55.91 v -13.31 c 0,-24.03 17.85,-51.35 27.36,-66.56 0,-15.67 -8.5,-42.05 -7.82,-50.64 l 12.8,-117.1 c 1.52,-12.58 -7.77,-37.79 -12.44,-45.26 -15.58,0 -19.32,0.78 -22.39,-13.31 h -9.94 c -4.62,18.51 -67.86,41.24 -86.61,67.03 -10.16,13.97 -22.68,30.88 -31.1,46.58 -14.48,26.98 -19.08,22.89 -19.08,56.79 -4.75,7.58 -20.69,34.61 -29.85,34.61 -19.57,0 -35.59,-13.31 -59.69,-13.31 h -12.44 c -6.71,0 -6.85,1.27 -12.43,2.66 -0.31,14.97 -18.24,21.25 -28.86,38.33 -9.32,15 -14.22,28.62 -24.33,43.18 -6.69,9.63 -56.24,75.92 -56.24,80.9 0,24.53 19.89,54.5 19.89,85.2 11.29,4.37 12.44,21.1 12.44,37.27 0,6.15 -27.6,33.89 -32.33,37.28 0,22.4 -3.98,17.06 -17.41,23.96 2.66,10.67 9.94,13.89 9.94,26.62 0,28.71 -12.43,62.25 -12.43,69.23 0,20.68 24.87,64.07 24.87,87.86 0,12.75 -27.95,31.38 -34.78,45.68 l 32.3,-3.08 h 12.43 c 13.33,0 28.71,15.97 57.21,15.97 3,4.81 4.97,4.68 4.97,10.65 0,1.21 -10.93,57.86 -11.52,59.56 -8.1,23.79 -34.11,16.5 -48.3,25.51 -6.74,4.28 -23.94,34.45 -31.54,43.44 -9.56,11.29 -28.02,28 -28.02,47.21 0,6.38 10.41,15.14 13.4,22.99 3.23,8.49 -0.97,22.51 -0.97,35.59 v 13.31 h 17.41 c 11.05,0 10.11,27.44 14.9,39.97 7.57,19.82 13.38,19.8 24.9,26.59 7.78,6.02 -0.35,9.16 12.33,16.2 10.97,6.09 10.87,-2.88 27.14,2.73 28.98,9.97 29.78,-2.26 42.6,26.34 -15.2,24.29 -45.59,34.69 -66.16,64.96 -10.21,15.03 -17.76,26.77 -17.1,44.84 0.84,22.83 -13.74,45.71 -13.74,49.94 v 5.33 c 0,4.08 10.2,20.39 12.44,23.96 0,40.51 14.92,25.91 14.92,47.93 v 5.32 c 0,10.24 -14.01,8 -21.65,24.75 -5.18,11.36 -6.52,25.18 -18.14,28.5 5.67,14.7 8.07,11.76 28.35,20.24 10.92,4.57 33.51,9.62 40.66,15.05 20.6,15.65 43.93,31.14 75.24,33.93 -0.91,11.75 -4.98,11.65 -4.98,18.64 0,34.77 22.05,60.05 42.16,73.84 l 12.56,-1.95 v -21.3 c 12.57,-4.87 30.39,-35.95 35.76,-52.25 3.98,-12.09 40.73,-32.95 56.26,-32.95 h 49.75 c 10.44,0 24.87,11.8 24.87,21.3 v 10.65 c 0,11.63 -4.98,9.67 -4.98,21.3 l -0.1,8.66 49.85,7.32 h 4.97 c 21.03,0 33.19,-13.62 34.82,-34.62 l 7.45,0.08 42.29,2.58 c 0.82,10.58 2.49,6.42 2.49,13.32 0,17 -17.41,11.39 -17.41,39.93 l -5.7,0.78 -4.25,9.87 c 8.88,13.7 15.45,28.53 30.58,36.49 14.85,7.81 31.13,15.55 31.6,38.06 H 3563 3211.8 v -1410.85 l 1.53,-48.65 4.56,-45.61 7.6,-41.04 9.12,-38.02 13.68,-34.96 16.73,-31.93 18.24,-28.88 21.28,-24.33 25.85,-21.28 28.89,-19.77 33.45,-15.2 36.48,-12.16 41.05,-10.64 45.61,-7.61 48.65,-4.56 53.21,-1.52 h 297.98 l 65.37,3.04 60.81,7.6 59.3,13.69 54.73,16.72 50.17,22.81 48.65,28.88 44.09,31.93 41.05,38.01 38,42.56 31.93,45.62 27.37,47.12 21.28,50.17 16.72,53.21 13.69,54.73 6.08,59.3 3.04,60.81 -1.52,44.09 -4.56,42.57 -7.6,42.57 -9.13,39.53 -13.68,38 -16.72,38.01 -19.76,34.97 -21.29,33.44 -24.33,31.93 -25.84,28.89 -27.37,27.36 -28.88,24.33 -28.89,21.28 -31.92,19.77 -31.93,15.2 -34.97,15.2 z"
   id="path1675" />
  <path
   class="fil4"
   d="m 3790.61,11973.65 -1.91,-1.96 c -7.13,-8.67 -12.93,-25.94 -12.82,-37.53 0.28,-31.92 13.3,-38.95 21.45,-59.09 2.95,-7.29 4.38,-12.79 5.35,-21.3 1.93,-17 -3.94,-30.89 -9.61,-43.24 8.45,8.22 13.84,23.65 15.12,38.87 1.35,16.03 -4.98,30.26 -11.43,41.69 -7.04,12.47 -13.31,21.13 -15.19,38.43 -0.91,8.4 -0.17,17.16 1.71,24.81 2.06,8.35 4.83,12.47 7.33,19.32 z m -43.51,-333.34 c 0,-4.97 0.25,-10.33 0.3,-15.4 0.03,-2.65 0.12,-4.33 0.79,-6.73 1.66,-5.93 1.46,-7.29 2.08,-13.07 l 3.33,-11.53 c 1.4,-2.67 0.79,-3.15 1.56,-5.81 0.88,-3.02 1.04,-2.37 1.69,-6.37 0.56,-3.45 1.35,-3.35 1.91,-5.43 2.1,-7.72 -1.08,-0.83 3.95,-10.95 l 5.25,-16.88 c 0.82,-2.54 1.88,-2.85 1.61,-5.69 -4.24,0.55 -3.7,3.38 -6.8,9.75 l -6.1,9.92 c -2.69,3.09 -0.82,2.75 -2.22,5.72 -1.64,3.46 -1.06,-0.09 -2.3,5.81 -0.66,3.12 -1.82,2.82 -2.58,5.25 -0.62,1.94 -0.06,1.55 -1,3.37 -3.14,6.06 -0.85,2.17 -2.09,5.96 -0.17,0.51 -1.08,2.21 -1.36,2.97 -2.95,7.98 -7.78,24.1 -8.24,31.85 -0.15,2.57 0.12,5.67 -0.13,8.03 -0.56,5.34 -1.63,-2.67 -1.63,15.39 0,3.78 1.54,5.97 1.66,10.46 0.12,4.93 2.4,23.94 3.89,27.07 l 3.68,14.85 c 0.19,2.99 0.4,2.31 1.75,4.33 1.58,2.35 0.49,1.91 1.71,4.4 1.65,3.4 0.98,0.03 1.42,4.81 0.25,2.8 0.76,2.57 1.97,4.25 1.96,2.73 0.75,2.05 1.39,4.84 0.67,2.87 1.07,1.02 2.19,3.94 1.21,3.17 -0.03,1.36 2.03,4.06 4.64,6.08 0.39,3.4 5.97,12.57 1.26,2.07 0.64,2.81 1.67,4.51 0.8,1.34 2.07,1.56 2.74,3.24 1.02,2.53 -0.44,2.09 1.61,4.67 4.78,6.02 1.85,0.97 3.93,8.28 0.75,2.63 3.26,4.91 4.28,8.19 0.59,1.89 0.69,2.91 1.36,4.72 2.2,5.87 0.99,6.59 2.49,9.88 1.61,3.51 1.46,11.84 0.91,16.16 -4.7,2.03 -8.24,2.59 -12.79,4.89 -11.6,5.89 -20.16,15.37 -27,26.63 -21.45,35.29 -21,87.21 1.77,121.23 7.72,11.53 24.6,29.44 45.56,29.44 h 5.54 c 19.33,0 37.04,-16.05 46.73,-31.35 10.68,-16.86 15.99,-37.98 16.01,-61.52 0.03,-30.23 -13,-65.36 -35.92,-80.39 -12.4,-8.13 -15.19,-7.76 -28.88,-10.01 -0.97,-3.23 -0.26,-8.82 -0.48,-12.5 -0.27,-4.59 -1.46,-6.5 -2.3,-10.36 l -8.35,-23.83 c -0.25,-0.62 -4.54,-7.26 -6.58,-12.6 -2.15,-5.62 -2.03,-1.63 -4.39,-8.63 -0.85,-2.51 -9.68,-17.48 -13.47,-30.09 l -8.58,-35.08 c -1.44,-8.96 -1.54,-17.52 -1.54,-27.22 z"
   id="path1677" />
  <path
   class="fil4"
   d="m 3674.37,11395.14 c 0.38,3.16 0.75,2.95 1.26,5.17 1.67,7.28 1,40.63 2.21,47.33 0.6,3.35 0.81,9.95 0.85,13.44 l 3.41,17.93 c 2.29,6.09 5.34,13.57 9.12,19.13 6.46,9.49 14.33,18.75 25.15,24.19 1.53,0.77 3.31,1.98 4.7,2.65 1.79,0.87 3.17,0.96 5,1.85 l 15.27,6.13 c 2.46,0.51 3.18,0.35 5.73,1.15 3.69,1.15 7.39,2.39 11.76,2.47 -0.68,-10.02 -4.47,-18.55 -6.13,-25.45 -1.54,-6.42 -6.27,-15.73 -9.06,-21 l -7.44,-12.92 c -5.68,-10.04 -17.51,-28.93 -23.82,-37.14 -1.7,-2.21 -7.9,-9.24 -8.61,-11.26 3.41,2.66 5.97,5.91 10.4,10.06 3.19,2.99 16.25,20.34 17.76,22.94 l 11.92,18.21 c 2.28,3.12 6.87,12.42 8.54,16.24 0.53,1.24 1.12,1.84 1.71,3.14 4.67,10.28 4.14,13.33 6.06,19.19 2.79,8.53 0.77,9.96 3.89,10.51 1.41,-2.62 -0.3,-2.02 2,-8.24 1.9,-5.15 3.97,-20.67 3.97,-26.54 -0.01,-25.6 -6.04,-29.75 -5.78,-34.21 -1.51,-1 -0.29,0.85 -1.75,-1.94 -0.52,-1 -0.22,-0.79 -0.6,-1.89 -0.78,-2.22 -0.69,-1.33 -1.74,-3.07 -5.93,-9.85 -3.95,-8.24 -12.93,-17.21 -2.92,-2.92 -6.91,-7.24 -10.76,-9.47 -7.73,-4.47 -11,-7.37 -18.74,-11.57 l -36.75,-23.05 c -2.17,-1.3 -3.17,-3.45 -6.52,-3.59 z"
   id="path1679" />
  <path
   class="fil4"
   d="m 3647.62,11628.12 c -5.64,-0.26 -14.96,-3.77 -18.48,-2.59 0.21,3.12 2.7,5.55 4.17,8.19 l 20.36,41.24 c 6.02,10.24 12.2,19.57 22.63,25.92 1.5,0.92 2.58,1.81 3.7,2.46 1.17,0.69 2.92,1.38 4.18,2.04 2.04,1.06 5.99,2.2 8.57,3.1 3.02,1.06 18.4,2.74 22.58,2.12 l 20.86,-3.14 c -0.45,-5.77 -17.21,-24.04 -23.18,-28.41 l -30.2,-21.53 c -2.61,-1.92 -20.94,-12.02 -21.24,-12.51 6.59,2.01 15.23,6.35 21.43,9.77 l 29.33,18.76 c 4.77,2.94 12.58,10.87 16.44,15.65 l 7.56,8.55 c 2.42,-3.63 -1.01,-12.57 -1.44,-14.67 -2.02,-9.88 -1.3,-4.18 -2.7,-8.99 -3.13,-10.75 -10.4,-20.03 -18.85,-26.77 l -9.91,-6.8 c -6.17,-3.45 -9.55,-4.7 -16.27,-6.43 z"
   id="path1681" />
  <path
   class="fil4"
   d="m 3814.92,11715.18 c -3.13,5.15 -10.71,15.49 -12.72,21.21 -0.96,2.72 -0.62,1.04 -1.64,3.25 l -5.02,14.15 c -3.39,10.29 2.4,7.84 9.66,5.96 3.16,-0.83 5.32,-0.55 8.34,-1.69 2.39,-0.9 4.47,-1.51 6.96,-2.31 17.08,-5.48 28.03,-17.09 35.68,-32.48 1.32,-2.67 1.19,-4.57 2.35,-6.98 l 3.84,-15.66 c 0.72,-5.95 0.42,-12.17 1.27,-17.88 1.56,-10.47 1.02,-11.09 1.9,-18.19 0.51,-4.15 2.41,-8.52 2.82,-16.37 -2.45,0.68 -5.94,3.37 -7.97,4.65 l -23.37,12.47 c -5.05,2.75 -10.55,5.38 -15.71,8.23 -16.2,8.94 -26.77,21.89 -32.31,39.74 -2.22,7.14 -2.54,13.71 -2.11,21.9 0.23,4.52 2.08,17.88 3.65,20.19 1.27,-1.48 5.32,-18.94 11.52,-27.77 6.38,-9.07 7.61,-12.39 16.04,-22.15 1.43,-1.65 1.87,-2.92 3.31,-4.67 l 10.95,-11.9 c 2.46,-3.3 4.86,-6.03 8.25,-7.63 z"
   id="path1683" />
  <path
   class="fil4"
   d="m 3816.66,11459.81 -0.68,0.4 c -0.09,0.04 -0.27,0.13 -0.38,0.18 l -8.86,3.95 c -13.41,8.66 -17.08,13.09 -25.29,25.85 -0.98,1.52 -1.45,2.76 -2.51,4.79 l -3.89,10.73 c -1.21,4.53 -1.41,22.51 -0.93,27.86 3,-0.63 4.19,-7.19 6.2,-10.1 7.58,-11 11.86,-17.03 21.71,-26.26 7.08,-6.64 28.84,-25.97 35.84,-28.09 l -26.79,24.13 c -1.93,2.5 -1.63,2.65 -3.85,4.83 -7.43,7.34 -13.09,12.62 -19.71,22.2 -2.83,4.1 -11.26,17.59 -10.72,21.67 5.5,1.22 17.72,-0.16 23.18,-0.8 11.67,-1.39 24.85,-6.43 33.63,-14.24 1.94,-1.72 4.45,-4.26 5.89,-6.35 6.12,-8.96 6.73,-8.22 11.19,-18.99 2.91,-7.01 5.33,-15.41 6.84,-22.88 0.86,-4.24 2.24,-5.67 2.93,-9.09 1.45,-7.15 6.31,-20.26 9.07,-26.73 -3.59,-0.31 -10.16,3.39 -13.29,4.49 -2.95,1.05 -3.64,0.73 -6.55,2.05 -1.99,0.91 -4.53,1.32 -6.51,2.16 -4.23,1.79 -8.17,2.24 -13.36,3.94 -2.53,0.83 -3.04,1.6 -6.11,2.32 -3.21,0.75 -3.68,1.57 -7.05,1.98 z"
   id="path1685" />
  <path
   class="fil3"
   d="m 6538.98,10730.22 c 0,161.52 58.4,245.88 206.22,245.88 77.88,0 149.27,-33.16 180.27,-105.99 v -155.04 h -147.82 v 83.65 h 62.01 v 34.61 c -19.46,39.66 -51.2,53.36 -88.69,53.36 -106.72,0 -105.28,-85.08 -106,-171.62 0,-86.52 0.72,-171.61 95.91,-171.61 56.24,0 91.57,25.24 91.57,85.81 h 93.74 c 0,-40.38 -8.65,-87.98 -39.66,-118.98 -36.05,-36.05 -87.25,-56.25 -145.65,-56.25 -129.08,0 -201.9,79.33 -201.9,212.72 z m 867.45,-38.94 c 0,-157.19 -62.74,-237.24 -204.06,-237.24 -144.22,0 -204.07,80.05 -204.07,236.52 v 37.49 c 0,175.23 59.85,248.05 204.07,248.05 142.04,0 204.06,-72.82 204.06,-245.88 z m -100.23,36.77 c 0,80.05 -9.37,158.64 -103.83,158.64 -97.35,0 -103.12,-80.04 -103.84,-158.64 v -26.68 c 0,-85.8 10.09,-157.91 103.84,-157.91 92.29,0 103.83,72.11 103.83,157.91 z m 560.27,95.91 c 0,-72.11 -39.65,-105.28 -70.66,-119.7 25.96,-12.26 63.45,-48.32 63.45,-105.28 0,-87.97 -47.59,-140.61 -147.81,-140.61 H 7494.4 v 381.45 c 0,98.07 43.99,131.96 156.47,131.96 h 69.23 c 91.57,0 146.37,-51.92 146.37,-147.82 z m -107.44,-221.37 c 0,31.73 -12.98,56.24 -55.52,56.24 h -108.88 v -111.05 h 108.88 c 42.54,0 55.52,23.08 55.52,54.81 z m 7.22,216.32 c 0,34.62 -10.82,63.46 -56.25,63.46 h -51.92 c -43.26,0 -63.45,-12.26 -63.45,-52.64 v -80.76 H 7710 c 45.43,0 56.25,28.12 56.25,69.94 z m 302.85,152.87 v -513.41 h -100.23 v 513.41 z m 457.89,0 v -89.41 h -174.5 c -47.6,0 -63.46,-12.26 -63.46,-53.37 v -71.38 h 159.36 l 7.21,-89.41 h -166.57 v -120.43 h 237.96 v -89.41 h -338.18 v 377.85 c 0,101.67 41.82,135.56 156.47,135.56 z m 486.73,0 -114.65,-206.95 c 49.75,-18.03 93.74,-69.95 93.74,-142.05 0,-93.02 -62.01,-164.41 -166.57,-164.41 h -85.09 c -85.81,0 -116.09,35.34 -116.09,110.33 v 403.08 h 100.23 v -190.36 h 72.11 l 100.23,190.36 z m -121.14,-349 c 0,39.65 -28.85,74.99 -72.83,74.99 h -94.46 v -104.56 c 0,-25.96 12.98,-45.43 44.7,-45.43 h 49.76 c 43.98,0 72.83,28.13 72.83,75 z m 604.26,-164.41 h -100.23 v 336.03 l -210.55,-336.03 h -96.63 v 513.41 h 100.23 v -329.53 l 177.38,277.61 c 28.85,51.92 59.13,57.69 81.48,57.69 25.96,0 48.32,-25.96 48.32,-57.69 z m 480.24,232.91 c 0,-157.19 -62.74,-237.24 -204.06,-237.24 -144.22,0 -204.07,80.05 -204.07,236.52 v 37.49 c 0,175.23 59.85,248.05 204.07,248.05 142.04,0 204.06,-72.82 204.06,-245.88 z m -100.23,36.77 c 0,80.05 -9.37,158.64 -103.83,158.64 -97.35,0 -103.12,-80.04 -103.84,-158.64 v -26.68 c 0,-85.8 10.09,-157.91 103.84,-157.91 92.29,0 103.83,72.11 103.83,157.91 z m 744.15,243.73 -114.65,-206.95 c 49.75,-18.03 93.74,-69.95 93.74,-142.05 0,-93.02 -62.01,-164.41 -166.57,-164.41 h -85.09 c -85.8,0 -116.09,35.34 -116.09,110.33 v 403.08 h 100.23 v -190.36 h 72.11 l 100.23,190.36 z m -121.14,-349 c 0,39.65 -28.85,74.99 -72.83,74.99 h -94.46 v -104.56 c 0,-25.96 12.98,-45.43 44.71,-45.43 h 49.75 c 43.98,0 72.83,28.13 72.83,75 z m 542.25,349 v -89.41 h -174.5 c -47.6,0 -63.46,-12.26 -63.46,-53.37 v -71.38 h 159.36 l 7.21,-89.41 h -166.57 v -120.43 h 237.96 v -89.41 h -338.18 v 377.85 c 0,101.67 41.82,135.56 156.47,135.56 z m 66.34,-241.56 c 0,161.52 58.41,245.88 206.23,245.88 77.87,0 149.26,-33.16 180.27,-105.99 v -155.04 h -147.82 v 83.65 h 62.01 v 34.61 c -19.47,39.66 -51.2,53.36 -88.69,53.36 -106.72,0 -105.28,-85.08 -106,-171.62 0,-86.52 0.72,-171.61 95.9,-171.61 56.25,0 91.58,25.24 91.58,85.81 h 93.74 c 0,-40.38 -8.66,-87.98 -39.66,-118.98 -36.05,-36.05 -87.25,-56.25 -145.66,-56.25 -129.07,0 -201.9,79.33 -201.9,212.72 z m 591.28,241.56 v -513.41 h -100.22 v 513.41 z m 496.11,-280.5 c 0,-157.19 -62.74,-237.24 -204.06,-237.24 -144.22,0 -204.07,80.05 -204.07,236.52 v 37.49 c 0,175.23 59.85,248.05 204.07,248.05 142.04,0 204.06,-72.82 204.06,-245.88 z m -100.23,36.77 c 0,80.05 -9.37,158.64 -103.83,158.64 -97.35,0 -103.12,-80.04 -103.84,-158.64 v -26.68 c 0,-85.8 10.09,-157.91 103.84,-157.91 92.29,0 103.83,72.11 103.83,157.91 z m 588.4,-269.68 h -100.23 v 336.03 l -210.55,-336.03 h -96.63 v 513.41 h 100.23 v -329.53 l 177.38,277.61 c 28.85,51.92 59.13,57.69 81.48,57.69 25.96,0 48.32,-25.96 48.32,-57.69 z m 493.22,513.41 -164.41,-470.14 c -12.98,-36.78 -29.57,-43.27 -52.64,-43.27 -24.52,0 -41.82,8.65 -56.96,43.27 l -164.41,470.14 h 104.56 l 28.12,-88.69 h 172.34 l 28.84,88.69 z m -156.48,-173.06 h -124.02 l 63.45,-203.34 z m 543.69,173.06 v -89.41 h -152.86 c -47.6,0 -63.46,-12.26 -63.46,-53.37 v -370.63 h -100.23 V 10829 c 0,101.68 49.03,142.78 163.69,142.78 z"
   id="path1687" />
  <path
   class="fil3"
   d="m 7037.45,11748.62 c -11.12,117.37 -37.07,195.21 -161.86,195.21 -155.67,0 -165.56,-127.26 -165.56,-245.87 v -76.6 c 0,-133.44 4.94,-265.63 165.56,-265.63 105.02,0 140.86,56.83 156.92,147.02 h 160.61 c 0,-202.62 -138.37,-300.23 -317.53,-300.23 -266.87,0 -337.3,185.33 -337.3,423.78 v 74.13 c 0,211.28 70.43,396.61 337.3,396.61 202.63,0 321.24,-122.32 321.24,-348.42 z m 972.35,341.01 -281.69,-805.57 c -22.24,-63.01 -50.66,-74.13 -90.2,-74.13 -42.01,0 -71.66,14.83 -97.6,74.13 l -281.71,805.57 h 179.16 l 48.18,-151.97 h 295.29 l 49.43,151.97 z m -268.1,-296.53 h -212.51 l 108.72,-348.42 z m 838.92,-583.17 h -171.74 v 607.88 c 0,101.31 -42.01,126.02 -126.02,126.02 -56.84,0 -121.09,-21 -149.5,-49.42 l -96.38,105.02 c 65.49,65.49 138.38,97.61 259.47,97.61 170.5,0 284.17,-72.9 284.17,-321.24 z m 848.8,879.7 -281.7,-805.57 c -22.24,-63.01 -50.65,-74.13 -90.19,-74.13 -42.01,0 -71.66,14.83 -97.61,74.13 l -281.7,805.57 h 179.15 l 48.19,-151.97 h 295.29 l 49.42,151.97 z M 9161.31,11793.1 H 8948.8 l 108.73,-348.42 z m 1039.08,-228.58 v 525.11 h 171.74 v -879.7 h -169.27 l -247.1,507.8 -248.35,-507.8 h -169.26 v 879.7 h 171.74 v -525.11 l 160.62,329.89 c 23.47,46.95 53.12,70.43 85.25,70.43 30.89,0 63.01,-21.01 86.48,-66.72 z m 1019.31,525.11 -281.7,-805.57 c -22.24,-63.01 -50.66,-74.13 -90.19,-74.13 -42.01,0 -71.66,14.83 -97.61,74.13 l -281.7,805.57 h 179.15 l 48.19,-151.97 h 295.29 l 49.42,151.97 z m -268.11,-296.53 h -212.51 l 108.73,-348.42 z m 1055.14,296.53 -196.45,-354.6 c 85.25,-30.89 160.62,-119.85 160.62,-243.4 0,-159.38 -106.26,-281.7 -285.41,-281.7 h -145.79 c -147.03,0 -198.92,60.54 -198.92,189.04 v 690.66 h 171.74 v -326.18 h 123.55 l 171.74,326.18 z m -207.57,-598 c 0,67.95 -49.42,128.49 -124.79,128.49 h -161.85 v -179.14 c 0,-44.48 22.24,-77.84 76.6,-77.84 h 85.25 c 75.37,0 124.79,48.18 124.79,128.49 z m 794.45,256.99 c -11.12,117.37 -37.07,195.21 -161.86,195.21 -155.68,0 -165.56,-127.26 -165.56,-245.87 v -76.6 c 0,-133.44 4.94,-265.63 165.56,-265.63 105.02,0 140.85,56.83 156.91,147.02 h 160.62 c 0,-202.62 -138.38,-300.23 -317.53,-300.23 -266.88,0 -337.3,185.33 -337.3,423.78 v 74.13 c 0,211.28 70.42,396.61 337.3,396.61 202.63,0 321.23,-122.32 321.23,-348.42 z m 972.35,341.01 -281.7,-805.57 c -22.24,-63.01 -50.65,-74.13 -90.19,-74.13 -42.01,0 -71.66,14.83 -97.61,74.13 l -281.7,805.57 h 179.15 l 48.19,-151.97 h 295.29 l 49.42,151.97 z m -268.11,-296.53 h -212.51 l 108.73,-348.42 z"
   id="path1689" />
 </g>
</svg>
