<?xml version="1.0" encoding="UTF-8" standalone="no"?>
<svg
   xmlns:dc="http://purl.org/dc/elements/1.1/"
   xmlns:cc="http://creativecommons.org/ns#"
   xmlns:rdf="http://www.w3.org/1999/02/22-rdf-syntax-ns#"
   xmlns:svg="http://www.w3.org/2000/svg"
   xmlns="http://www.w3.org/2000/svg"
   xmlns:xlink="http://www.w3.org/1999/xlink"
   xmlns:sodipodi="http://sodipodi.sourceforge.net/DTD/sodipodi-0.dtd"
   xmlns:inkscape="http://www.inkscape.org/namespaces/inkscape"
   xml:space="preserve"
   width="55mm"
   height="55mm"
   version="1.1"
   style="clip-rule:evenodd;fill-rule:evenodd;image-rendering:optimizeQuality;shape-rendering:geometricPrecision;text-rendering:geometricPrecision"
   viewBox="0 0 5500 5500"
   id="svg1289"
   sodipodi:docname="icono_officegrc.svg"
   inkscape:version="1.0.2 (e86c870879, 2021-01-15, custom)"><metadata
   id="metadata1293"><rdf:RDF><cc:Work
       rdf:about=""><dc:format>image/svg+xml</dc:format><dc:type
         rdf:resource="http://purl.org/dc/dcmitype/StillImage" /><dc:title></dc:title></cc:Work></rdf:RDF></metadata><sodipodi:namedview
   pagecolor="#ffffff"
   bordercolor="#666666"
   borderopacity="1"
   objecttolerance="10"
   gridtolerance="10"
   guidetolerance="10"
   inkscape:pageopacity="0"
   inkscape:pageshadow="2"
   inkscape:window-width="1920"
   inkscape:window-height="1001"
   id="namedview1291"
   showgrid="false"
   fit-margin-top="0"
   fit-margin-left="0"
   fit-margin-right="0"
   fit-margin-bottom="0"
   inkscape:zoom="2.9576319"
   inkscape:cx="47.126682"
   inkscape:cy="90.439515"
   inkscape:window-x="2391"
   inkscape:window-y="-9"
   inkscape:window-maximized="1"
   inkscape:current-layer="svg1289"
   inkscape:document-rotation="0" />
 <defs
   id="defs1243">
  <style
   type="text/css"
   id="style1228">
   <![CDATA[
    .fil5 {fill:#6AA9FF;fill-rule:nonzero}
    .fil4 {fill:#7ED8F6;fill-rule:nonzero}
    .fil1 {fill:#DFE7F4;fill-rule:nonzero}
    .fil0 {fill:#F0F7FF;fill-rule:nonzero}
    .fil7 {fill:#F0F7FF;fill-rule:nonzero}
    .fil6 {fill:url(#id0)}
    .fil2 {fill:url(#id1)}
    .fil3 {fill:url(#id2)}
   ]]>
  </style>
  <linearGradient
   id="id0"
   gradientUnits="userSpaceOnUse"
   x1="16323.79"
   y1="12403.16"
   x2="16122.8"
   y2="10009.6">
   <stop
   offset="0"
   style="stop-opacity:1; stop-color:#1A73FF"
   id="stop1230" />
   <stop
   offset="0.52549"
   style="stop-opacity:1; stop-color:#1972FD"
   id="stop1232" />
   <stop
   offset="0.690196"
   style="stop-opacity:1; stop-color:#1870FB"
   id="stop1234" />
   <stop
   offset="0.811765"
   style="stop-opacity:1; stop-color:#0C5CDA"
   id="stop1236" />
   <stop
   offset="1"
   style="stop-opacity:1; stop-color:#0047B8"
   id="stop1238" />
  </linearGradient>
  <linearGradient
   id="id1"
   gradientUnits="userSpaceOnUse"
   xlink:href="#id0"
   x1="15891.85"
   y1="6766.9399"
   x2="16554.721"
   y2="14447.99">
  </linearGradient>
  <linearGradient
   id="id2"
   gradientUnits="userSpaceOnUse"
   xlink:href="#id0"
   x1="19373.279"
   y1="12275.62"
   x2="15143.13"
   y2="8939.3096">
  </linearGradient>
 <linearGradient
   inkscape:collect="always"
   xlink:href="#id0"
   id="linearGradient1856"
   gradientUnits="userSpaceOnUse"
   x1="16323.79"
   y1="12403.16"
   x2="16122.8"
   y2="10009.6" /></defs>
 <g
   id="Capa_x0020_1"
   transform="translate(-13465.649,-6648.6932)">
  <metadata
   id="CorelCorpID_0Corel-Layer" />
  <g
   id="_2827187405360">
   <path
   class="fil0"
   d="m 17953.88,7227.82 v 3998.36 c 0,79.52 -63.45,143.96 -141.75,143.96 h -3177.69 c -78.31,0 -141.76,-64.44 -141.76,-143.96 V 7227.82 c 0,-79.53 63.45,-143.97 141.76,-143.97 l 3177.69,0.01 c 78.31,0 141.76,64.44 141.76,143.96 z"
   id="path1246" />
  </g>
  <path
   class="fil1"
   d="m 17953.88,7227.82 v 3998.36 c 0,79.52 -63.45,143.96 -141.75,143.96 H 16223.39 V 7083.86 h 1588.74 c 78.31,0 141.76,64.44 141.76,143.96 z"
   id="path1249" />
  <path
   class="fil2"
   d="m 18123.45,6860.37 h -3800.32 c -93.6,0 -169.56,75.96 -169.56,169.56 v 4708.34 c 0,93.6 75.96,169.56 169.56,169.56 h 3800.32 c 93.59,0 169.55,-75.97 169.55,-169.56 V 7029.92 c 0,-93.6 -75.96,-169.56 -169.55,-169.56 z m -169.56,4708.34 H 14492.68 V 7199.48 h 3461.21 z"
   id="path1251"
   style="fill:url(#id1)" />
  <path
   class="fil3"
   d="m 18293,7029.93 v 4708.34 c 0,93.6 -75.96,169.56 -169.56,169.56 H 16223.4 v -339.12 h 1730.49 V 7199.48 H 16223.4 v -339.11 h 1900.05 c 93.59,0 169.55,75.96 169.55,169.56 z"
   id="path1253"
   style="fill:url(#id2)" />
  <g
   id="_2827187403440">
   <path
   class="fil4"
   d="m 16490.79,7876.48 c 0,93.6 -69.6,169.56 -155.58,169.56 h -1228.7 c -85.88,0 -155.59,-75.96 -155.59,-169.56 0,-93.59 69.71,-169.55 155.59,-169.55 h 1228.7 c 85.99,0 155.59,75.96 155.59,169.56 z"
   id="path1255" />
  </g>
  <g
   id="_2827187405024">
   <path
   class="fil4"
   d="m 16490.79,9573.82 c 0,93.6 -69.6,169.56 -155.58,169.56 h -1228.7 c -85.88,0 -155.59,-75.96 -155.59,-169.56 0,-93.6 69.71,-169.56 155.59,-169.56 h 1228.7 c 85.99,0 155.59,75.97 155.59,169.56 z"
   id="path1258" />
  </g>
  <g
   id="_2827187402816">
   <path
   class="fil4"
   d="m 16490.79,9573.82 c 0,93.6 -69.6,169.56 -155.58,169.56 h -1228.7 c -85.88,0 -155.59,-75.96 -155.59,-169.56 0,-93.6 69.71,-169.56 155.59,-169.56 h 1228.7 c 85.99,0 155.59,75.97 155.59,169.56 z"
   id="path1261" />
  </g>
  <g
   id="_2827187402768">
   <path
   class="fil4"
   d="m 17513.35,8705.9 c 0,93.59 -69.84,169.55 -156.13,169.55 h -2250.06 c -86.29,0 -156.13,-75.96 -156.13,-169.55 0,-93.71 69.84,-169.56 156.13,-169.56 h 2250.06 c 86.29,0 156.13,75.85 156.13,169.56 z"
   id="path1264" />
  </g>
  <path
   class="fil5"
   d="m 16332.59,8046.04 h -109.18 v -339.11 h 109.18 c 87.45,0 158.23,75.96 158.23,169.56 0,93.6 -70.78,169.56 -158.23,169.56 z"
   id="path1267" />
  <path
   class="fil5"
   d="m 16332.59,9743.38 h -109.18 v -339.12 h 109.18 c 87.45,0 158.23,75.97 158.23,169.56 0,93.6 -70.78,169.56 -158.23,169.56 z"
   id="path1269" />
  <path
   class="fil5"
   d="m 16332.59,9743.38 h -109.18 v -339.12 h 109.18 c 87.45,0 158.23,75.97 158.23,169.56 0,93.6 -70.78,169.56 -158.23,169.56 z"
   id="path1271" />
  <path
   class="fil5"
   d="m 17521.73,8705.9 c 0,93.59 -70.78,169.55 -158.23,169.55 h -1140.09 v -339.11 h 1140.09 c 87.45,0 158.23,75.85 158.23,169.56 z"
   id="path1273" />
  <g
   id="_2827187402096">
   <path
   class="fil5"
   d="m 17363.53,9743.38 h -397.98 c -87.38,0 -158.23,-75.92 -158.23,-169.56 0,-93.65 70.84,-169.56 158.23,-169.56 h 397.98 c 87.38,0 158.23,75.92 158.23,169.56 0,93.65 -70.84,169.56 -158.23,169.56 z"
   id="path1275" />
  </g>
  <g
   id="_2827187401088">
   <path
   class="fil5"
   d="m 17363.53,9743.38 h -397.98 c -87.38,0 -158.23,-75.92 -158.23,-169.56 0,-93.65 70.84,-169.56 158.23,-169.56 h 397.98 c 87.38,0 158.23,75.92 158.23,169.56 0,93.65 -70.84,169.56 -158.23,169.56 z"
   id="path1278" />
  </g>
  <rect
   class="fil6"
   x="14492.49"
   y="10157.06"
   width="3461.5701"
   height="1413.47"
   id="rect1281"
   style="fill:url(#linearGradient1856)" />
  <path
   class="fil7"
   d="m 15695.59,11347.23 c 0,35.47 -6.29,61.79 -18.88,78.94 -12.58,17.17 -32.6,33.76 -60.06,49.77 -16.01,9.15 -36.03,18.02 -60.06,26.6 -24.03,8.58 -50.34,16.02 -78.94,22.31 -28.61,6.29 -58.64,11.15 -90.09,14.58 -31.47,3.44 -62.65,5.15 -93.53,5.15 -82.38,0 -159.6,-11.15 -231.67,-33.46 -72.08,-22.3 -134.72,-56.05 -187.91,-101.24 -53.2,-45.2 -95.25,-101.55 -126.14,-169.04 -30.88,-67.5 -46.33,-145.86 -46.33,-235.1 0,-93.81 16.87,-175.62 50.63,-245.41 33.75,-69.78 78.37,-127.85 133.84,-174.18 55.49,-46.33 118.99,-80.94 190.5,-103.82 71.49,-22.89 145,-34.32 220.51,-34.32 108.69,0 194.78,17.44 258.27,52.34 63.5,34.89 95.24,80.37 95.24,136.43 0,29.74 -7.43,55.48 -22.3,77.22 -14.88,21.73 -32.04,38.9 -51.49,51.48 -28.6,-17.16 -64.36,-34.04 -107.25,-50.62 -42.9,-16.59 -91.24,-24.88 -145.02,-24.88 -96.09,0 -172.46,27.45 -229.09,82.37 -56.64,54.91 -84.95,130.99 -84.95,228.24 0,52.62 7.73,98.1 23.17,136.42 15.44,38.33 36.32,69.79 62.64,94.39 26.31,24.6 56.63,42.9 90.95,54.92 34.32,12 70.93,18.01 109.83,18.01 25.17,0 47.47,-2.28 66.92,-6.86 19.46,-4.58 34.33,-9.72 44.62,-15.44 v -161.32 h -183.61 c -6.87,-12.58 -13.45,-29.17 -19.74,-49.77 -6.29,-20.58 -9.43,-42.32 -9.43,-65.2 0,-41.19 9.43,-70.94 28.31,-89.24 18.87,-18.3 43.18,-27.46 72.93,-27.46 h 290.02 c 34.32,0 60.92,9.43 79.8,28.32 18.87,18.88 28.31,45.47 28.31,79.79 z m 495.95,-166.46 v 329.49 c -12.59,3.44 -32.32,6.87 -59.2,10.3 -26.89,3.44 -53.48,5.15 -79.8,5.15 -26.32,0 -49.48,-2 -69.5,-6.01 -20.03,-4.01 -36.61,-11.15 -49.77,-21.45 -13.15,-10.29 -23.17,-24.59 -30.03,-42.9 -6.86,-18.31 -10.3,-42.33 -10.3,-72.08 V 10575 c 0,-24.03 6.58,-42.62 19.73,-55.78 13.17,-13.15 31.18,-23.74 54.06,-31.74 38.91,-13.73 84.09,-23.74 135.58,-30.03 51.47,-6.3 106.39,-9.44 164.74,-9.44 157.87,0 276.86,33.17 356.94,99.53 80.09,66.35 120.13,156.16 120.13,269.43 0,70.93 -18.31,131.56 -54.91,181.9 -36.62,50.34 -80.09,89.24 -130.43,116.69 41.19,56.06 81.81,108.69 121.85,157.88 40.04,49.19 71.5,93.81 94.39,133.86 -11.45,40.04 -32.33,70.64 -62.65,91.81 -30.32,21.16 -64.35,31.74 -102.1,31.74 -25.17,0 -46.91,-2.85 -65.22,-8.57 -18.3,-5.73 -34.32,-13.73 -48.04,-24.03 -13.73,-10.29 -26.32,-22.89 -37.75,-37.76 -11.45,-14.86 -22.32,-30.88 -32.62,-48.05 l -144.15,-231.67 z m 108.12,-228.24 c 43.47,0 77.79,-11.15 102.96,-33.46 25.17,-22.3 37.75,-55.2 37.75,-98.68 0,-43.47 -14.01,-76.36 -42.04,-98.67 -28.02,-22.3 -72.36,-33.46 -133,-33.46 -17.16,0 -30.89,0.57 -41.19,1.72 -10.29,1.14 -21.73,2.85 -34.32,5.15 v 257.4 z m 1154.92,-265.99 c -88.09,0 -155.59,26.89 -202.5,80.66 -46.91,53.77 -70.36,129.85 -70.36,228.24 0,99.54 26.03,176.18 78.08,229.95 52.06,53.77 122.14,80.66 210.23,80.66 46.9,0 86.66,-6.29 119.27,-18.87 32.6,-12.59 63.78,-26.89 93.53,-42.91 19.44,16.02 34.6,35.18 45.46,57.49 10.87,22.31 16.31,48.34 16.31,78.08 0,46.9 -26.03,86.66 -78.08,119.27 -52.06,32.6 -131.29,48.91 -237.68,48.91 -76.65,0 -148.73,-10.87 -216.23,-32.61 -67.49,-21.73 -126.41,-55.19 -176.75,-100.39 -50.34,-45.19 -90.1,-102.4 -119.27,-171.6 -29.17,-69.22 -43.76,-151.88 -43.76,-247.98 0,-89.24 14.01,-167.89 42.04,-235.96 28.04,-68.08 66.36,-125.56 114.98,-172.47 48.62,-46.91 105.55,-82.38 170.75,-106.4 65.21,-24.02 135,-36.03 209.36,-36.03 105.26,0 186.77,17.16 244.54,51.48 57.79,34.32 86.67,78.36 86.67,132.13 0,29.75 -7.44,55.49 -22.31,77.23 -14.88,21.73 -32.03,38.9 -51.48,51.48 -29.75,-19.45 -61.5,-36.04 -95.25,-49.77 -33.74,-13.72 -72.93,-20.59 -117.55,-20.59 z"
   id="path1283" />
  <g
   id="_2827187400896">
   <path
   class="fil5"
   d="m 17363.53,8046.04 h -397.98 c -87.38,0 -158.23,-75.92 -158.23,-169.56 0,-93.64 70.84,-169.55 158.23,-169.55 h 397.98 c 87.38,0 158.23,75.92 158.23,169.56 0,93.64 -70.84,169.55 -158.23,169.55 z"
   id="path1285" />
  </g>
 </g>
</svg>
