<?xml version="1.0" encoding="UTF-8" standalone="no"?>
<svg
   xmlns:dc="http://purl.org/dc/elements/1.1/"
   xmlns:cc="http://creativecommons.org/ns#"
   xmlns:rdf="http://www.w3.org/1999/02/22-rdf-syntax-ns#"
   xmlns:svg="http://www.w3.org/2000/svg"
   xmlns="http://www.w3.org/2000/svg"
   xmlns:sodipodi="http://sodipodi.sourceforge.net/DTD/sodipodi-0.dtd"
   xmlns:inkscape="http://www.inkscape.org/namespaces/inkscape"
   xml:space="preserve"
   width="36.606201mm"
   height="36.606201mm"
   version="1.1"
   style="clip-rule:evenodd;fill-rule:evenodd;image-rendering:optimizeQuality;shape-rendering:geometricPrecision;text-rendering:geometricPrecision"
   viewBox="0 0 3660.6201 3660.6201"
   id="svg852"
   sodipodi:docname="icono_check.svg"
   inkscape:version="1.0.2 (e86c870879, 2021-01-15, custom)"><metadata
   id="metadata856"><rdf:RDF><cc:Work
       rdf:about=""><dc:format>image/svg+xml</dc:format><dc:type
         rdf:resource="http://purl.org/dc/dcmitype/StillImage" /><dc:title></dc:title></cc:Work></rdf:RDF></metadata><sodipodi:namedview
   pagecolor="#ffffff"
   bordercolor="#666666"
   borderopacity="1"
   objecttolerance="10"
   gridtolerance="10"
   guidetolerance="10"
   inkscape:pageopacity="0"
   inkscape:pageshadow="2"
   inkscape:window-width="1343"
   inkscape:window-height="989"
   id="namedview854"
   showgrid="false"
   fit-margin-top="0"
   fit-margin-left="0"
   fit-margin-right="0"
   fit-margin-bottom="0"
   inkscape:zoom="0.71357323"
   inkscape:cx="163.66602"
   inkscape:cy="131.52227"
   inkscape:window-x="2628"
   inkscape:window-y="0"
   inkscape:window-maximized="0"
   inkscape:current-layer="svg852" />
 <defs
   id="defs835">
  <style
   type="text/css"
   id="style833">
   <![CDATA[
    .fil4 {fill:#59C35A}
    .fil2 {fill:#59C36A}
    .fil5 {fill:#72CC7F}
    .fil3 {fill:#97DE3D}
    .fil1 {fill:#DFE7F4;fill-rule:nonzero}
    .fil0 {fill:#EFF4FF;fill-rule:nonzero}
   ]]>
  </style>
 </defs>
 <g
   id="Capa_x0020_1"
   transform="translate(-6169.67,-11370.14)">
  <metadata
   id="CorelCorpID_0Corel-Layer" />
  <g
   id="_2549824995408">
   <path
   class="fil0"
   d="m 9830.29,13200.45 c 0,488.89 -190.39,948.54 -536.08,1294.23 -345.69,345.68 -805.34,536.08 -1294.23,536.08 -488.89,0 -948.54,-190.4 -1294.23,-536.08 -345.68,-345.69 -536.08,-805.34 -536.08,-1294.23 0,-488.9 190.4,-948.55 536.08,-1294.23 345.69,-345.69 805.34,-536.08 1294.23,-536.08 488.89,0 948.54,190.39 1294.23,536.08 345.69,345.68 536.08,805.33 536.08,1294.23 z"
   id="path838" />
  </g>
  <path
   class="fil1"
   d="m 9830.29,13200.45 c 0,488.89 -190.39,948.54 -536.08,1294.23 -345.69,345.68 -805.34,536.08 -1294.23,536.08 v -3660.62 c 488.89,0 948.54,190.39 1294.23,536.08 345.69,345.69 536.08,805.34 536.08,1294.23 z"
   id="path841" />
  <path
   class="fil2"
   d="m 7999,13256.53 0.93,6.26 -0.52,787.17 c 183.21,-3.1 268.37,-125.47 390.14,-246.91 l 232.2,-244.8 c 28.17,-29.18 57.62,-51.55 85.47,-80.61 105.52,-110.1 207.27,-213.22 313.59,-322.4 l 117.16,-121.34 c 60.33,-57.39 138.03,-113.08 162.83,-241.74 36.41,-188.85 -94.42,-343.74 -240.23,-378.32 -220.37,-52.25 -336.84,112 -422.41,199.77 -121.06,124.16 -229.32,243.7 -356.18,359.19 -63.83,58.1 -237.31,259.81 -282.98,283.73 z"
   id="path843" />
  <path
   class="fil3"
   d="m 7999.41,14049.96 0.52,-787.17 c -83.41,-48.31 -311.75,-351.87 -448.16,-409.72 -244.05,-103.49 -494.38,111.69 -443.75,365.01 24.92,124.68 110.72,189.72 172.93,252.64 l 219.65,213.89 c 61.66,61.7 265.76,280.32 332.1,318.21 55.53,31.71 96.43,39.1 166.71,47.14 z"
   id="path845" />
  <path
   class="fil4"
   d="m 7999,13256.53 0.93,6.26 -0.52,787.17 c 183.21,-3.1 268.37,-125.47 390.14,-246.91 l 232.2,-244.8 c 28.17,-29.18 57.62,-51.55 85.47,-80.61 105.52,-110.1 207.27,-213.22 313.59,-322.4 l 117.16,-121.34 c 60.33,-57.39 138.03,-113.08 162.83,-241.74 36.41,-188.85 -94.42,-343.74 -240.23,-378.32 -220.37,-52.25 -336.84,112 -422.41,199.77 -121.06,124.16 -229.32,243.7 -356.18,359.19 -63.83,58.1 -237.31,259.81 -282.98,283.73 z"
   id="path847" />
  <path
   class="fil5"
   d="m 7999.41,14049.96 0.52,-787.17 c -83.41,-48.31 -311.75,-351.87 -448.16,-409.72 -244.05,-103.49 -494.38,111.69 -443.75,365.01 24.92,124.68 110.72,189.72 172.93,252.64 l 219.65,213.89 c 61.66,61.7 265.76,280.32 332.1,318.21 55.53,31.71 96.43,39.1 166.71,47.14 z"
   id="path849" />
 </g>
</svg>
