<?xml version="1.0" encoding="UTF-8" standalone="no"?>
<svg
   xml:space="preserve"
   width="104.67702mm"
   height="36.697517mm"
   version="1.1"
   style="clip-rule:evenodd;fill-rule:evenodd;image-rendering:optimizeQuality;shape-rendering:geometricPrecision;text-rendering:geometricPrecision"
   viewBox="0 0 10467.702 3669.7517"
   id="svg1147"
   sodipodi:docname="logo_mad3_white.svg"
   inkscape:version="1.2 (dc2aedaf03, 2022-05-15)"
   xmlns:inkscape="http://www.inkscape.org/namespaces/inkscape"
   xmlns:sodipodi="http://sodipodi.sourceforge.net/DTD/sodipodi-0.dtd"
   xmlns="http://www.w3.org/2000/svg"
   xmlns:svg="http://www.w3.org/2000/svg"
   xmlns:rdf="http://www.w3.org/1999/02/22-rdf-syntax-ns#"
   xmlns:cc="http://creativecommons.org/ns#"
   xmlns:dc="http://purl.org/dc/elements/1.1/"><metadata
   id="metadata1151"><rdf:RDF><cc:Work
       rdf:about=""><dc:format>image/svg+xml</dc:format><dc:type
         rdf:resource="http://purl.org/dc/dcmitype/StillImage" /><dc:title /></cc:Work></rdf:RDF></metadata><sodipodi:namedview
   pagecolor="#ffffff"
   bordercolor="#666666"
   borderopacity="1"
   objecttolerance="10"
   gridtolerance="10"
   guidetolerance="10"
   inkscape:pageopacity="0"
   inkscape:pageshadow="2"
   inkscape:window-width="1333"
   inkscape:window-height="864"
   id="namedview1149"
   showgrid="false"
   inkscape:zoom="20.838833"
   inkscape:cx="380.41958"
   inkscape:cy="30.975823"
   inkscape:window-x="0"
   inkscape:window-y="0"
   inkscape:window-maximized="0"
   inkscape:current-layer="Capa_x0020_1"
   fit-margin-top="0"
   fit-margin-left="0"
   fit-margin-right="0"
   fit-margin-bottom="0"
   inkscape:showpageshadow="0"
   inkscape:pagecheckerboard="0"
   inkscape:deskcolor="#d1d1d1"
   inkscape:document-units="mm" />
 <defs
   id="defs1102">
  <style
   type="text/css"
   id="style993">
   <![CDATA[
    .str1 {stroke:white;stroke-width:50;stroke-miterlimit:22.9256}
    .str0 {stroke:#FEFEFE;stroke-width:20;stroke-miterlimit:22.9256}
    .fil11 {fill:none}
    .fil12 {fill:#E6E7E8}
    .fil15 {fill:white}
    .fil14 {fill:white}
    .fil10 {fill:#E6E7E8;fill-rule:nonzero}
    .fil8 {fill:url(#id0)}
    .fil7 {fill:url(#id1)}
    .fil3 {fill:url(#id2)}
    .fil9 {fill:url(#id3)}
    .fil1 {fill:url(#id4)}
    .fil5 {fill:url(#id5)}
    .fil4 {fill:url(#id6)}
    .fil2 {fill:url(#id7)}
    .fil0 {fill:url(#id8)}
    .fil6 {fill:url(#id9)}
    .fil13 {fill:url(#id10)}
    .fnt0 {font-weight:normal;font-size:316.37px;font-family:'ISOCPEUR'}
   ]]>
  </style>
  <linearGradient
   id="id0"
   gradientUnits="userSpaceOnUse"
   x1="17707.83"
   y1="10731.21"
   x2="19052.59"
   y2="9847">
   <stop
   offset="0"
   style="stop-opacity:1; stop-color:#FEFEFE"
   id="stop995" />
   <stop
   offset="0.552941"
   style="stop-opacity:1; stop-color:#E8E9EA"
   id="stop997" />
   <stop
   offset="0.729412"
   style="stop-opacity:1; stop-color:#D2D3D5"
   id="stop999" />
   <stop
   offset="0.803922"
   style="stop-opacity:1; stop-color:#C8C9CB"
   id="stop1001" />
   <stop
   offset="1"
   style="stop-opacity:1; stop-color:#BDBFC1"
   id="stop1003" />
  </linearGradient>
  <linearGradient
   id="id1"
   gradientUnits="userSpaceOnUse"
   x1="19138.35"
   y1="10701.07"
   x2="18701.631"
   y2="8550.4004">
   <stop
   offset="0"
   style="stop-opacity:1; stop-color:#BDBFC1"
   id="stop1006" />
   <stop
   offset="0.419608"
   style="stop-opacity:1; stop-color:#F1F2F2"
   id="stop1008" />
   <stop
   offset="0.831373"
   style="stop-opacity:1; stop-color:#E8E9EA"
   id="stop1010" />
   <stop
   offset="1"
   style="stop-opacity:1; stop-color:#D2D3D5"
   id="stop1012" />
  </linearGradient>
  <linearGradient
   id="id2"
   gradientUnits="userSpaceOnUse"
   x1="16768.119"
   y1="10145.37"
   x2="17540.449"
   y2="9117.5303">
   <stop
   offset="0"
   style="stop-opacity:1; stop-color:#E6E7E8"
   id="stop1015" />
   <stop
   offset="0.560784"
   style="stop-opacity:1; stop-color:#F1F2F2"
   id="stop1017" />
   <stop
   offset="1"
   style="stop-opacity:1; stop-color:#BDBFC1"
   id="stop1019" />
  </linearGradient>
  <linearGradient
   id="id3"
   gradientUnits="userSpaceOnUse"
   x1="14284.69"
   y1="9641.3604"
   x2="13345.88"
   y2="9626.2598">
   <stop
   offset="0"
   style="stop-opacity:1; stop-color:#E6E7E8"
   id="stop1022" />
   <stop
   offset="0.521569"
   style="stop-opacity:1; stop-color:#F1F2F2"
   id="stop1024" />
   <stop
   offset="1"
   style="stop-opacity:1; stop-color:#E6E7E8"
   id="stop1026" />
  </linearGradient>
  <linearGradient
   id="id4"
   gradientUnits="userSpaceOnUse"
   x1="16650.961"
   y1="9869.7998"
   x2="16794.65"
   y2="10358.42">
   <stop
   offset="0"
   style="stop-opacity:1; stop-color:#BDBFC1"
   id="stop1029" />
   <stop
   offset="0.211765"
   style="stop-opacity:1; stop-color:#DDDEDF"
   id="stop1031" />
   <stop
   offset="1"
   style="stop-opacity:1; stop-color:#FEFEFE"
   id="stop1033" />
  </linearGradient>
  <linearGradient
   id="id5"
   gradientUnits="userSpaceOnUse"
   x1="15785.08"
   y1="10472.75"
   x2="14287.5"
   y2="9871.2998">
   <stop
   offset="0"
   style="stop-opacity:1; stop-color:#FEFEFE"
   id="stop1036" />
   <stop
   offset="0.533333"
   style="stop-opacity:1; stop-color:#DEDFE0"
   id="stop1038" />
   <stop
   offset="0.701961"
   style="stop-opacity:1; stop-color:#BDBFC1"
   id="stop1040" />
   <stop
   offset="0.784314"
   style="stop-opacity:1; stop-color:#D1D3D4"
   id="stop1042" />
   <stop
   offset="1"
   style="stop-opacity:1; stop-color:#E6E7E8"
   id="stop1044" />
  </linearGradient>
  <linearGradient
   id="id6"
   gradientUnits="userSpaceOnUse"
   x1="12674.11"
   y1="10357.76"
   x2="13968.21"
   y2="9986.29">
   <stop
   offset="0"
   style="stop-opacity:1; stop-color:#FEFEFE"
   id="stop1047" />
   <stop
   offset="0.564706"
   style="stop-opacity:1; stop-color:#F2F3F3"
   id="stop1049" />
   <stop
   offset="0.678431"
   style="stop-opacity:1; stop-color:#E6E7E8"
   id="stop1051" />
   <stop
   offset="0.768627"
   style="stop-opacity:1; stop-color:#D2D3D5"
   id="stop1053" />
   <stop
   offset="1"
   style="stop-opacity:1; stop-color:#BDBFC1"
   id="stop1055" />
  </linearGradient>
  <linearGradient
   id="id7"
   gradientUnits="userSpaceOnUse"
   x1="15461.5"
   y1="9110.5498"
   x2="16582.49"
   y2="11231.08">
   <stop
   offset="0"
   style="stop-opacity:1; stop-color:white"
   id="stop1058" />
   <stop
   offset="0.345098"
   style="stop-opacity:1; stop-color:#F3F3F4"
   id="stop1060" />
   <stop
   offset="0.419608"
   style="stop-opacity:1; stop-color:#E6E7E8"
   id="stop1062" />
   <stop
   offset="0.52549"
   style="stop-opacity:1; stop-color:#DCDDDF"
   id="stop1064" />
   <stop
   offset="1"
   style="stop-opacity:1; stop-color:#D2D3D5"
   id="stop1066" />
  </linearGradient>
  <linearGradient
   id="id8"
   gradientUnits="userSpaceOnUse"
   x1="9555.0596"
   y1="8442.9805"
   x2="12086.31"
   y2="12022.89">
   <stop
   offset="0"
   style="stop-opacity:1; stop-color:#1A73FF"
   id="stop1069" />
   <stop
   offset="0.396078"
   style="stop-opacity:1; stop-color:#1972FD"
   id="stop1071" />
   <stop
   offset="0.521569"
   style="stop-opacity:1; stop-color:#1870FB"
   id="stop1073" />
   <stop
   offset="0.705882"
   style="stop-opacity:1; stop-color:#0C5CDA"
   id="stop1075" />
   <stop
   offset="1"
   style="stop-opacity:1; stop-color:#0047B8"
   id="stop1077" />
  </linearGradient>
  <linearGradient
   id="id9"
   gradientUnits="userSpaceOnUse"
   x1="15552.4"
   y1="9108.7598"
   x2="13213.38"
   y2="11235.29">
   <stop
   offset="0"
   style="stop-opacity:1; stop-color:white"
   id="stop1080" />
   <stop
   offset="0.345098"
   style="stop-opacity:1; stop-color:#F3F3F4"
   id="stop1082" />
   <stop
   offset="0.419608"
   style="stop-opacity:1; stop-color:#E6E7E8"
   id="stop1084" />
   <stop
   offset="0.52549"
   style="stop-opacity:1; stop-color:#D2D3D5"
   id="stop1086" />
   <stop
   offset="1"
   style="stop-opacity:1; stop-color:#BDBFC1"
   id="stop1088" />
  </linearGradient>
  <linearGradient
   id="id10"
   gradientUnits="userSpaceOnUse"
   x1="10753.46"
   y1="12224.63"
   x2="10938.65"
   y2="8153.6401">
   <stop
   offset="0"
   style="stop-opacity:1; stop-color:#1A73FF"
   id="stop1091" />
   <stop
   offset="0.52549"
   style="stop-opacity:1; stop-color:#1972FD"
   id="stop1093" />
   <stop
   offset="0.690196"
   style="stop-opacity:1; stop-color:#1870FB"
   id="stop1095" />
   <stop
   offset="0.811765"
   style="stop-opacity:1; stop-color:#0C5CDA"
   id="stop1097" />
   <stop
   offset="1"
   style="stop-opacity:1; stop-color:#0047B8"
   id="stop1099" />
  </linearGradient>
 </defs>
 <g
   id="Capa_x0020_1"
   transform="translate(-9591.2074,-8055.5184)"
   inkscape:label="Capa 1">
  <metadata
   id="CorelCorpID_0Corel-Layer" />
  <path
   class="fil0"
   d="m 11903.08,8391.85 c 1010.55,587.47 1028.04,1060.97 498.2,1972.39 -528.06,908.36 -954.93,1089.7 -1944.04,514.7 -1037.48,-603.13 -1056.15,-1054.25 -511.75,-1990.72 534.07,-918.7 976.84,-1066.52 1957.59,-496.37 z"
   id="path1105"
   style="fill:url(#id8)" />
  <polygon
   class="fil1"
   points="17193.18,10340.93 16252.43,10340.93 16438,9887.3 17193.18,9887.3 "
   id="polygon1107"
   style="fill:url(#id4)" />
  <polygon
   class="fil2"
   points="16998.24,8518.79 16394.34,8518.79 15486.04,10744.12 16089.94,10744.12 "
   id="polygon1109"
   style="fill:url(#id7)" />
  <polygon
   class="fil3"
   points="16398.19,8518.79 17002.08,8518.79 17910.39,10744.12 17306.49,10744.12 "
   id="polygon1111"
   style="fill:url(#id2)" />
  <polygon
   class="fil4"
   points="13667.72,8523.49 13165.01,8523.49 13036.77,10744.12 13539.48,10744.12 "
   id="polygon1113"
   style="fill:url(#id6)" />
  <polygon
   class="fil5"
   points="14689.73,8523.49 15192.44,8523.49 15320.68,10744.12 14817.97,10744.12 "
   id="polygon1115"
   style="fill:url(#id5)" />
  <polygon
   class="fil6"
   points="14672.9,8523.49 15175.61,8523.49 14446.37,10744.12 13943.67,10744.12 "
   id="polygon1117"
   style="fill:url(#id9)" />
  <path
   class="fil7"
   d="m 18101.83,10258.06 v 467.09 l 559.42,7.42 c 404.09,5.36 672.96,-189.08 842.6,-388.6 309.36,-363.87 303.11,-989.33 35.95,-1373.79 -214.5,-308.69 -635.53,-498.93 -1437.97,-441.05 v 490.46 c 530.42,-32.64 808.72,74.64 950.51,248.73 176.59,216.82 180.15,569.14 -23.77,774.77 -156.67,157.98 -445.51,258.41 -926.74,214.97 z"
   id="path1119"
   style="fill:url(#id1)" />
  <path
   class="fil8"
   d="M 18658.59,10731.78 V 9050.09 c -144.55,-32.71 -326.98,-44.95 -556.76,-30.69 v 1712.38 z"
   id="path1121"
   style="fill:url(#id0)" />
  <polygon
   class="fil9"
   points="13687.91,8523.49 13185.21,8523.49 13942.65,10744.12 14445.36,10744.12 "
   id="polygon1123"
   style="fill:url(#id3)" />
  <path
   class="fil10"
   d="m 15656.93,11202.92 v 196.3 c 0,17.91 6.43,33.29 19.26,46.12 12.85,13.01 28.22,19.43 46.12,19.43 h 97.98 c 21.8,0 32.61,10.81 32.61,32.44 0,21.62 -10.81,32.43 -32.61,32.43 h -97.98 c -36.65,0 -67.57,-12.66 -92.57,-37.84 -25.17,-25.17 -37.67,-56.09 -37.67,-92.74 v -195.97 c 0,-36.66 12.5,-67.57 37.67,-92.75 25,-25.17 55.92,-37.83 92.57,-37.83 h 97.98 c 21.8,0 32.61,10.81 32.61,32.42 0,21.63 -10.81,32.44 -32.61,32.44 h -97.98 c -18.24,0 -33.61,6.43 -46.28,19.09 -12.67,12.68 -19.1,28.21 -19.1,46.46 z m 489.91,-65.38 c -27.02,0 -50.17,9.46 -69.26,28.55 -19.09,19.26 -28.72,42.24 -28.72,69.44 v 32.6 h 195.96 v -32.6 c 0,-27.2 -9.45,-50.18 -28.71,-69.44 -19.09,-19.09 -42.23,-28.55 -69.27,-28.55 z m -97.98,195.46 v 65.89 c 0,17.91 6.43,33.44 19.26,46.45 12.84,13.01 28.22,19.43 46.12,19.43 h 163.37 c 21.61,0 32.6,10.81 32.6,32.44 0,21.62 -10.99,32.43 -32.6,32.43 h -163.37 c -36.66,0 -67.58,-12.66 -92.57,-37.84 -25.18,-25.17 -37.67,-56.09 -37.67,-92.74 v -163.36 c 0,-45.11 15.87,-83.63 47.46,-115.39 31.76,-31.93 70.28,-47.8 115.38,-47.8 45.95,0 84.64,15.71 116.06,47.13 31.6,31.42 47.31,69.94 47.31,115.71 v 97.65 z m 392.45,-227.89 c 0,-21.79 10.8,-32.6 32.43,-32.6 h 195.79 c 21.79,0 32.61,10.81 32.61,32.42 v 65.05 c 0,21.79 -10.82,32.77 -32.61,32.77 -21.79,0 -32.77,-10.98 -32.77,-32.77 v -32.61 h -130.59 v 359.5 c 0,21.79 -10.81,32.77 -32.43,32.77 -21.63,0 -32.43,-10.81 -32.43,-32.6 z m 390.91,261.34 v -130.75 c 0,-45.11 15.88,-83.63 47.8,-115.39 31.94,-31.93 70.62,-47.8 115.89,-47.8 45.95,0 84.81,15.71 116.41,47.3 31.59,31.42 47.3,70.1 47.3,115.89 v 130.75 c 0,45.1 -15.88,83.62 -47.82,115.38 -31.92,31.93 -70.61,47.81 -115.89,47.81 -45.27,0 -83.95,-15.88 -115.89,-47.81 -31.92,-31.76 -47.8,-70.28 -47.8,-115.38 z m 262.52,0.34 v -130.76 c 0,-27.02 -9.63,-50 -28.89,-69.26 -19.42,-19.09 -42.57,-28.72 -69.94,-28.72 -27.19,0 -50.51,9.63 -69.94,28.72 -19.26,19.26 -28.88,42.24 -28.88,69.26 v 130.76 c 0,27.37 9.62,50.51 28.72,69.6 19.09,18.92 42.57,28.38 70.1,28.38 27.37,0 50.52,-9.63 69.94,-28.71 19.26,-19.1 28.89,-42.24 28.89,-69.27 z m 586.72,-261.68 c 0,-21.79 10.98,-32.6 32.77,-32.6 h 163.7 c 36.66,0 67.74,12.66 92.91,37.83 25.34,25.18 38.02,56.09 38.02,92.75 v 195.97 c 0,36.32 -12.68,67.06 -38.02,92.4 -25.34,25.52 -56.42,38.18 -93.25,38.18 h -131.27 v 163.03 c 0,21.79 -10.81,32.6 -32.42,32.6 -21.63,0 -32.44,-10.81 -32.44,-32.6 z m 64.86,32.26 v 327.4 h 131.77 c 18.26,0 33.79,-6.42 46.63,-19.08 12.84,-12.68 19.26,-28.22 19.26,-46.47 v -196.3 c 0,-18.58 -6.25,-34.13 -18.92,-46.62 -12.67,-12.68 -28.38,-18.93 -46.97,-18.93 z m 523.37,392.27 c -36.65,0 -67.57,-12.66 -92.91,-37.84 -25.18,-25.34 -37.84,-56.26 -37.84,-92.91 0,-23.82 5.74,-45.78 17.4,-65.89 24.66,-43.25 62.5,-64.87 113.35,-64.87 h 130.59 v -65.38 c 0,-18.41 -6.25,-33.96 -18.75,-46.62 -12.67,-12.51 -28.05,-18.76 -46.63,-18.76 h -130.58 c -21.8,0 -32.61,-10.81 -32.61,-32.44 0,-21.61 10.81,-32.42 32.61,-32.42 h 130.58 c 36.66,0 67.58,12.66 92.58,37.83 25.17,25.18 37.67,56.09 37.67,92.75 v 293.95 c 0,21.79 -10.81,32.6 -32.43,32.6 z m 130.59,-196.64 h -130.59 c -18.24,0 -33.62,6.42 -46.28,19.26 -12.85,12.84 -19.09,28.38 -19.09,46.63 0,17.91 6.41,33.44 19.25,46.45 12.85,13.01 28.21,19.43 46.12,19.43 h 130.59 z m 195.8,-227.89 c 0,-21.79 10.98,-32.6 32.78,-32.6 h 163.69 c 36.66,0 67.74,12.66 92.92,37.83 25.34,25.18 38.01,56.09 38.01,92.75 v 195.97 c 0,36.32 -12.67,67.06 -38.01,92.4 -25.35,25.52 -56.42,38.18 -93.26,38.18 h -131.26 v 163.03 c 0,21.79 -10.81,32.6 -32.43,32.6 -21.62,0 -32.44,-10.81 -32.44,-32.6 z m 64.87,32.26 v 327.4 h 131.77 c 18.25,0 33.78,-6.42 46.63,-19.08 12.84,-12.68 19.26,-28.22 19.26,-46.47 v -196.3 c 0,-18.58 -6.25,-34.13 -18.93,-46.62 -12.66,-12.68 -28.37,-18.93 -46.96,-18.93 z m 556.31,0.17 c -27.03,0 -50.17,9.46 -69.26,28.55 -19.09,19.26 -28.72,42.24 -28.72,69.44 v 32.6 h 195.96 v -32.6 c 0,-27.2 -9.45,-50.18 -28.71,-69.44 -19.1,-19.09 -42.24,-28.55 -69.27,-28.55 z m -97.98,195.46 v 65.89 c 0,17.91 6.42,33.44 19.25,46.45 12.85,13.01 28.22,19.43 46.12,19.43 h 163.37 c 21.62,0 32.6,10.81 32.6,32.44 0,21.62 -10.98,32.43 -32.6,32.43 h -163.37 c -36.65,0 -67.57,-12.66 -92.57,-37.84 -25.17,-25.17 -37.67,-56.09 -37.67,-92.74 v -163.36 c 0,-45.11 15.88,-83.63 47.47,-115.39 31.76,-31.93 70.27,-47.8 115.38,-47.8 45.95,0 84.63,15.71 116.06,47.13 31.59,31.42 47.3,69.94 47.3,115.71 v 97.65 z m 392.44,-424.53 c 0,-21.79 10.81,-32.61 32.43,-32.61 21.63,0 32.44,10.82 32.44,32.61 v 523.02 c 0,16.9 10.81,27.88 32.6,32.78 21.79,4.89 32.77,15.87 32.77,32.6 0,21.79 -10.98,32.77 -32.77,32.77 -29.22,0 -52.88,-8.61 -70.61,-26.02 -17.91,-17.39 -26.86,-41.38 -26.86,-72.13 z"
   id="path1125" />
  <circle
   class="fil11 str0"
   cx="19874.189"
   cy="8719.75"
   r="174.72"
   id="circle1127"
   style="fill:none" />
  <text
   x="19781.236"
   y="8809.7607"
   class="fil12 fnt0"
   id="text1129"
   style="font-size:261.285px;stroke-width:1.05807"><tspan
     style="font-style:normal;font-variant:normal;font-weight:normal;font-stretch:normal;font-size:261.285px;font-family:'Arial Rounded MT Bold';-inkscape-font-specification:'Arial Rounded MT Bold, ';stroke-width:1.05807"
     id="tspan351">R</tspan></text>
  <g
   id="_2549935739104">
   <path
   class="fil13"
   d="m 11849.56,8482.23 c 936.91,544.65 953.12,983.65 461.89,1828.64 -489.57,842.16 -885.33,1010.28 -1802.35,477.19 -961.87,-559.17 -979.19,-977.42 -474.46,-1845.63 495.15,-851.75 905.65,-988.79 1814.92,-460.2 z"
   id="path1131"
   style="fill:url(#id10)" />
   <path
   class="fil14 str1"
   d="m 11534.59,9611.65 c -363.67,88.3 -223.08,590.01 109.61,516.01 126.6,-28.16 236.16,-159.52 198.81,-319.18 -28.15,-120.38 -155.19,-234.03 -308.42,-196.83 z m -12.02,73.22 c -113.81,43.07 -160.79,144.1 -123.24,250.44 29.16,82.58 126.72,162.33 247.53,121.26 250.84,-85.26 116.15,-462.69 -124.29,-371.7 z"
   id="path1133" />
   <rect
   class="fil15"
   x="10351.5"
   y="8668.5"
   width="1274.48"
   height="139.12"
   rx="76.309998"
   ry="94.18"
   id="rect1135" />
   <rect
   class="fil15"
   x="10351.5"
   y="9045.1904"
   width="1274.48"
   height="139.12"
   rx="76.309998"
   ry="94.18"
   id="rect1137" />
   <rect
   class="fil15"
   x="10351.5"
   y="9421.8799"
   width="637.23999"
   height="139.12"
   rx="38.16"
   ry="94.18"
   id="rect1139" />
   <rect
   class="fil15"
   x="10351.5"
   y="9798.5801"
   width="522.59998"
   height="139.12"
   rx="31.290001"
   ry="94.18"
   id="rect1141" />
   <path
   class="fil15"
   d="m 11849.56,8482.23 c 38.74,22.51 75.76,44.79 111.38,66.99 l 0.01,934.16 c 99.74,97.55 161.68,233.61 161.68,384.16 0,161.45 -71.22,306.26 -183.95,404.76 l 36.54,342.51 c -2.49,65.28 -47.56,75.22 -117.36,53 -68.56,-26.07 -137.13,-52.15 -205.7,-78.23 -43.74,-23.98 -87.49,-18.52 -131.24,1.26 -82.44,29.44 -164.89,58.89 -247.33,88.33 -65.99,3.02 -85.87,-49.69 -79.5,-132.5 9.29,-58.96 22.01,-144.65 33.1,-217.66 h -902.52 c -46.38,0 -71.38,1.77 -116.75,-11.26 -141.26,-40.57 -210.31,-143.63 -211.43,-401.42 L 9996.48,9009 c 12.39,-21.94 25.06,-44.04 38.16,-66.57 28.75,-49.46 57.22,-96.51 85.52,-141.16 v 1173.11 c 13.71,185.64 80.86,230.11 221.39,225.53 h 821.54 c -72.1,-91.45 -115.14,-206.88 -115.14,-332.37 0,-296.77 240.58,-537.35 537.34,-537.35 91.07,0 176.84,22.68 251.99,62.67 v -917.75 c 4.11,2.37 8.16,4.72 12.28,7.12 z m -23.06,1865.56 c -72.54,36.51 -154.47,57.09 -241.21,57.09 -84.98,0 -165.33,-19.75 -236.76,-54.88 l -24.47,180.26 180.46,-61.83 h 166.57 l 167.84,61.83 z m -241.21,-901.95 c 232.9,0 421.7,188.8 421.7,421.7 0,232.9 -188.8,421.7 -421.7,421.7 -232.9,0 -421.7,-188.8 -421.7,-421.7 0,-232.9 188.8,-421.7 421.7,-421.7 z"
   id="path1143" />
  </g>
 </g>
</svg>
