<?xml version="1.0" encoding="UTF-8" standalone="no"?>
<svg
   xmlns:dc="http://purl.org/dc/elements/1.1/"
   xmlns:cc="http://creativecommons.org/ns#"
   xmlns:rdf="http://www.w3.org/1999/02/22-rdf-syntax-ns#"
   xmlns:svg="http://www.w3.org/2000/svg"
   xmlns="http://www.w3.org/2000/svg"
   xmlns:sodipodi="http://sodipodi.sourceforge.net/DTD/sodipodi-0.dtd"
   xmlns:inkscape="http://www.inkscape.org/namespaces/inkscape"
   xml:space="preserve"
   width="100"
   height="75"
   version="1.1"
   style="clip-rule:evenodd;fill-rule:evenodd;image-rendering:optimizeQuality;shape-rendering:geometricPrecision;text-rendering:geometricPrecision"
   viewBox="0 0 2645.8333 1984.3749"
   id="svg875"
   sodipodi:docname="office.svg"
   inkscape:version="1.0.2 (e86c870879, 2021-01-15, custom)"><metadata
   id="metadata879"><rdf:RDF><cc:Work
       rdf:about=""><dc:format>image/svg+xml</dc:format><dc:type
         rdf:resource="http://purl.org/dc/dcmitype/StillImage" /><dc:title></dc:title></cc:Work></rdf:RDF></metadata><sodipodi:namedview
   pagecolor="#ffffff"
   bordercolor="#666666"
   borderopacity="1"
   objecttolerance="10"
   gridtolerance="10"
   guidetolerance="10"
   inkscape:pageopacity="0"
   inkscape:pageshadow="2"
   inkscape:window-width="2400"
   inkscape:window-height="1271"
   id="namedview877"
   showgrid="false"
   fit-margin-top="0"
   fit-margin-left="0"
   fit-margin-right="0"
   fit-margin-bottom="0"
   inkscape:zoom="8.3654462"
   inkscape:cx="21.705267"
   inkscape:cy="46.081064"
   inkscape:window-x="-9"
   inkscape:window-y="-9"
   inkscape:window-maximized="1"
   inkscape:current-layer="svg875"
   inkscape:document-rotation="0"
   units="px" />
 <defs
   id="defs869">
  <style
   type="text/css"
   id="style867">
   <![CDATA[
    .fil0 {fill:white;fill-opacity:0.9}
   ]]>
  </style>
 </defs>
 <g
   id="Capa_x0020_1"
   transform="matrix(0.81954648,0,0,0.81954648,-7580.7761,-11938.927)"
   style="fill:#ffffff">
  <metadata
   id="CorelCorpID_0Corel-Layer" />
  <path
   class="fil0"
   d="m 9749.37,16310.8 c 24.48,0 44.34,-19.85 44.34,-44.34 v -1298.61 c 0,-50.42 41.03,-91.45 91.45,-91.45 h 1038.95 c 50.42,0 91.46,41.03 91.46,91.45 v 133.07 c 0,24.48 19.85,44.34 44.34,44.34 24.49,0 44.36,-19.86 44.36,-44.34 v -133.07 c 0,-99.33 -80.83,-180.15 -180.16,-180.15 H 9885.16 c -99.33,0 -180.15,80.82 -180.15,180.15 v 1298.61 c 0,24.49 19.86,44.34 44.36,44.34 z m 1354.9,377.33 v -1232.41 c 0,-24.49 -19.87,-44.36 -44.36,-44.36 -24.49,0 -44.34,19.87 -44.34,44.36 v 1232.41 h -147.43 v 0 h -40 v -163.26 c 0,-24.48 -19.87,-44.36 -44.36,-44.36 h -758.28 c -24.49,0 -44.35,19.88 -44.35,44.36 v 163.26 h -40.02 v 0 h -147.42 v -66.87 c 0,-24.49 -19.86,-44.36 -44.34,-44.36 -24.5,0 -44.37,19.87 -44.37,44.36 v 66.87 h -197.85 c -26.95,0 -48.82,21.85 -48.82,48.82 0,26.95 21.87,48.83 48.82,48.83 h 433.98 97.65 290.39 150.94 290.38 97.65 433.98 c 26.95,0 48.83,-21.88 48.83,-48.83 0,-26.97 -21.88,-48.82 -48.83,-48.82 z m -320.49,-698.49 h -261.43 c -24.49,0 -44.36,19.85 -44.36,44.34 v 261.43 c 0,24.49 19.87,44.36 44.36,44.36 h 261.43 c 24.49,0 44.36,-19.87 44.36,-44.36 v -261.43 c 0,-24.49 -19.87,-44.34 -44.36,-44.34 z m 44.36,-434.4 c 0,-24.49 -19.87,-44.34 -44.36,-44.34 h -261.43 c -24.49,0 -44.36,19.85 -44.36,44.34 v 261.43 c 0,24.49 19.87,44.36 44.36,44.36 h 261.43 c 24.49,0 44.36,-19.87 44.36,-44.36 z m -541.22,434.4 h -261.42 c -24.49,0 -44.35,19.85 -44.35,44.34 v 261.43 c 0,24.49 19.86,44.36 44.35,44.36 h 261.42 c 24.51,0 44.36,-19.87 44.36,-44.36 v -261.43 c 0,-24.49 -19.85,-44.34 -44.36,-44.34 z m 44.36,-913.14 c 0,-24.49 -19.85,-44.34 -44.36,-44.34 h -261.42 c -24.49,0 -44.35,19.85 -44.35,44.34 v 261.43 c 0,24.49 19.86,44.36 44.35,44.36 h 261.42 c 24.51,0 44.36,-19.87 44.36,-44.36 z m 496.86,0 c 0,-24.49 -19.87,-44.34 -44.36,-44.34 h -261.43 c -24.49,0 -44.36,19.85 -44.36,44.34 v 261.43 c 0,24.49 19.87,44.36 44.36,44.36 h 261.43 c 24.49,0 44.36,-19.87 44.36,-44.36 z m -496.86,478.74 c 0,-24.49 -19.85,-44.34 -44.36,-44.34 h -261.42 c -24.49,0 -44.35,19.85 -44.35,44.34 v 261.43 c 0,24.49 19.86,44.36 44.35,44.36 h 261.42 c 24.51,0 44.36,-19.87 44.36,-44.36 z m -581.91,844.26 c -24.42,0 -44.35,19.92 -44.35,44.36 0,24.42 19.93,44.34 44.35,44.34 24.42,0 44.35,-19.92 44.35,-44.34 0,-24.44 -19.93,-44.36 -44.35,-44.36 z m 1310.54,-1165.54 c -24.42,0 -44.34,19.92 -44.34,44.36 0,24.42 19.92,44.34 44.34,44.34 24.43,0 44.36,-19.92 44.36,-44.34 0,-24.44 -19.93,-44.36 -44.36,-44.36 z m -990.06,1454.17 h 259.32 150.94 259.33 v -118.92 h -669.59 z m 172.73,-915.8 h -172.73 v -172.73 h 172.73 z m 496.86,-478.75 h -172.75 v -172.73 h 172.75 z m -496.86,0 h -172.73 v -172.73 h 172.73 z m 0,957.49 h -172.73 v -172.73 h 172.73 z m 496.86,-478.74 h -172.75 v -172.73 h 172.75 z m 0,478.74 h -172.75 v -172.73 h 172.75 z"
   id="path872"
   style="fill:#ffffff" />
 </g>
</svg>
