<?xml version="1.0" encoding="UTF-8" standalone="no"?>
<svg
   xmlns:dc="http://purl.org/dc/elements/1.1/"
   xmlns:cc="http://creativecommons.org/ns#"
   xmlns:rdf="http://www.w3.org/1999/02/22-rdf-syntax-ns#"
   xmlns:svg="http://www.w3.org/2000/svg"
   xmlns="http://www.w3.org/2000/svg"
   xmlns:sodipodi="http://sodipodi.sourceforge.net/DTD/sodipodi-0.dtd"
   xmlns:inkscape="http://www.inkscape.org/namespaces/inkscape"
   xml:space="preserve"
   width="100"
   height="75"
   version="1.1"
   style="clip-rule:evenodd;fill-rule:evenodd;image-rendering:optimizeQuality;shape-rendering:geometricPrecision;text-rendering:geometricPrecision"
   viewBox="0 0 2645.8334 1984.3749"
   id="svg875"
   sodipodi:docname="personal.svg"
   inkscape:version="1.0.2 (e86c870879, 2021-01-15, custom)"><metadata
   id="metadata879"><rdf:RDF><cc:Work
       rdf:about=""><dc:format>image/svg+xml</dc:format><dc:type
         rdf:resource="http://purl.org/dc/dcmitype/StillImage" /><dc:title></dc:title></cc:Work></rdf:RDF></metadata><sodipodi:namedview
   pagecolor="#ffffff"
   bordercolor="#666666"
   borderopacity="1"
   objecttolerance="10"
   gridtolerance="10"
   guidetolerance="10"
   inkscape:pageopacity="0"
   inkscape:pageshadow="2"
   inkscape:window-width="2400"
   inkscape:window-height="1271"
   id="namedview877"
   showgrid="false"
   fit-margin-top="0"
   fit-margin-left="0"
   fit-margin-right="0"
   fit-margin-bottom="0"
   inkscape:zoom="8.3654462"
   inkscape:cx="21.705267"
   inkscape:cy="46.081064"
   inkscape:window-x="-9"
   inkscape:window-y="-9"
   inkscape:window-maximized="1"
   inkscape:current-layer="svg875"
   inkscape:document-rotation="0"
   units="px" />
 <defs
   id="defs869">
  <style
   type="text/css"
   id="style867">
   <![CDATA[
    .fil0 {fill:white;fill-opacity:0.9}
   ]]>
  </style>
 <style
   type="text/css"
   id="style1442">
   <![CDATA[
    .fil0 {fill:white;fill-opacity:0.9}
   ]]>
  </style></defs>
 
<g
   style="clip-rule:evenodd;fill:#ffffff;fill-rule:evenodd;image-rendering:optimizeQuality;shape-rendering:geometricPrecision;text-rendering:geometricPrecision"
   id="g1465"
   transform="matrix(0.84249977,0,0,0.84249977,-10031.134,-12324.909)"><g
     id="Capa_x0020_1"
     style="fill:#ffffff">
  <metadata
   id="CorelCorpID_0Corel-Layer" />
  <g
   id="_2306158573280"
   style="fill:#ffffff">
   <path
   class="fil0"
   d="m 13074.77,16627.31 h 535.14 c 98.87,0 179.3,-80.44 179.3,-179.32 v -101.68 c 0,-165.14 -80.91,-319.64 -227.86,-435.04 -90.62,-71.17 -199.88,-122.13 -318.89,-150.03 86.87,-65.68 143.15,-169.81 143.15,-286.87 v -141.68 c 0,-198.23 -161.26,-359.5 -359.49,-359.5 -198.21,0 -359.47,161.27 -359.47,359.5 v 141.66 c 0,117.65 56.81,222.25 144.4,287.88 -106.81,25.58 -207.94,69.54 -292.91,128.76 -164.51,114.66 -255.11,278.95 -255.11,462.54 0,26.87 21.8,48.65 48.65,48.65 26.87,0 48.66,-21.78 48.66,-48.65 0,-193.34 116.06,-314.85 213.45,-382.72 123.04,-85.77 292.13,-136.97 452.33,-136.97 367.13,0 665.8,229.89 665.8,512.45 v 101.7 c 0,45.21 -36.79,82.01 -82.01,82.01 h -535.14 v 0 h -97.31 v 0 h -432.45 c -26.85,0 -48.65,21.78 -48.65,48.65 0,26.86 21.8,48.66 48.65,48.66 h 432.46 z m -310.81,-1152.96 v -141.66 c 0,-144.58 117.6,-262.19 262.18,-262.19 144.55,0 262.16,117.61 262.16,262.19 v 141.66 c 0,144.56 -117.61,262.18 -262.16,262.18 h -0.02 c -144.56,0 -262.16,-117.62 -262.16,-262.18 z"
   id="path1447"
   style="fill:#ffffff" />
   <path
   class="fil0"
   d="m 12353.55,16592.28 c 26.8,0 48.65,-21.86 48.65,-48.66 0,-26.79 -21.85,-48.65 -48.65,-48.65 -26.8,0 -48.65,21.86 -48.65,48.65 0,26.8 21.85,48.66 48.65,48.66 z"
   id="path1449"
   style="fill:#ffffff" />
  </g>
 </g></g></svg>
