<?xml version="1.0" standalone="no"?>
<!DOCTYPE svg PUBLIC "-//W3C//DTD SVG 20010904//EN"
 "http://www.w3.org/TR/2001/REC-SVG-20010904/DTD/svg10.dtd">
<svg version="1.0" xmlns="http://www.w3.org/2000/svg"
 width="512.000000pt" height="512.000000pt" viewBox="0 0 512.000000 512.000000"
 preserveAspectRatio="xMidYMid meet">
<metadata>
Created by potrace 1.14, written by Peter Selinger 2001-2017
</metadata>
<g transform="translate(0.000000,512.000000) scale(0.100000,-0.100000)"
fill="#000000" stroke="none">
<path d="M2044 5109 c-48 -7 -151 -32 -219 -52 -228 -69 -490 -258 -713 -513
-256 -295 -573 -796 -802 -1269 -162 -336 -234 -536 -281 -778 -37 -190 -31
-465 13 -607 96 -312 267 -551 594 -831 24 -21 138 -108 269 -207 79 -59 431
-280 570 -357 28 -15 88 -49 135 -75 235 -130 554 -269 770 -333 100 -30 147
-41 305 -72 68 -14 351 -13 430 1 292 52 530 186 780 438 242 244 444 529 730
1031 59 103 212 401 253 491 80 177 174 443 196 554 3 14 7 34 9 45 34 156 43
433 18 560 -34 171 -115 362 -218 510 -31 44 -59 82 -62 85 -3 3 -31 34 -61
70 -152 180 -372 364 -679 569 -110 74 -347 221 -355 221 -2 0 -48 25 -102 56
-108 61 -354 187 -449 229 -248 110 -535 203 -690 221 -27 4 -54 9 -59 11 -15
10 -320 11 -382 2z"/>
</g>
</svg>
